<?xml version="1.0" standalone="no"?>
<!DOCTYPE svg PUBLIC "-//W3C//DTD SVG 20010904//EN"
 "http://www.w3.org/TR/2001/REC-SVG-20010904/DTD/svg10.dtd">
<svg version="1.0" xmlns="http://www.w3.org/2000/svg"
 width="643.000000pt" height="432.000000pt" viewBox="0 0 643.000000 432.000000"
 preserveAspectRatio="xMidYMid meet">

<g transform="translate(0.000000,432.000000) scale(0.100000,-0.100000)"
fill="#000000" stroke="none">
<path d="M288 4300 c18 -11 35 -20 37 -20 9 0 151 -93 210 -138 51 -39 196
-158 273 -223 27 -23 46 -25 38 -3 -3 8 -2 12 4 9 6 -3 10 1 10 9 0 9 6 16 13
16 6 0 3 6 -8 12 -11 6 -51 39 -90 73 -93 82 -182 151 -290 224 -88 60 -89 61
-159 61 l-71 0 33 -20z"/>
<path d="M1329 4251 c-57 -60 -69 -80 -91 -148 -14 -43 -29 -112 -33 -153 -4
-41 -10 -77 -14 -80 -4 -3 -15 -22 -25 -43 -35 -77 9 -173 90 -193 41 -10 99
13 134 53 31 35 32 39 27 101 -5 63 7 107 39 137 5 5 34 39 64 75 29 36 62 73
72 82 18 16 17 17 -8 37 -15 12 -30 21 -35 21 -12 0 -118 -120 -157 -178 -44
-66 -69 -67 -64 -3 8 97 72 222 134 262 43 27 125 21 194 -14 110 -56 301
-222 392 -342 25 -33 49 -62 52 -65 36 -32 70 -93 70 -126 1 -144 80 -234 204
-234 67 0 93 9 140 51 47 40 75 96 83 159 5 47 2 68 -34 199 l-15 54 -13 -37
c-18 -52 -52 -99 -92 -126 -47 -32 -126 -38 -173 -12 -47 25 -90 89 -97 141
-5 39 -19 56 -125 166 -120 124 -186 178 -300 248 l-62 37 -145 0 -145 0 -67
-69z"/>
<path d="M3320 4309 c0 -6 7 -9 15 -5 8 3 15 1 15 -3 0 -5 7 -12 16 -15 11 -4
15 -2 11 6 -3 9 5 13 23 13 17 0 26 -5 23 -12 -3 -8 3 -10 18 -6 15 4 20 3 15
-5 -5 -8 3 -12 23 -13 17 -1 34 -2 39 -3 4 -1 31 -6 59 -10 29 -4 55 -11 57
-14 2 -4 0 -31 -6 -61 -8 -49 -7 -56 11 -75 16 -16 21 -17 22 -6 0 8 3 26 5
40 3 14 6 35 7 48 1 12 5 22 8 22 3 0 5 12 4 27 -1 28 2 27 -157 66 -76 19
-208 23 -208 6z"/>
<path d="M3896 4107 c-12 -9 -26 -48 -41 -113 -41 -179 -175 -756 -216 -928
-22 -93 -38 -178 -35 -190 7 -27 36 -45 89 -55 55 -11 598 -136 704 -163 94
-23 135 -19 54 5 -65 20 -81 32 -81 63 0 29 -4 30 -30 4 -11 -11 -33 -20 -49
-20 -23 0 -326 67 -546 121 -95 23 -104 45 -71 182 14 56 43 181 65 277 166
710 178 760 197 781 14 16 28 20 61 17 56 -4 55 7 -1 21 -58 14 -78 14 -100
-2z"/>
<path d="M4226 4051 c-3 -4 11 -13 32 -19 70 -20 100 -23 107 -13 4 7 -3 11
-17 11 -13 0 -44 7 -70 15 -26 7 -50 10 -52 6z"/>
<path d="M4040 3990 c14 -4 34 -8 45 -8 16 0 15 2 -5 8 -14 4 -34 8 -45 8 -16
0 -15 -2 5 -8z"/>
<path d="M4110 3977 c8 -8 360 -89 371 -85 6 2 -66 21 -158 42 -200 46 -220
50 -213 43z"/>
<path d="M4534 3971 c3 -4 19 -11 36 -14 20 -5 34 -16 42 -34 17 -39 16 -39
38 -15 25 27 20 27 126 2 48 -11 92 -19 98 -16 16 6 -2 11 -167 51 -155 37
-182 41 -173 26z"/>
<path d="M4015 3911 c11 -5 40 -11 65 -14 l45 -7 -50 15 c-54 16 -94 19 -60 6z"/>
<path d="M5092 3882 l-19 -39 120 -29 c67 -16 129 -36 140 -44 21 -18 21 -18
-51 -330 -16 -69 -69 -294 -116 -500 -61 -261 -93 -381 -105 -394 -21 -21 4
-24 -284 43 -93 22 -172 42 -175 45 -3 4 4 26 16 51 20 42 24 44 54 40 l33 -5
-32 10 -32 10 16 35 c11 24 22 34 32 30 44 -13 154 -35 158 -32 2 3 -31 12
-74 22 -43 9 -82 21 -86 25 -8 7 4 43 36 110 7 13 23 27 37 31 16 4 19 7 8 8
-21 1 -23 30 -5 55 13 18 20 17 156 -14 78 -18 144 -31 146 -28 2 2 -59 18
-137 36 -78 18 -143 34 -146 37 -3 2 1 18 8 35 10 24 18 30 34 26 12 -2 39 -7
61 -10 32 -4 29 -2 -13 8 -30 8 -56 16 -58 19 -3 3 2 19 11 37 11 21 22 30 33
26 39 -10 149 -35 182 -40 34 -5 34 -5 5 4 -16 6 -66 18 -110 28 -79 19 -80
20 -77 48 2 16 6 32 10 36 4 4 43 -2 87 -13 44 -10 85 -17 90 -15 6 1 -28 12
-75 23 -80 18 -85 21 -82 44 1 13 5 31 8 39 3 8 7 30 9 48 1 18 4 35 7 37 3 3
27 1 53 -5 26 -6 49 -9 52 -7 4 5 -157 43 -217 52 -27 4 -30 3 -14 -4 12 -5
42 -13 68 -16 47 -7 58 -23 31 -45 -8 -7 -15 -28 -15 -47 0 -18 -9 -51 -20
-73 -23 -46 -25 -54 -7 -45 6 4 3 -2 -9 -12 -11 -10 -33 -52 -49 -93 -16 -41
-34 -78 -40 -82 -5 -4 -7 -8 -3 -8 10 0 -12 -60 -23 -60 -5 0 -9 -7 -9 -17 0
-9 -16 -49 -35 -90 -19 -41 -35 -79 -35 -84 0 -6 -6 -23 -14 -37 -7 -15 -26
-55 -42 -89 -15 -35 -31 -63 -34 -63 -4 0 -5 -11 -3 -24 3 -16 -2 -31 -16 -45
-12 -12 -21 -28 -21 -38 0 -15 1 -15 19 1 10 9 28 37 41 61 13 25 27 45 31 45
5 0 75 -16 156 -36 131 -31 234 -55 299 -69 52 -12 61 11 140 350 40 176 90
388 110 470 90 379 96 415 79 441 -9 14 -34 29 -63 37 -44 13 -47 16 -44 44 4
37 -9 48 -76 62 -82 17 -90 15 -110 -27z"/>
<path d="M4550 3891 c0 -6 4 -13 10 -16 6 -3 7 1 4 9 -7 18 -14 21 -14 7z"/>
<path d="M3589 3873 c-13 -16 -12 -17 4 -4 16 13 21 21 13 21 -2 0 -10 -8 -17
-17z"/>
<path d="M4145 3881 c11 -5 40 -11 65 -15 30 -4 36 -3 20 3 -37 12 -109 22
-85 12z"/>
<path d="M4275 3851 c11 -4 38 -11 60 -14 25 -4 33 -4 20 2 -11 4 -38 11 -60
14 -25 4 -33 4 -20 -2z"/>
<path d="M4616 3845 c-3 -8 -1 -15 4 -15 6 0 10 7 10 15 0 8 -2 15 -4 15 -2 0
-6 -7 -10 -15z"/>
<path d="M4690 3850 c-9 -6 -10 -10 -3 -10 6 0 15 5 18 10 8 12 4 12 -15 0z"/>
<path d="M4540 3835 c0 -8 2 -15 4 -15 2 0 6 7 10 15 3 8 1 15 -4 15 -6 0 -10
-7 -10 -15z"/>
<path d="M3978 3833 c7 -3 16 -2 19 1 4 3 -2 6 -13 5 -11 0 -14 -3 -6 -6z"/>
<path d="M4030 3821 c37 -12 109 -22 85 -12 -11 5 -40 11 -65 15 -30 4 -36 3
-20 -3z"/>
<path d="M4400 3820 c14 -4 34 -8 45 -8 16 0 15 2 -5 8 -14 4 -34 8 -45 8 -16
0 -15 -2 5 -8z"/>
<path d="M4762 3824 c8 -7 208 -54 228 -53 8 1 -28 11 -80 24 -124 30 -155 36
-148 29z"/>
<path d="M4680 3804 c0 -8 5 -12 10 -9 6 4 8 11 5 16 -9 14 -15 11 -15 -7z"/>
<path d="M4160 3790 c14 -4 34 -8 45 -8 16 0 15 2 -5 8 -14 4 -34 8 -45 8 -16
0 -15 -2 5 -8z"/>
<path d="M4600 3790 c0 -5 5 -10 10 -10 6 0 10 5 10 10 0 6 -4 10 -10 10 -5 0
-10 -4 -10 -10z"/>
<path d="M4238 3773 c7 -3 16 -2 19 1 4 3 -2 6 -13 5 -11 0 -14 -3 -6 -6z"/>
<path d="M4315 3754 c28 -7 57 -13 65 -13 8 0 -7 7 -35 15 -27 7 -57 13 -65
13 -8 0 8 -7 35 -15z"/>
<path d="M5025 3761 c11 -5 40 -11 65 -15 30 -4 36 -3 20 3 -37 12 -109 22
-85 12z"/>
<path d="M3965 3750 c11 -5 29 -9 40 -9 l20 0 -20 9 c-11 5 -29 9 -40 9 l-20
0 20 -9z"/>
<path d="M4742 3745 c4 -4 33 -14 65 -21 168 -40 285 -65 289 -62 2 3 -31 12
-74 22 -172 40 -248 57 -267 63 -11 3 -17 2 -13 -2z"/>
<path d="M4035 3734 c29 -11 399 -93 403 -89 3 3 3 5 0 5 -3 0 -92 20 -198 45
-169 40 -238 53 -205 39z"/>
<path d="M4400 3736 c0 -2 11 -6 25 -8 13 -3 22 -1 19 3 -5 9 -44 13 -44 5z"/>
<path d="M4510 3730 c0 -5 5 -10 10 -10 6 0 10 5 10 10 0 6 -4 10 -10 10 -5 0
-10 -4 -10 -10z"/>
<path d="M5155 3732 c29 -13 93 -24 75 -13 -8 5 -33 12 -55 15 -27 4 -33 3
-20 -2z"/>
<path d="M4581 3684 c0 -11 3 -14 6 -6 3 7 2 16 -1 19 -3 4 -6 -2 -5 -13z"/>
<path d="M4500 3681 c0 -6 4 -12 8 -15 5 -3 9 1 9 9 0 8 -4 15 -9 15 -4 0 -8
-4 -8 -9z"/>
<path d="M3930 3677 c0 -7 180 -50 186 -44 3 2 -28 12 -68 21 -40 9 -83 19
-95 22 -13 4 -23 4 -23 1z"/>
<path d="M4644 3652 c3 -5 0 -13 -6 -15 -9 -4 -10 -6 -1 -6 17 -1 25 16 12 25
-7 4 -9 3 -5 -4z"/>
<path d="M4741 3656 c3 -3 36 -12 75 -20 38 -9 136 -31 219 -51 82 -19 156
-35 165 -34 15 0 -86 26 -285 72 -149 34 -181 40 -174 33z"/>
<path d="M5125 3651 c30 -12 103 -23 85 -13 -8 5 -35 12 -60 15 -27 4 -37 3
-25 -2z"/>
<path d="M811 3620 c-2 -101 59 -239 144 -325 156 -157 402 -190 591 -80 134
78 247 255 243 380 -1 26 -3 24 -16 -18 -47 -155 -182 -285 -342 -329 -252
-70 -523 79 -596 327 -9 33 -19 65 -20 70 -2 6 -4 -6 -4 -25z"/>
<path d="M4566 3635 c-3 -8 -1 -15 4 -15 6 0 10 7 10 15 0 8 -2 15 -4 15 -2 0
-6 -7 -10 -15z"/>
<path d="M4490 3625 c0 -8 2 -15 4 -15 2 0 6 7 10 15 3 8 1 15 -4 15 -6 0 -10
-7 -10 -15z"/>
<path d="M4240 3600 c63 -16 122 -29 130 -29 22 1 -157 47 -205 53 -22 3 12
-8 75 -24z"/>
<path d="M4631 3594 c0 -11 3 -14 6 -6 3 7 2 16 -1 19 -3 4 -6 -2 -5 -13z"/>
<path d="M3912 3595 c7 -7 205 -55 221 -54 7 0 -26 11 -73 23 -104 27 -155 38
-148 31z"/>
<path d="M4550 3580 c0 -5 5 -10 10 -10 6 0 10 5 10 10 0 6 -4 10 -10 10 -5 0
-10 -4 -10 -10z"/>
<path d="M4480 3571 c0 -6 4 -13 10 -16 6 -3 7 1 4 9 -7 18 -14 21 -14 7z"/>
<path d="M4715 3574 c20 -8 411 -97 440 -100 l30 -3 -30 8 c-135 38 -486 114
-440 95z"/>
<path d="M4398 3563 c7 -3 16 -2 19 1 4 3 -2 6 -13 5 -11 0 -14 -3 -6 -6z"/>
<path d="M4616 3533 c-6 -14 -5 -15 5 -6 7 7 10 15 7 18 -3 3 -9 -2 -12 -12z"/>
<path d="M4151 3536 c6 -6 225 -56 241 -55 7 1 -39 14 -102 30 -109 27 -149
34 -139 25z"/>
<path d="M4540 3530 c0 -5 5 -10 10 -10 6 0 10 5 10 10 0 6 -4 10 -10 10 -5 0
-10 -4 -10 -10z"/>
<path d="M4471 3514 c0 -11 3 -14 6 -6 3 7 2 16 -1 19 -3 4 -6 -2 -5 -13z"/>
<path d="M3900 3511 c18 -12 119 -35 127 -28 2 3 -22 11 -53 17 -32 7 -65 14
-74 17 -13 4 -13 4 0 -6z"/>
<path d="M4606 3483 c-6 -14 -5 -15 5 -6 7 7 10 15 7 18 -3 3 -9 -2 -12 -12z"/>
<path d="M4681 3496 c2 -2 22 -6 44 -9 28 -5 34 -4 20 3 -19 8 -73 14 -64 6z"/>
<path d="M4531 3474 c0 -11 3 -14 6 -6 3 7 2 16 -1 19 -3 4 -6 -2 -5 -13z"/>
<path d="M4055 3471 c11 -5 40 -11 65 -14 l45 -7 -50 15 c-54 16 -94 19 -60 6z"/>
<path d="M4460 3465 c0 -8 2 -15 4 -15 2 0 6 7 10 15 3 8 1 15 -4 15 -6 0 -10
-7 -10 -15z"/>
<path d="M4170 3447 c0 -7 150 -40 156 -34 2 2 -22 9 -53 16 -32 7 -68 15 -80
18 -13 3 -23 3 -23 0z"/>
<path d="M4586 3435 c-3 -8 -1 -15 4 -15 6 0 10 7 10 15 0 8 -2 15 -4 15 -2 0
-6 -7 -10 -15z"/>
<path d="M3878 3428 c5 -5 16 -8 23 -6 8 3 3 7 -10 11 -17 4 -21 3 -13 -5z"/>
<path d="M4521 3424 c0 -11 3 -14 6 -6 3 7 2 16 -1 19 -3 4 -6 -2 -5 -13z"/>
<path d="M4860 3425 c0 -8 2 -15 4 -15 2 0 6 7 10 15 3 8 1 15 -4 15 -6 0 -10
-7 -10 -15z"/>
<path d="M4445 3420 c-3 -5 -1 -10 4 -10 6 0 11 5 11 10 0 6 -2 10 -4 10 -3 0
-8 -4 -11 -10z"/>
<path d="M3940 3411 c37 -12 109 -22 85 -12 -11 5 -40 11 -65 15 -30 4 -36 3
-20 -3z"/>
<path d="M4705 3405 c22 -8 49 -13 60 -13 11 0 -2 6 -30 14 -63 17 -84 16 -30
-1z"/>
<path d="M5038 3413 c7 -3 16 -2 19 1 4 3 -2 6 -13 5 -11 0 -14 -3 -6 -6z"/>
<path d="M4348 3403 c6 -2 18 -2 25 0 6 3 1 5 -13 5 -14 0 -19 -2 -12 -5z"/>
<path d="M5110 3397 c25 -7 47 -12 49 -10 9 7 -7 12 -49 18 l-45 5 45 -13z"/>
<path d="M4581 3384 c0 -11 3 -14 6 -6 3 7 2 16 -1 19 -3 4 -6 -2 -5 -13z"/>
<path d="M4070 3381 c37 -12 109 -22 85 -12 -11 5 -40 11 -65 15 -30 4 -36 3
-20 -3z"/>
<path d="M4798 3383 c7 -3 16 -2 19 1 4 3 -2 6 -13 5 -11 0 -14 -3 -6 -6z"/>
<path d="M4505 3370 c-3 -5 -1 -10 4 -10 6 0 11 5 11 10 0 6 -2 10 -4 10 -3 0
-8 -4 -11 -10z"/>
<path d="M4430 3361 c0 -6 4 -12 8 -15 5 -3 9 1 9 9 0 8 -4 15 -9 15 -4 0 -8
-4 -8 -9z"/>
<path d="M4200 3351 c37 -12 109 -22 85 -12 -11 5 -40 11 -65 15 -30 4 -36 3
-20 -3z"/>
<path d="M4965 3344 c28 -7 57 -13 65 -13 8 0 -7 7 -35 15 -27 7 -57 13 -65
13 -8 0 8 -7 35 -15z"/>
<path d="M3945 3324 c55 -13 104 -22 110 -21 11 4 -173 48 -195 46 -8 0 30
-11 85 -25z"/>
<path d="M4564 3330 c0 -13 4 -16 10 -10 7 7 7 13 0 20 -6 6 -10 3 -10 -10z"/>
<path d="M4675 3325 c22 -7 51 -13 65 -13 l25 0 -25 7 c-14 4 -43 11 -65 14
l-40 6 40 -14z"/>
<path d="M4320 3326 c0 -2 9 -6 20 -9 11 -3 18 -1 14 4 -5 9 -34 13 -34 5z"/>
<path d="M4490 3320 c0 -5 5 -10 10 -10 6 0 10 5 10 10 0 6 -4 10 -10 10 -5 0
-10 -4 -10 -10z"/>
<path d="M5095 3315 c27 -8 51 -12 53 -10 5 5 -69 25 -88 24 -8 0 7 -7 35 -14z"/>
<path d="M4420 3309 c0 -5 5 -7 10 -4 6 3 10 8 10 11 0 2 -4 4 -10 4 -5 0 -10
-5 -10 -11z"/>
<path d="M4115 3285 c146 -37 216 -52 208 -45 -9 9 -225 61 -245 59 -7 -1 10
-7 37 -14z"/>
<path d="M4553 3275 c0 -8 4 -12 9 -9 5 3 6 10 3 15 -9 13 -12 11 -12 -6z"/>
<path d="M4481 3264 c0 -11 3 -14 6 -6 3 7 2 16 -1 19 -3 4 -6 -2 -5 -13z"/>
<path d="M3855 3261 c11 -4 38 -11 60 -14 25 -4 33 -4 20 2 -11 4 -38 11 -60
14 -25 4 -33 4 -20 -2z"/>
<path d="M4415 3259 c-4 -6 -5 -12 -2 -15 2 -3 7 2 10 11 7 17 1 20 -8 4z"/>
<path d="M4640 3250 c8 -5 22 -9 30 -9 10 0 8 3 -5 9 -27 12 -43 12 -25 0z"/>
<path d="M4110 3200 c178 -44 225 -54 195 -40 -23 11 -323 80 -339 79 -6 -1
59 -18 144 -39z"/>
<path d="M4541 3224 c0 -11 3 -14 6 -6 3 7 2 16 -1 19 -3 4 -6 -2 -5 -13z"/>
<path d="M4690 3236 c0 -2 11 -6 25 -8 13 -3 22 -1 19 3 -5 9 -44 13 -44 5z"/>
<path d="M5080 3230 c34 -11 60 -11 35 0 -11 5 -29 8 -40 8 -16 0 -15 -2 5 -8z"/>
<path d="M4471 3214 c0 -11 3 -14 6 -6 3 7 2 16 -1 19 -3 4 -6 -2 -5 -13z"/>
<path d="M3825 3181 c11 -5 40 -11 65 -15 30 -4 36 -3 20 3 -37 12 -109 22
-85 12z"/>
<path d="M4455 3160 c-3 -5 -1 -10 4 -10 6 0 11 5 11 10 0 6 -2 10 -4 10 -3 0
-8 -4 -11 -10z"/>
<path d="M4640 3160 c14 -4 36 -8 50 -8 22 0 22 1 -5 8 -16 4 -39 8 -50 8 -16
0 -15 -2 5 -8z"/>
<path d="M3940 3157 c7 -6 218 -57 233 -56 14 1 -144 43 -201 54 -20 4 -35 5
-32 2z"/>
<path d="M4385 3151 c-3 -5 -2 -12 3 -15 5 -3 9 1 9 9 0 17 -3 19 -12 6z"/>
<path d="M3136 3142 c-9 -14 -66 -182 -66 -194 0 -4 7 -5 15 -2 8 4 15 1 15
-5 0 -6 3 -10 8 -10 26 4 62 -3 57 -11 -3 -5 2 -11 12 -11 24 -2 25 -2 48 6
16 5 17 5 5 -3 -12 -9 -10 -13 12 -21 60 -23 61 -22 90 68 15 46 29 90 30 98
2 9 -21 22 -72 39 -41 13 -85 29 -97 35 -11 6 -26 9 -31 5 -6 -3 -12 -1 -14 6
-3 9 -6 9 -12 0z m62 -94 c-5 -38 -4 -40 5 -15 13 31 16 32 43 11 10 -8 13
-13 7 -9 -9 4 -15 -8 -20 -37 -4 -24 -7 -45 -6 -48 1 -3 -7 -6 -17 -6 -10 0
-18 3 -18 6 0 3 -1 16 -2 30 l-2 25 -10 -27 c-11 -30 -32 -37 -42 -13 -8 22
34 125 52 125 11 0 14 -9 10 -42z"/>
<path d="M5088 3143 c7 -3 16 -2 19 1 4 3 -2 6 -13 5 -11 0 -14 -3 -6 -6z"/>
<path d="M4516 3113 c-6 -14 -5 -15 5 -6 7 7 10 15 7 18 -3 3 -9 -2 -12 -12z"/>
<path d="M4440 3104 c0 -8 5 -12 10 -9 6 3 10 10 10 16 0 5 -4 9 -10 9 -5 0
-10 -7 -10 -16z"/>
<path d="M3829 3094 c25 -8 61 -16 80 -19 20 -3 5 4 -34 15 -79 22 -113 25
-46 4z"/>
<path d="M4235 3084 c28 -7 55 -13 60 -13 17 2 -69 27 -90 27 -11 0 3 -6 30
-14z"/>
<path d="M4945 3091 c11 -5 40 -11 65 -15 30 -4 36 -3 20 3 -37 12 -109 22
-85 12z"/>
<path d="M4620 3080 c34 -11 60 -11 35 0 -11 5 -29 8 -40 8 -16 0 -15 -2 5 -8z"/>
<path d="M4496 3065 c-3 -8 -1 -15 4 -15 6 0 10 7 10 15 0 8 -2 15 -4 15 -2 0
-6 -7 -10 -15z"/>
<path d="M3958 3063 c7 -3 16 -2 19 1 4 3 -2 6 -13 5 -11 0 -14 -3 -6 -6z"/>
<path d="M4430 3054 c0 -8 5 -12 10 -9 6 4 8 11 5 16 -9 14 -15 11 -15 -7z"/>
<path d="M5068 3063 c7 -3 16 -2 19 1 4 3 -2 6 -13 5 -11 0 -14 -3 -6 -6z"/>
<path d="M4080 3035 c52 -14 102 -24 110 -24 21 1 -116 37 -165 43 -22 3 3 -6
55 -19z"/>
<path d="M4364 3049 c-3 -6 -2 -15 3 -20 5 -5 9 -1 9 11 0 23 -2 24 -12 9z"/>
<path d="M3780 3022 c18 -12 170 -45 176 -39 2 2 -28 11 -68 20 -40 9 -84 19
-98 23 -18 4 -21 3 -10 -4z"/>
<path d="M4491 3014 c0 -11 3 -14 6 -6 3 7 2 16 -1 19 -3 4 -6 -2 -5 -13z"/>
<path d="M4225 3000 c11 -5 29 -8 40 -8 16 0 15 2 -5 8 -34 11 -60 11 -35 0z"/>
<path d="M4420 2999 c0 -5 5 -7 10 -4 6 3 10 8 10 11 0 2 -4 4 -10 4 -5 0 -10
-5 -10 -11z"/>
<path d="M4590 3000 c34 -11 60 -11 35 0 -11 5 -29 8 -40 8 -16 0 -15 -2 5 -8z"/>
<path d="M3985 2971 c11 -4 38 -11 60 -14 25 -4 33 -4 20 2 -11 4 -38 11 -60
14 -25 4 -33 4 -20 -2z"/>
<path d="M4476 2953 c-6 -14 -5 -15 5 -6 7 7 10 15 7 18 -3 3 -9 -2 -12 -12z"/>
<path d="M4411 2944 c0 -11 3 -14 6 -6 3 7 2 16 -1 19 -3 4 -6 -2 -5 -13z"/>
<path d="M4798 2953 c7 -3 16 -2 19 1 4 3 -2 6 -13 5 -11 0 -14 -3 -6 -6z"/>
<path d="M3756 2940 c5 -4 29 -11 54 -14 53 -7 44 -1 -19 13 -24 5 -39 6 -35
1z"/>
<path d="M4110 2941 c37 -12 109 -22 85 -12 -11 5 -40 11 -65 15 -30 4 -36 3
-20 -3z"/>
<path d="M4340 2935 c0 -8 2 -15 4 -15 2 0 6 7 10 15 3 8 1 15 -4 15 -6 0 -10
-7 -10 -15z"/>
<path d="M4830 2947 c0 -3 21 -10 48 -16 26 -5 76 -17 111 -25 35 -8 60 -11
55 -7 -13 12 -214 57 -214 48z"/>
<path d="M4550 2926 c0 -2 9 -6 20 -9 11 -3 18 -1 14 4 -5 9 -34 13 -34 5z"/>
<path d="M3875 2911 c11 -4 38 -11 60 -14 25 -4 33 -4 20 2 -11 4 -38 11 -60
14 -25 4 -33 4 -20 -2z"/>
<path d="M4228 2913 c6 -2 18 -2 25 0 6 3 1 5 -13 5 -14 0 -19 -2 -12 -5z"/>
<path d="M4466 2903 c-6 -14 -5 -15 5 -6 7 7 10 15 7 18 -3 3 -9 -2 -12 -12z"/>
<path d="M4390 2895 c0 -8 5 -15 10 -15 6 0 10 7 10 15 0 8 -4 15 -10 15 -5 0
-10 -7 -10 -15z"/>
<path d="M4325 2891 c-3 -5 -1 -12 5 -16 5 -3 10 1 10 9 0 18 -6 21 -15 7z"/>
<path d="M975 2880 c-3 -5 -1 -10 4 -10 6 0 11 5 11 10 0 6 -2 10 -4 10 -3 0
-8 -4 -11 -10z"/>
<path d="M4000 2881 c37 -12 109 -22 85 -12 -11 5 -40 11 -65 15 -30 4 -36 3
-20 -3z"/>
<path d="M4735 2881 c11 -5 38 -11 60 -14 l40 -6 -40 14 c-22 7 -49 14 -60 14
l-20 0 20 -8z"/>
<path d="M4446 2855 c-3 -8 -1 -15 4 -15 6 0 10 7 10 15 0 8 -2 15 -4 15 -2 0
-6 -7 -10 -15z"/>
<path d="M1021 2846 c-7 -9 -24 -16 -37 -16 -28 0 -28 -2 -9 -66 l14 -49 -31
-32 -31 -32 24 -38 c13 -21 40 -59 60 -85 39 -50 58 -103 42 -119 -15 -15 -70
10 -89 39 -31 48 -78 100 -86 96 -5 -3 -8 -16 -8 -29 0 -18 7 -26 24 -31 18
-4 25 -14 29 -43 11 -82 66 -157 142 -192 53 -25 147 -25 200 0 51 23 111 84
127 128 10 26 18 33 39 33 22 0 27 5 31 30 3 17 2 33 -2 35 -3 2 -30 -21 -60
-52 -77 -79 -130 -96 -130 -43 0 23 17 49 73 111 39 45 76 87 81 94 11 15 -7
65 -23 65 -5 0 -33 -38 -63 -85 -39 -63 -62 -89 -88 -101 -19 -8 -45 -20 -57
-26 -26 -13 -28 -12 -38 20 -6 21 -5 22 14 11 36 -23 64 3 85 79 10 37 32 92
48 122 16 30 24 56 19 58 -5 2 -7 12 -4 22 4 17 0 20 -25 20 -18 0 -35 7 -40
16 -11 19 -27 -16 -62 -141 -13 -44 -25 -82 -27 -85 -10 -12 -23 31 -23 80 0
30 -3 72 -6 92 -6 35 -9 38 -37 35 -27 -2 -31 2 -46 47 -15 42 -18 46 -30 32z
m109 -313 c0 -10 -4 -24 -9 -32 -7 -11 -14 -10 -38 9 -23 19 -24 21 -6 16 14
-4 26 -1 35 8 17 20 18 19 18 -1z"/>
<path d="M4125 2853 c11 -3 41 -11 67 -18 26 -6 45 -8 43 -4 -5 8 -98 30 -118
28 -7 -1 -3 -4 8 -6z"/>
<path d="M4380 2846 c0 -9 5 -16 10 -16 6 0 10 4 10 9 0 6 -4 13 -10 16 -5 3
-10 -1 -10 -9z"/>
<path d="M4860 2851 c37 -12 109 -22 85 -12 -11 5 -40 11 -65 15 -30 4 -36 3
-20 -3z"/>
<path d="M4538 2843 c7 -3 16 -2 19 1 4 3 -2 6 -13 5 -11 0 -14 -3 -6 -6z"/>
<path d="M4315 2831 c-3 -5 -2 -12 3 -15 5 -3 9 1 9 9 0 17 -3 19 -12 6z"/>
<path d="M4995 2820 c11 -5 27 -9 35 -9 9 0 8 4 -5 9 -11 5 -27 9 -35 9 -9 0
-8 -4 5 -9z"/>
<path d="M4441 2804 c0 -11 3 -14 6 -6 3 7 2 16 -1 19 -3 4 -6 -2 -5 -13z"/>
<path d="M4370 2789 c0 -5 5 -7 10 -4 6 3 10 8 10 11 0 2 -4 4 -10 4 -5 0 -10
-5 -10 -11z"/>
<path d="M4300 2781 c0 -6 4 -12 8 -15 5 -3 9 1 9 9 0 8 -4 15 -9 15 -4 0 -8
-4 -8 -9z"/>
<path d="M4527 2759 c7 -7 15 -10 18 -7 3 3 -2 9 -12 12 -14 6 -15 5 -6 -5z"/>
<path d="M4925 2750 c39 -10 77 -19 85 -19 24 0 -69 27 -114 33 -26 4 -16 -1
29 -14z"/>
<path d="M4422 2744 c-7 -8 -8 -14 -3 -14 10 0 25 19 20 25 -2 1 -10 -3 -17
-11z"/>
<path d="M4718 2713 c7 -3 16 -2 19 1 4 3 -2 6 -13 5 -11 0 -14 -3 -6 -6z"/>
<path d="M4770 2700 c14 -4 34 -8 45 -8 16 0 15 2 -5 8 -14 4 -34 8 -45 8 -16
0 -15 -2 5 -8z"/>
<path d="M4848 2683 c7 -3 16 -2 19 1 4 3 -2 6 -13 5 -11 0 -14 -3 -6 -6z"/>
<path d="M4900 2671 c37 -12 109 -22 85 -12 -11 5 -40 11 -65 15 -30 4 -36 3
-20 -3z"/>
<path d="M1500 2610 c0 -5 7 -10 15 -10 8 0 15 5 15 10 0 6 -7 10 -15 10 -8 0
-15 -4 -15 -10z"/>
<path d="M871 2368 c-1 -15 3 -29 9 -33 5 -3 6 -13 3 -22 -5 -12 -3 -14 7 -8
8 5 11 3 8 -6 -10 -26 52 -119 79 -119 7 0 12 -5 10 -11 -1 -6 21 -23 48 -37
42 -23 62 -27 130 -27 70 0 87 4 134 30 84 46 146 130 158 213 5 37 5 37 -21
-14 -41 -80 -137 -154 -201 -154 -14 0 -25 -4 -25 -8 0 -5 -21 -6 -47 -2 -27
3 -67 5 -90 5 -23 0 -40 2 -37 6 2 4 -11 18 -30 32 -26 20 -36 23 -45 14 -10
-9 -11 -8 -5 7 6 15 4 17 -7 11 -8 -4 -11 -5 -7 0 5 5 -4 23 -18 42 -14 18
-31 50 -39 71 -12 34 -14 35 -14 10z m514 -138 c3 -5 1 -10 -4 -10 -6 0 -11 5
-11 10 0 6 2 10 4 10 3 0 8 -4 11 -10z m-35 -29 c0 -13 -29 -35 -37 -28 -7 8
15 37 28 37 5 0 9 -4 9 -9z m-260 -51 c13 -8 13 -10 -2 -10 -9 0 -20 5 -23 10
-8 13 5 13 25 0z m136 -6 c19 -5 22 -9 12 -15 -18 -12 -31 -11 -23 1 4 6 -13
10 -44 10 -27 0 -53 5 -56 11 -7 10 56 7 111 -7z m59 -4 c-3 -5 -12 -10 -18
-10 -7 0 -6 4 3 10 19 12 23 12 15 0z"/>
<path d="M3137 2233 c150 -2 396 -2 545 0 150 1 28 2 -272 2 -300 0 -422 -1
-273 -2z"/>
<path d="M4762 2203 c-11 -4 -132 -232 -132 -248 0 -3 10 0 23 6 l22 12 -20
-20 c-11 -11 -22 -19 -24 -17 -7 7 -54 -80 -53 -98 0 -10 -3 -18 -8 -18 -5 0
-16 -13 -25 -30 -9 -16 -12 -30 -9 -30 4 0 0 -8 -9 -17 -14 -17 -87 -150 -87
-160 0 -3 7 -3 15 1 8 3 15 3 15 0 0 -2 -12 -9 -26 -14 -20 -8 -25 -16 -22
-36 2 -21 15 -33 58 -55 115 -58 295 -140 313 -142 14 -2 42 44 133 222 63
123 114 233 114 245 0 11 16 41 35 65 39 49 44 66 16 58 -15 -3 -18 -1 -14 12
3 9 -6 -2 -20 -24 -13 -22 -30 -58 -37 -80 -7 -22 -20 -45 -29 -51 -9 -7 -47
-75 -86 -153 -38 -78 -73 -141 -78 -141 -5 0 -66 27 -136 61 -69 33 -134 58
-144 55 -9 -2 -15 0 -11 5 3 5 1 9 -5 9 -5 0 -15 -8 -20 -17 -9 -15 -12 -16
-20 -4 -5 7 -14 11 -20 7 -7 -5 -9 -1 -5 9 4 9 9 14 11 11 10 -10 46 32 72 85
26 55 30 86 9 73 -7 -4 -8 -2 -4 4 4 6 13 9 21 5 8 -3 15 0 15 6 0 22 2 26 15
41 16 17 70 114 123 218 20 39 39 72 42 72 4 0 64 -24 133 -54 70 -30 127 -50
127 -46 0 5 -6 10 -12 13 -7 2 -1 8 14 12 21 5 25 10 15 19 -11 10 -264 137
-270 135 -1 0 -8 -3 -15 -6z m238 -113 c11 -7 7 -9 -17 -7 -17 1 -29 5 -26 10
6 10 25 9 43 -3z m-376 -200 c-10 -16 -20 -27 -22 -25 -5 5 26 55 34 55 3 0
-3 -13 -12 -30z m426 -40 c0 -5 -5 -10 -11 -10 -5 0 -7 5 -4 10 3 6 8 10 11
10 2 0 4 -4 4 -10z m-492 -99 c-7 -9 -13 -18 -15 -20 -1 -2 -1 5 0 16 0 11 7
20 14 20 10 0 10 -4 1 -16z m-23 -31 c3 -5 1 -10 -4 -10 -6 0 -11 5 -11 10 0
6 2 10 4 10 3 0 8 -4 11 -10z m135 -205 c6 -8 9 -19 5 -25 -14 -23 -62 -2 -52
24 8 20 31 21 47 1z"/>
<path d="M2870 2178 c0 -5 237 -8 527 -8 289 0 524 2 521 5 -8 9 -1048 11
-1048 3z"/>
<path d="M2115 2131 c-3 -7 0 -8 9 -5 9 3 16 1 16 -5 0 -6 -7 -11 -15 -11 -8
0 -15 -4 -15 -8 0 -4 8 -8 19 -8 12 0 18 7 17 20 -1 22 -21 33 -31 17z"/>
<path d="M2423 2114 c0 -17 2 -22 7 -13 5 6 6 18 3 26 -8 19 -10 16 -10 -13z"/>
<path d="M2531 2118 c-1 -9 -9 -22 -18 -27 -10 -6 -13 -11 -7 -11 17 0 37 27
31 42 -4 8 -6 7 -6 -4z"/>
<path d="M3128 2123 c145 -2 379 -2 520 0 141 1 23 2 -263 2 -286 0 -402 -1
-257 -2z"/>
<path d="M2165 2109 c-3 -3 3 -13 12 -20 12 -10 14 -10 9 -1 -4 6 -2 12 3 12
6 0 11 4 11 8 0 11 -29 11 -35 1z"/>
<path d="M2218 2108 c10 -13 10 -17 0 -21 -9 -4 -9 -6 -1 -6 20 -2 24 16 5 30
-15 13 -16 12 -4 -3z"/>
<path d="M2252 2101 c2 -8 9 -16 16 -17 7 -1 8 0 2 3 -7 3 -5 9 5 17 15 10 14
12 -5 12 -13 0 -20 -6 -18 -15z"/>
<path d="M2320 2106 c0 -9 -4 -14 -10 -11 -5 3 -10 1 -10 -4 0 -6 5 -11 10
-11 13 0 25 28 16 37 -3 4 -6 -1 -6 -11z"/>
<path d="M2351 2104 c0 -11 3 -14 6 -6 3 7 2 16 -1 19 -3 4 -6 -2 -5 -13z"/>
<path d="M2383 2106 c1 -11 9 -21 17 -23 10 -3 11 -2 4 4 -6 4 -14 15 -17 23
-5 11 -6 9 -4 -4z"/>
<path d="M2452 2100 c0 -14 2 -19 5 -12 2 6 2 18 0 25 -3 6 -5 1 -5 -13z"/>
<path d="M2552 2101 c2 -8 10 -16 18 -18 13 -4 13 -3 0 6 -13 9 -13 11 3 11 9
0 17 4 17 8 0 4 -9 8 -20 8 -13 0 -20 -6 -18 -15z"/>
<path d="M2608 2108 c10 -13 10 -17 0 -21 -9 -4 -9 -6 -1 -6 20 -2 24 16 5 30
-15 13 -16 12 -4 -3z"/>
<path d="M2642 2100 c0 -14 2 -19 5 -12 2 6 2 18 0 25 -3 6 -5 1 -5 -13z"/>
<path d="M2660 2081 c0 -6 5 -13 12 -17 7 -5 8 -3 3 6 -6 10 -4 12 9 7 10 -4
15 -3 11 3 -8 13 -35 13 -35 1z"/>
<path d="M3118 2083 c145 -2 379 -2 520 0 141 1 23 2 -263 2 -286 0 -402 -1
-257 -2z"/>
<path d="M5083 2046 c13 -10 15 -15 5 -18 -7 -3 -18 2 -24 10 -6 8 -16 13 -23
11 -20 -7 20 -49 49 -53 14 -1 31 -6 38 -10 7 -4 12 -2 12 4 0 6 -10 15 -22
21 -22 9 -21 9 5 6 35 -5 34 -1 -5 23 -37 22 -63 27 -35 6z"/>
<path d="M3113 2033 c142 -2 372 -2 510 0 139 1 23 2 -258 2 -280 0 -394 -1
-252 -2z"/>
<path d="M3108 1993 c139 -2 364 -2 500 0 136 1 22 2 -253 2 -275 0 -386 -1
-247 -2z"/>
<path d="M5098 1978 c-13 -9 -15 -17 -8 -28 12 -19 34 0 28 24 -2 14 -6 15
-20 4z"/>
<path d="M1150 1901 c20 -12 346 -91 368 -90 16 1 -351 98 -373 98 -5 0 -3 -3
5 -8z"/>
<path d="M1135 1840 c33 -15 355 -92 368 -87 11 3 -358 98 -378 96 -5 0 -1 -4
10 -9z"/>
<path d="M2125 1780 c-17 -18 -19 -49 -23 -349 -5 -325 -4 -329 17 -350 28
-28 55 -27 69 4 16 34 15 35 -8 35 -16 0 -20 7 -20 36 0 34 1 36 30 32 19 -3
31 0 35 10 9 25 5 29 -20 24 -15 -2 -25 0 -25 7 0 7 -4 9 -10 6 -6 -4 -10 8
-10 29 l0 35 56 3 c43 2 60 8 70 23 13 19 11 20 -56 17 l-70 -4 0 41 0 41 149
0 c83 0 152 -4 155 -9 6 -9 76 18 76 30 0 4 -12 9 -27 11 -23 2 -29 8 -31 35
-3 27 1 33 21 38 13 4 39 5 58 3 32 -3 34 -6 37 -42 4 -51 35 -78 74 -64 31
11 39 31 11 26 -28 -4 -43 11 -43 42 0 34 21 43 80 37 29 -4 36 -9 38 -31 4
-29 -14 -59 -29 -50 -5 3 -9 1 -9 -4 0 -5 9 -12 20 -15 11 -3 24 -17 30 -31
11 -31 30 -34 37 -6 5 18 12 21 57 18 l51 -3 0 -35 c0 -33 -2 -35 -35 -36 -19
0 -34 -3 -32 -7 1 -4 2 -11 2 -17 0 -5 16 -10 36 -10 35 0 35 -1 32 -37 -3
-37 -4 -38 -45 -41 -23 -2 -51 1 -61 7 -16 9 -30 0 -89 -62 -78 -80 -103 -117
-80 -117 14 0 53 49 50 62 -2 3 13 23 31 43 l34 36 273 -6 c176 -4 279 -11
287 -18 8 -6 4 6 -8 26 -13 22 -20 48 -18 69 2 28 7 34 31 36 38 5 36 32 -4
32 -29 0 -30 2 -27 38 l3 37 53 3 c32 2 52 -1 52 -8 0 -6 10 -14 23 -19 17 -6
24 -4 29 9 5 13 19 18 58 19 29 0 61 -4 72 -10 12 -7 23 -7 31 -1 18 15 97 13
129 -4 25 -13 29 -13 34 0 12 30 -2 38 -71 40 -39 1 -76 5 -82 9 -19 12 -16
55 5 66 14 7 144 8 250 2 8 -1 12 -23 12 -74 0 -45 -5 -78 -12 -86 -11 -11
-10 -12 1 -6 9 5 12 3 9 -6 -3 -8 -12 -13 -22 -11 -21 4 -21 -13 2 -30 9 -7
28 -38 42 -68 13 -30 28 -59 32 -65 4 -5 8 123 8 283 0 292 0 293 -23 316
l-23 23 -589 6 c-323 4 -720 7 -880 7 -280 0 -293 -1 -310 -20z m153 -82 l3
-38 -60 0 -61 0 0 40 0 41 58 -3 57 -3 3 -37z m157 2 l0 -35 -55 0 -55 0 -3
38 -3 38 58 -3 58 -3 0 -35z m160 0 l0 -35 -51 -3 c-48 -3 -52 -1 -56 22 -8
43 8 57 60 54 46 -3 47 -3 47 -38z m163 -2 l3 -38 -55 0 c-58 0 -67 8 -58 58
4 21 9 23 56 20 l51 -3 3 -37z m160 -1 l3 -38 -53 3 c-47 3 -53 6 -56 26 -6
44 4 53 55 50 48 -3 48 -3 51 -41z m164 19 c5 -9 6 -26 3 -37 -6 -17 -14 -20
-58 -17 -50 3 -52 4 -55 35 -3 34 6 40 67 37 20 0 37 -8 43 -18z m157 10 c6
-4 11 -20 11 -35 0 -25 -4 -29 -33 -33 -52 -6 -82 5 -85 30 -2 13 1 29 7 36
11 12 80 14 100 2z m171 -31 c0 -44 -19 -50 -112 -36 -10 1 -10 55 -1 64 3 4
30 7 60 7 l53 0 0 -35z m155 -5 l0 -35 -52 -3 c-29 -2 -53 1 -54 5 0 4 -2 16
-4 27 -7 38 5 47 59 44 l51 -3 0 -35z m163 6 c4 -33 -10 -46 -50 -46 -43 0
-58 10 -58 39 0 38 7 42 60 39 41 -3 45 -5 48 -32z m160 -8 l3 -38 -55 0 -56
0 0 41 0 40 53 -3 52 -3 3 -37z m-1611 -75 c10 -44 -2 -54 -59 -51 -47 3 -53
6 -56 26 -6 41 3 49 58 48 44 -1 52 -4 57 -23z m142 17 c13 0 18 -9 19 -34 1
-29 -2 -35 -25 -39 -15 -3 -42 -3 -60 0 -30 5 -33 9 -33 39 0 28 4 33 28 37
15 2 33 2 40 0 8 -1 22 -3 31 -3z m179 -37 l-3 -38 -52 -3 c-44 -3 -52 0 -58
18 -3 11 -3 29 0 40 5 17 15 20 61 20 l55 0 -3 -37z m160 0 c-3 -37 -4 -38
-46 -41 -49 -4 -72 10 -72 43 0 31 7 35 67 35 l54 0 -3 -37z m162 -4 l0 -40
-52 3 -53 3 -3 38 -3 37 55 0 56 0 0 -41z m166 16 c10 -39 -11 -56 -65 -53
-39 3 -46 6 -49 26 -6 43 4 52 57 52 46 0 51 -2 57 -25z m159 -15 l0 -35 -55
0 c-50 0 -55 2 -58 23 -7 45 4 53 60 50 l53 -3 0 -35z m153 31 c8 -5 12 -21
10 -37 -3 -28 -5 -29 -58 -29 -50 0 -55 2 -58 23 -6 41 4 52 50 52 24 0 49 -4
56 -9z m160 0 c8 -4 12 -21 10 -37 -3 -28 -5 -29 -58 -29 -53 0 -55 1 -58 29
-2 16 1 32 7 35 17 11 84 12 99 2z m148 -1 c21 0 24 -5 24 -35 l0 -36 -57 3
c-55 3 -58 4 -61 31 -3 21 2 29 20 36 13 6 29 8 36 5 8 -2 25 -4 38 -4z m182
-37 l-3 -38 -50 0 -50 0 -3 38 -3 37 56 0 56 0 -3 -37z m-1613 -93 l0 -35 -57
-3 -58 -3 0 41 0 41 58 -3 57 -3 0 -35z m160 0 l0 -35 -57 -3 -58 -3 0 34 c0
18 3 37 7 41 4 4 30 6 58 4 50 -3 50 -3 50 -38z m485 -10 l0 -40 -52 2 -53 3
-3 38 -3 37 55 0 56 0 0 -40z m160 -1 l0 -40 -52 3 -53 3 -3 38 -3 37 55 0 56
0 0 -41z m160 1 l0 -40 -55 0 -55 0 0 40 0 40 55 0 55 0 0 -40z m165 20 c3
-11 3 -29 0 -40 -5 -17 -15 -20 -61 -20 l-54 0 0 40 0 40 54 0 c46 0 56 -3 61
-20z m163 -23 l3 -38 -58 3 c-52 3 -58 5 -61 26 -7 45 4 53 60 50 l53 -3 3
-38z m-490 -104 c-3 -33 -6 -38 -32 -41 -56 -7 -76 5 -76 43 l0 35 56 0 55 0
-3 -37z m162 -4 l0 -40 -52 3 c-47 3 -53 6 -56 26 -6 43 4 52 58 52 l50 0 0
-41z m-162 -112 l3 -38 -53 3 c-47 3 -53 6 -56 26 -6 44 4 53 55 50 48 -3 48
-3 51 -41z m161 29 c7 -8 9 -25 5 -40 -6 -24 -10 -26 -60 -26 l-54 0 0 33 c0
19 3 37 7 40 12 13 90 7 102 -7z"/>
<path d="M1110 1781 c0 -5 12 -12 28 -15 83 -21 102 -28 96 -37 -3 -6 -11 -8
-17 -6 -7 2 -17 -3 -23 -11 -9 -13 -18 -13 -55 -4 -39 10 -71 8 -38 -2 8 -2
37 -11 66 -20 61 -19 104 -8 96 25 -3 10 -3 19 -1 19 3 0 56 -11 118 -25 62
-14 115 -24 117 -21 3 3 -15 10 -38 16 -24 6 -84 22 -134 35 -49 13 -110 26
-135 30 -25 4 -53 11 -62 17 -11 5 -18 5 -18 -1z"/>
<path d="M1302 1672 c-9 -6 -7 -22 10 -70 13 -34 28 -62 34 -62 14 0 77 -167
68 -182 -5 -7 -3 -8 6 -3 10 6 12 4 7 -7 -3 -9 1 -24 8 -35 8 -10 15 -28 15
-40 0 -35 22 -76 32 -61 14 22 9 77 -11 116 -10 20 -37 87 -60 147 -23 61 -47
121 -52 134 -5 13 -8 25 -7 26 4 4 88 -12 112 -21 12 -5 17 -4 13 3 -3 5 -36
18 -72 28 -36 9 -68 21 -71 26 -6 11 -15 11 -32 1z"/>
<path d="M4495 1620 c-3 -5 -1 -10 4 -10 6 0 11 5 11 10 0 6 -2 10 -4 10 -3 0
-8 -4 -11 -10z"/>
<path d="M1445 1460 c3 -5 8 -10 11 -10 2 0 4 5 4 10 0 6 -5 10 -11 10 -5 0
-7 -4 -4 -10z"/>
<path d="M1464 1420 c3 -14 6 -35 6 -47 0 -16 4 -21 15 -17 20 8 19 17 -6 56
-18 29 -20 30 -15 8z"/>
<path d="M5210 1344 c0 -32 2 -35 16 -23 14 11 20 10 40 -14 33 -39 30 -47
-16 -47 -38 0 -40 -2 -40 -30 0 -28 2 -30 39 -30 40 0 40 0 30 -29 -5 -15 -23
-41 -38 -57 -33 -34 -49 -89 -22 -74 33 17 74 66 97 115 23 48 25 50 71 55 43
5 48 8 51 33 3 26 2 27 -51 27 -51 0 -54 2 -68 32 -14 33 -70 78 -95 78 -9 0
-14 -12 -14 -36z"/>
<path d="M5021 1324 c-49 -42 -91 -119 -91 -167 0 -26 -9 -42 -42 -74 -55 -52
-77 -63 -130 -63 -114 -1 -229 -106 -244 -222 -7 -56 27 -125 72 -147 31 -16
32 -17 27 -68 -6 -52 -5 -53 20 -53 22 0 28 6 36 38 6 20 11 42 11 47 0 6 19
16 43 22 146 40 236 196 177 308 l-21 40 37 31 38 32 35 -23 c20 -12 51 -25
69 -29 29 -5 32 -3 32 19 0 20 -5 25 -24 25 -13 0 -34 9 -47 19 l-24 20 48 43
c47 41 48 45 45 91 l-3 48 -54 -51 c-30 -28 -56 -49 -58 -47 -12 12 35 92 73
126 43 38 57 71 31 71 -7 0 -32 -16 -56 -36z m-262 -351 c-1 -9 -199 -166
-199 -158 0 20 46 89 75 112 46 37 126 66 124 46z m106 -53 c21 -41 19 -68
-10 -127 -27 -53 -78 -97 -133 -113 -38 -10 -38 -8 -17 83 14 59 21 71 77 126
35 33 64 61 65 61 1 0 9 -13 18 -30z m-220 -162 c-14 -89 -21 -95 -61 -51
l-26 28 39 32 c21 18 42 33 46 33 5 0 6 -19 2 -42z"/>
<path d="M3360 1146 c0 -8 8 -20 18 -25 12 -8 -68 -10 -271 -8 -252 2 -286 0
-281 -13 3 -8 9 -23 11 -32 5 -17 26 -18 258 -18 223 0 257 2 284 18 30 17 32
16 76 -7 25 -13 48 -22 51 -19 6 7 -83 86 -118 104 -25 13 -28 13 -28 0z"/>
<path d="M2336 685 c-9 -13 -16 -27 -16 -31 0 -12 119 5 150 21 53 27 45 35
-38 35 -74 0 -81 -2 -96 -25z"/>
<path d="M3685 671 c41 -24 66 -30 143 -35 100 -7 101 -6 59 42 -19 20 -29 22
-136 22 l-116 0 50 -29z"/>
<path d="M1697 503 c-7 -11 10 -40 18 -31 4 4 3 14 -3 24 -5 9 -12 12 -15 7z"/>
<path d="M3963 472 c-40 -25 -56 -56 -34 -64 5 -1 31 -35 58 -74 26 -39 89
-129 138 -202 l90 -131 73 -1 74 0 -45 63 c-24 34 -65 91 -90 127 -26 36 -76
108 -112 160 -35 52 -75 107 -87 122 l-23 28 -42 -28z"/>
<path d="M2170 367 c-34 -67 -89 -172 -121 -234 -33 -62 -59 -117 -59 -123 0
-7 22 -10 63 -8 l62 3 110 217 110 216 -51 25 -51 25 -63 -121z"/>
</g>
</svg>
