<?xml version="1.0" standalone="no"?>
<!DOCTYPE svg PUBLIC "-//W3C//DTD SVG 20010904//EN"
 "http://www.w3.org/TR/2001/REC-SVG-20010904/DTD/svg10.dtd">
<svg version="1.0" xmlns="http://www.w3.org/2000/svg"
 width="960.000000pt" height="1280.000000pt" viewBox="0 0 960.000000 1280.000000"
 preserveAspectRatio="xMidYMid meet">

<g transform="translate(0.000000,1280.000000) scale(0.100000,-0.100000)"
fill="#000000" stroke="none">
<path d="M1080 12791 c0 -21 13 -41 26 -41 17 0 19 -27 3 -32 -9 -3 -8 -14 2
-41 10 -28 21 -39 44 -45 20 -6 30 -15 30 -28 0 -20 5 -27 63 -91 34 -38 40
-58 20 -66 -10 -4 -10 -7 0 -18 10 -11 12 -10 12 4 0 22 52 23 85 1 19 -12 23
-22 19 -40 -5 -18 0 -30 17 -45 17 -14 20 -22 11 -26 -9 -3 -7 -15 10 -44 23
-42 50 -54 41 -18 -4 16 -2 20 8 17 8 -3 13 -15 11 -26 -2 -12 3 -31 12 -43 8
-12 12 -28 9 -35 -4 -10 4 -14 31 -14 35 0 36 -1 36 -40 0 -38 2 -40 30 -40
22 0 33 -6 39 -22 10 -26 45 -58 64 -58 12 0 37 -44 37 -67 0 -17 17 -17 23 0
4 10 7 10 18 0 11 -11 10 -13 -4 -13 -9 0 -17 -5 -17 -11 0 -11 54 -69 65 -69
12 0 35 -29 35 -44 0 -8 13 -24 29 -35 15 -11 34 -34 41 -51 13 -32 25 -38 33
-17 5 15 47 -29 47 -49 0 -8 9 -19 19 -26 10 -6 17 -18 14 -25 -3 -8 2 -13 13
-13 11 0 25 -12 31 -27 7 -15 12 -27 10 -27 -1 -1 -11 -6 -23 -13 -13 -7 -26
-8 -35 -2 -8 5 -35 9 -61 9 -26 0 -50 5 -53 11 -4 6 -13 8 -21 5 -7 -3 -16 -1
-19 4 -10 16 -25 11 -25 -7 0 -10 14 -26 30 -35 17 -9 30 -24 30 -32 0 -8 9
-17 20 -21 10 -3 29 -23 42 -43 37 -61 48 -69 64 -47 8 10 14 24 14 30 0 19
46 38 74 31 27 -7 50 10 61 44 8 25 25 26 25 1 0 -33 77 -44 118 -15 12 8 22
10 22 5 0 -6 -4 -11 -10 -11 -5 0 -10 -18 -10 -40 0 -36 2 -40 25 -40 14 0 43
-9 65 -20 22 -11 42 -20 45 -20 3 0 5 9 5 20 0 15 7 20 25 20 23 0 25 -4 25
-40 0 -29 4 -40 15 -40 9 0 15 9 15 23 l1 22 19 -23 c17 -21 27 -24 77 -20 52
3 58 1 61 -17 4 -21 68 -69 82 -60 4 3 6 -4 3 -15 -4 -14 0 -20 11 -20 20 0
20 17 0 65 -8 20 -13 39 -10 42 9 9 35 -23 42 -51 3 -14 12 -26 20 -26 16 0
19 -17 3 -22 -5 -2 -7 -11 -3 -21 5 -14 9 -15 20 -6 8 6 14 20 14 30 0 11 7
19 16 19 9 0 14 -6 11 -13 -10 -25 7 -38 29 -22 16 13 17 16 4 25 -11 7 -1 10
38 10 28 0 51 3 51 8 -1 4 0 14 1 22 3 19 17 -36 19 -73 1 -25 -1 -26 -19 -15
-12 8 -15 15 -8 19 14 9 1 29 -18 29 -10 0 -13 -6 -9 -19 3 -12 0 -21 -10 -25
-22 -8 -19 -26 5 -26 11 0 20 5 20 12 0 7 11 -3 24 -21 22 -30 24 -31 25 -9 3
128 3 124 11 93 7 -29 8 -28 9 11 0 23 7 47 15 53 11 9 14 1 19 -41 4 -32 14
-60 26 -72 20 -20 20 -20 14 145 -4 102 -1 202 6 264 6 56 11 146 10 200 0 55
-1 112 0 127 0 15 -4 30 -9 33 -12 7 -13 45 -2 45 4 0 9 10 10 23 1 21 9 74
47 342 8 61 27 178 40 260 14 83 28 165 31 183 l5 32 -1116 0 c-670 0 -1115
-4 -1115 -9z m72 -111 c2 -22 1 -40 -3 -40 -4 0 -9 18 -11 40 -2 22 -1 40 3
40 4 0 9 -18 11 -40z m45 -32 c-3 -8 -6 -5 -6 6 -1 11 2 17 5 13 3 -3 4 -12 1
-19z m160 -120 c-3 -8 -6 -5 -6 6 -1 11 2 17 5 13 3 -3 4 -12 1 -19z m2 -44
c2 -2 -12 -4 -33 -4 -22 0 -35 4 -31 10 5 9 52 4 64 -6z m1787 -552 c-12 -11
-18 7 -10 30 l8 23 4 -23 c2 -13 1 -26 -2 -30z m21 -324 c-3 -8 -6 -5 -6 6 -1
11 2 17 5 13 3 -3 4 -12 1 -19z m-727 -243 c0 -3 -9 -5 -20 -5 -11 0 -20 7
-20 15 0 13 4 14 20 5 11 -6 20 -13 20 -15z m547 -51 c-3 -3 -12 -4 -19 -1 -8
3 -5 6 6 6 11 1 17 -2 13 -5z m-77 -54 c0 -5 -5 -10 -11 -10 -5 0 -7 5 -4 10
3 6 8 10 11 10 2 0 4 -4 4 -10z m-20 -27 c0 5 5 5 10 2 6 -4 8 -11 4 -16 -7
-12 -34 8 -34 25 0 6 5 4 10 -4 5 -8 10 -11 10 -7z m65 -13 c-3 -5 -11 -10
-16 -10 -6 0 -7 5 -4 10 3 6 11 10 16 10 6 0 7 -4 4 -10z"/>
<path d="M4280 12748 c-153 -80 -184 -96 -213 -107 -22 -9 -27 -17 -27 -45 0
-18 -7 -39 -15 -46 -8 -7 -15 -9 -15 -5 0 23 -46 -39 -91 -123 -29 -53 -66
-116 -84 -141 -17 -25 -42 -71 -54 -101 -13 -30 -29 -62 -37 -71 -35 -40 -128
-266 -198 -484 -43 -132 -82 -249 -87 -260 -5 -11 -20 -49 -33 -85 -13 -36
-40 -105 -59 -155 -36 -93 -57 -232 -30 -197 7 9 13 13 13 8 0 -5 9 -1 20 9
11 10 20 13 20 7 0 -6 -4 -14 -10 -17 -5 -3 -10 -13 -10 -21 0 -8 4 -13 9 -10
10 7 23 -78 14 -100 -3 -9 0 -20 8 -25 11 -6 11 -14 2 -39 -10 -26 -2 -53 10
-33 7 12 21 96 18 114 -1 9 5 22 14 29 17 14 21 70 4 70 -6 0 -8 9 -4 20 4 11
2 20 -4 20 -6 0 -11 -12 -12 -27 -1 -36 -9 -86 -15 -92 -2 -2 -4 28 -4 67 0
39 4 73 9 76 5 3 12 21 15 41 9 44 26 55 26 16 0 -17 4 -31 9 -31 11 0 21 25
21 55 0 29 10 55 20 55 8 0 7 -73 -1 -114 -7 -35 20 -28 38 11 19 40 32 55 45
47 4 -2 12 6 19 18 7 13 23 33 36 45 14 14 23 33 23 53 0 22 11 45 35 73 19
22 35 44 35 47 0 4 11 13 25 20 14 7 30 29 36 49 15 47 27 59 35 37 4 -11 2
-21 -6 -26 -7 -4 -9 -13 -6 -19 4 -6 12 -8 18 -5 6 4 25 10 42 14 l31 7 -30
13 -30 13 25 7 c14 4 36 13 48 21 21 12 25 12 38 -5 16 -23 19 -66 4 -66 -14
0 -13 -27 1 -36 6 -3 15 0 20 7 7 12 9 11 9 -1 1 -8 6 -4 11 10 l10 25 29 -35
c16 -19 30 -43 30 -54 0 -15 3 -16 15 -6 18 15 42 -1 56 -37 7 -19 16 -23 49
-23 32 0 40 -4 40 -18 0 -10 5 -23 12 -30 9 -9 8 -12 -5 -12 -19 0 -23 -15 -6
-25 7 -5 6 -12 -4 -23 -18 -21 -40 -88 -34 -105 3 -7 7 -4 12 8 19 53 29 65
57 65 18 0 28 -5 28 -15 0 -8 -4 -15 -10 -15 -5 0 -10 -6 -10 -14 0 -8 -9 -22
-21 -30 -12 -8 -18 -19 -14 -25 3 -6 1 -11 -6 -11 -8 0 -10 -13 -6 -39 4 -32
2 -41 -12 -44 -9 -2 1 -7 22 -11 22 -5 37 -14 37 -23 0 -8 6 -13 13 -10 6 2
12 13 12 24 0 31 12 38 25 14 13 -24 30 -28 30 -6 0 8 -5 15 -10 15 -6 0 -3
11 6 25 18 27 44 34 44 10 0 -7 -8 -19 -17 -24 -16 -9 -16 -10 -1 -11 9 0 19
6 22 13 3 6 3 -1 -1 -17 l-6 -28 44 7 44 8 -30 -24 c-17 -13 -47 -33 -67 -43
-38 -19 -50 -36 -25 -36 16 0 85 24 93 33 11 11 79 8 91 -4 7 -7 20 -4 45 9
34 19 35 19 46 1 7 -11 23 -19 36 -19 14 0 32 -7 41 -16 12 -13 28 -15 66 -11
45 6 49 4 49 -15 0 -18 4 -20 38 -15 l37 7 -3 -40 c-3 -28 2 -47 17 -69 12
-16 21 -36 21 -45 0 -9 5 -16 11 -16 8 0 9 -14 5 -44 -6 -41 -5 -44 19 -50 25
-6 36 -36 13 -36 -6 0 -31 -10 -56 -21 -30 -15 -68 -23 -125 -25 -45 -2 -108
-9 -139 -15 -31 -6 -63 -9 -71 -6 -8 3 -32 1 -53 -4 -22 -6 -57 -13 -78 -15
-22 -3 -48 -10 -57 -15 -10 -5 -26 -9 -37 -9 -10 0 -27 -9 -37 -20 -10 -11
-24 -20 -31 -20 -7 0 -19 -9 -27 -20 -11 -16 -27 -21 -66 -23 -28 -1 -51 -5
-51 -9 0 -13 -44 -8 -64 7 -11 8 -28 13 -37 10 -10 -3 -19 1 -23 10 -3 8 -14
15 -23 15 -21 0 -40 -21 -68 -76 -18 -35 -24 -39 -62 -42 -40 -3 -43 -5 -43
-33 0 -27 2 -29 40 -29 29 0 40 4 40 15 0 9 6 12 15 9 22 -9 18 -28 -7 -39
-13 -6 -24 -16 -24 -22 -3 -27 -6 -27 -13 -3 -11 41 -37 32 -33 -12 2 -33 0
-38 -18 -38 -32 0 -60 -19 -60 -40 0 -11 -9 -25 -20 -32 -11 -7 -20 -20 -20
-29 0 -9 -7 -19 -15 -23 -8 -3 -15 -12 -15 -21 0 -8 7 -15 15 -15 8 0 15 6 15
13 0 18 24 67 33 67 11 0 9 -18 -5 -40 -11 -17 -10 -22 2 -30 12 -8 13 -13 3
-30 -12 -17 -10 -20 12 -26 14 -3 32 -1 39 5 11 9 17 8 29 -9 12 -18 16 -19
27 -6 10 14 15 13 37 -1 14 -9 20 -19 14 -23 -16 -9 16 -50 39 -50 23 0 37
-19 21 -29 -6 -4 10 -12 35 -19 40 -11 44 -14 34 -31 -14 -28 -13 -31 15 -31
14 0 25 -4 25 -10 0 -5 14 -10 30 -10 17 0 30 5 30 12 0 7 7 2 16 -10 14 -21
14 -24 -10 -53 -27 -32 -33 -54 -16 -64 6 -4 10 5 10 21 0 22 3 25 23 20 12
-3 30 -6 40 -6 9 0 17 -7 17 -17 0 -15 2 -15 18 -1 24 22 62 7 62 -26 0 -16 7
-27 20 -31 13 -4 23 -19 27 -36 5 -25 10 -30 32 -29 43 3 51 1 51 -15 0 -9 7
-18 15 -21 8 -4 15 -15 15 -26 0 -11 14 -36 30 -55 17 -18 30 -37 30 -42 0 -4
13 -6 29 -3 22 3 29 -1 33 -16 4 -12 18 -23 37 -27 19 -4 37 -18 48 -36 10
-16 20 -29 23 -29 3 0 20 -9 38 -20 27 -17 31 -23 23 -39 -13 -24 15 -54 29
-32 4 8 13 10 20 6 10 -6 8 -11 -6 -22 -15 -11 -16 -15 -5 -22 8 -5 14 -22 15
-38 1 -21 6 -29 24 -31 12 -2 22 -8 22 -13 0 -5 12 -14 26 -19 20 -8 25 -16
22 -33 -3 -13 1 -29 9 -35 7 -7 13 -23 13 -35 0 -33 14 -48 56 -63 22 -8 40
-14 42 -14 1 0 2 9 2 20 0 23 15 27 23 6 15 -39 135 -12 130 29 -3 18 -2 17 6
-2 20 -44 66 -50 130 -17 24 13 26 12 29 -5 3 -20 3 -20 23 0 22 22 34 24 51
6 7 -8 20 -12 30 -9 10 2 20 -2 24 -12 5 -12 10 -13 25 -5 15 7 19 6 19 -6 0
-8 5 -15 10 -15 6 0 10 5 10 10 0 13 47 13 52 0 2 -5 18 -6 41 -1 29 7 37 6
37 -5 0 -8 -5 -14 -11 -14 -5 0 -8 -4 -5 -9 3 -4 18 -6 33 -4 21 3 24 2 14 -5
-12 -9 -12 -13 -2 -26 20 -23 32 -19 25 8 -4 18 -1 25 15 29 23 6 39 -8 19
-16 -8 -3 -6 -6 5 -6 9 -1 17 5 17 13 0 17 27 29 35 16 3 -5 -1 -23 -10 -41
-20 -39 -10 -52 16 -20 l19 23 11 -31 c10 -29 29 -43 29 -21 0 6 5 10 11 10
23 0 3 -35 -21 -36 -33 -2 -211 -66 -228 -82 -18 -16 -23 -15 -16 3 4 10 0 15
-13 15 -34 0 -83 -21 -83 -36 0 -8 -7 -14 -15 -14 -8 0 -19 -9 -25 -20 -14
-25 -60 -28 -60 -3 0 13 -3 14 -12 5 -7 -7 -18 -12 -25 -12 -7 0 -22 -8 -33
-17 -11 -10 -37 -22 -57 -28 -20 -6 -38 -16 -39 -23 -1 -7 0 -8 3 -2 6 13 33
13 33 -1 0 -6 -5 -19 -10 -29 -8 -15 -17 -18 -43 -13 -17 3 -39 9 -48 14 -10
5 -21 3 -28 -4 -7 -7 -32 -12 -56 -12 -54 -1 -79 -20 -52 -39 20 -15 23 -36 4
-36 -23 0 -37 -21 -27 -41 7 -11 7 -20 0 -24 -5 -3 -10 3 -10 14 0 26 -5 26
-32 1 -12 -11 -31 -20 -43 -20 -13 0 -26 -9 -33 -24 -8 -17 -22 -26 -52 -31
-27 -5 -53 -19 -78 -43 -24 -23 -45 -35 -59 -33 -20 2 -23 -2 -23 -29 0 -23
-9 -40 -31 -61 -17 -16 -35 -29 -40 -29 -5 0 -9 -11 -9 -25 0 -15 -6 -25 -14
-25 -7 0 -19 -7 -26 -15 -7 -8 -19 -15 -26 -15 -8 0 -14 7 -14 15 0 8 -7 15
-16 15 -11 0 -14 -6 -9 -20 8 -24 -2 -60 -17 -60 -5 0 -18 -10 -27 -21 -9 -12
-29 -23 -43 -24 -31 -4 -48 -12 -48 -26 0 -13 38 -11 42 3 3 7 11 9 24 4 15
-7 10 -11 -31 -22 -27 -7 -57 -11 -67 -8 -22 6 -33 -13 -18 -31 10 -12 9 -15
-9 -15 -14 0 -21 6 -21 18 0 10 -3 21 -6 25 -11 11 -34 -5 -34 -23 0 -10 -7
-23 -15 -30 -8 -7 -15 -21 -15 -31 0 -11 -6 -19 -13 -19 -7 0 -28 -11 -46 -25
-26 -18 -38 -22 -52 -15 -11 7 -27 6 -44 0 -38 -14 -62 -13 -47 2 7 7 12 16
12 20 0 14 -71 3 -80 -12 -6 -9 -12 0 -21 31 l-14 44 -3 -40 c-2 -22 -9 -43
-15 -47 -8 -5 -6 -8 5 -8 29 0 31 -21 5 -46 -29 -27 -43 -30 -50 -11 -4 9 -6
9 -6 -1 -1 -21 -21 -3 -21 19 0 10 -4 19 -10 19 -5 0 -10 -11 -10 -24 0 -13
-6 -27 -12 -29 -10 -4 -10 -6 0 -6 7 -1 12 -15 12 -33 0 -28 -6 -36 -38 -51
-21 -10 -47 -33 -57 -50 -10 -18 -25 -36 -32 -40 -7 -5 -11 -12 -8 -18 10 -15
22 -10 28 11 6 23 27 27 27 6 0 -8 6 -16 13 -19 10 -4 10 -7 0 -18 -10 -9 -13
-10 -13 -1 0 7 -4 12 -10 12 -5 0 -10 -7 -10 -15 0 -8 -6 -15 -14 -15 -7 0
-19 -6 -26 -14 -6 -8 -24 -16 -38 -18 -21 -2 -27 -9 -29 -28 0 -14 -1 -31 -2
-37 -1 -7 -12 -13 -26 -13 -23 0 -25 -4 -25 -44 0 -25 4 -47 10 -51 5 -3 7
-12 3 -20 -4 -11 0 -14 13 -9 11 3 15 2 8 -3 -6 -4 -13 -16 -17 -26 -5 -13
-15 -17 -34 -15 -24 3 -28 0 -25 -19 2 -13 -2 -23 -7 -23 -6 0 -11 6 -11 13 0
18 -24 67 -32 67 -5 0 -8 12 -8 28 0 15 -5 34 -10 42 -7 11 -11 4 -16 -28 -4
-26 -12 -42 -21 -42 -10 0 -4 -14 17 -45 17 -25 29 -45 26 -45 -2 0 -11 -3
-20 -6 -12 -4 -16 0 -16 16 0 19 -2 20 -15 10 -17 -14 -21 -90 -4 -90 5 0 7
-4 4 -10 -3 -5 0 -10 7 -10 8 0 6 -5 -4 -11 -23 -13 -25 -64 -3 -55 10 4 15
-1 15 -14 0 -13 -5 -18 -15 -14 -20 8 -19 -5 2 -28 15 -17 15 -18 -2 -18 -15
0 -16 -3 -7 -12 7 -7 12 -20 12 -29 0 -9 7 -20 16 -23 8 -3 12 -10 9 -16 -7
-12 25 -122 39 -132 5 -3 10 -18 12 -33 2 -15 23 -63 48 -107 25 -44 46 -84
46 -89 0 -4 8 -14 19 -21 18 -13 21 -18 21 -37 0 -5 12 -22 28 -38 32 -34 56
-73 48 -80 -8 -8 -77 68 -71 78 3 4 0 11 -7 16 -19 12 -61 70 -98 138 -18 33
-36 62 -40 65 -4 3 -22 37 -40 75 -19 39 -50 96 -70 128 -38 63 -46 65 -114
31 -16 -8 -33 -14 -38 -14 -5 0 -54 -23 -111 -50 -81 -40 -110 -61 -140 -98
-48 -60 -87 -129 -87 -153 0 -11 -4 -19 -10 -19 -5 0 -10 7 -10 15 0 19 -37
19 -269 1 -124 -10 -178 -18 -185 -28 -6 -8 -28 -22 -48 -31 -21 -10 -38 -23
-38 -30 0 -7 -27 -41 -60 -77 -33 -36 -60 -69 -60 -73 0 -7 -108 -137 -131
-157 -3 -3 -18 -22 -33 -42 -16 -21 -33 -38 -40 -38 -6 0 -21 -15 -34 -34 -13
-19 -58 -68 -100 -109 -101 -97 -149 -151 -156 -175 -4 -10 -16 -24 -29 -31
-12 -6 -35 -37 -51 -67 -16 -30 -43 -74 -61 -97 -50 -65 -116 -196 -120 -237
-3 -23 -27 -70 -37 -70 -5 0 -6 -5 -2 -12 4 -6 1 -16 -7 -22 -20 -15 -49 -79
-56 -121 -3 -19 -10 -33 -17 -32 -6 1 -10 -9 -8 -25 2 -17 -3 -30 -14 -36 -12
-7 -17 -25 -18 -72 -1 -46 -6 -65 -16 -68 -13 -3 -13 -2 0 7 11 8 12 13 3 22
-8 8 -14 1 -24 -28 -8 -21 -14 -42 -14 -48 0 -5 -4 -13 -10 -17 -6 -5 -5 -8 3
-8 6 0 12 -9 12 -21 0 -13 -5 -19 -13 -16 -10 4 -17 -13 -26 -55 -7 -33 -17
-72 -23 -86 -6 -15 -10 -33 -9 -40 1 -8 -4 -21 -12 -30 -8 -10 -17 -32 -21
-51 -3 -19 -14 -43 -23 -53 -14 -16 -15 -23 -5 -38 10 -16 8 -22 -11 -35 -12
-8 -21 -19 -20 -23 6 -18 -51 -196 -73 -226 -8 -11 -14 -31 -14 -44 0 -13 -4
-21 -8 -18 -4 2 -14 -16 -21 -42 -7 -26 -19 -67 -27 -92 -9 -25 -19 -61 -23
-80 -4 -19 -12 -44 -18 -55 -10 -17 -29 -78 -64 -205 -12 -42 -29 -133 -33
-175 -1 -16 -3 -39 -4 -50 -2 -15 -4 -17 -11 -7 -4 7 -4 32 0 55 5 23 15 87
24 142 9 55 23 123 31 150 25 84 77 249 85 270 4 11 20 58 35 105 14 47 44
137 64 200 21 63 55 169 75 235 21 66 53 165 72 220 20 55 36 116 37 136 2 19
28 87 59 150 31 63 57 119 57 124 0 5 9 27 19 49 11 23 21 53 23 67 2 15 9 33
15 40 6 8 44 79 84 159 40 80 76 147 79 150 4 3 15 21 25 40 10 19 32 53 50
75 18 22 39 54 48 71 9 17 52 67 95 111 43 44 84 88 90 99 6 10 18 19 28 19
15 0 93 81 265 274 21 25 39 48 39 53 0 5 26 35 58 67 31 32 65 70 75 85 10
14 22 24 27 21 5 -3 12 0 16 6 5 8 -35 9 -147 3 -85 -4 -175 -8 -201 -8 -27 0
-48 -3 -48 -6 0 -3 -7 -15 -15 -26 -15 -18 -16 -16 -13 23 3 34 1 40 -10 30
-8 -6 -21 -12 -29 -13 -8 -2 -22 -9 -31 -17 -24 -20 -62 -31 -62 -17 0 7 -8 5
-22 -4 -17 -12 -25 -13 -37 -3 -9 7 -12 8 -8 1 7 -13 -34 -24 -88 -24 -19 0
-35 -6 -38 -14 -3 -7 -27 -19 -54 -25 -26 -7 -59 -19 -73 -27 -27 -16 -30 -17
75 11 94 25 233 31 288 12 25 -8 48 -12 52 -9 4 4 34 7 68 8 67 1 172 28 198
50 20 18 29 18 29 1 0 -8 -13 -26 -30 -40 -16 -15 -30 -32 -30 -37 0 -6 -7
-10 -15 -10 -10 0 -12 6 -8 18 6 15 5 15 -10 3 -9 -7 -17 -10 -17 -5 0 4 -5 3
-12 -4 -7 -7 -25 -12 -40 -12 -15 0 -38 -10 -50 -22 -19 -19 -20 -22 -4 -33
23 -18 10 -43 -27 -51 -37 -7 -127 -72 -127 -91 0 -7 -4 -13 -9 -13 -5 0 -13
-9 -16 -20 -3 -11 -13 -20 -21 -20 -8 0 -13 -9 -11 -22 1 -14 -4 -23 -13 -23
-8 0 -19 -10 -25 -22 -5 -13 -14 -23 -20 -23 -11 0 -50 -40 -50 -52 0 -4 -6
-13 -13 -20 -6 -6 -12 -22 -12 -35 0 -13 -4 -23 -10 -23 -5 0 -10 -6 -10 -13
0 -8 -9 -22 -20 -32 -11 -10 -18 -20 -16 -22 4 -5 -21 -37 -57 -75 -18 -19
-43 -25 -32 -8 3 6 2 10 -3 10 -5 0 -13 -21 -17 -47 -7 -54 -28 -93 -50 -93
-7 0 -17 -5 -21 -12 -5 -8 -2 -9 9 -5 12 5 17 1 17 -12 0 -20 -27 -48 -36 -38
-8 8 -82 -80 -95 -110 -11 -29 -44 -32 -36 -3 6 25 -11 27 -19 3 -3 -10 -10
-28 -16 -40 -6 -11 -8 -26 -4 -31 4 -6 -2 -8 -14 -5 -18 5 -22 0 -19 -22 0 -3
-12 -20 -26 -37 -21 -24 -23 -33 -13 -40 9 -6 6 -7 -9 -3 -16 4 -25 0 -32 -14
-15 -28 -14 -41 5 -41 14 0 14 -3 4 -15 -9 -11 -17 -12 -23 -6 -11 11 -67 -52
-67 -75 0 -8 -4 -14 -8 -14 -10 0 -54 -103 -57 -134 -4 -39 -5 -41 -14 -28 -6
10 -16 0 -35 -35 -15 -26 -34 -59 -42 -73 -8 -14 -35 -65 -60 -115 -25 -49
-50 -91 -55 -93 -5 -2 -9 -10 -9 -17 0 -7 -23 -59 -50 -114 -28 -55 -50 -105
-50 -111 0 -5 -4 -10 -9 -10 -5 0 -19 -26 -31 -57 -12 -32 -27 -71 -35 -88 -7
-16 -20 -52 -29 -80 -9 -27 -29 -90 -46 -140 -65 -201 -133 -521 -147 -700
-16 -193 -7 -553 17 -659 16 -76 23 -186 12 -186 -7 0 -11 22 -11 58 0 31 -4
71 -11 87 -33 85 -46 583 -20 775 7 52 14 106 15 120 3 41 16 113 25 145 5 17
11 48 14 70 2 22 20 87 39 145 65 197 87 271 87 289 0 10 7 24 15 31 8 7 15
19 15 27 0 17 32 99 66 168 13 28 24 58 24 68 0 9 3 17 8 17 9 0 51 83 82 165
13 33 36 80 51 105 15 25 42 74 60 110 18 36 35 67 38 70 12 10 41 72 41 88 0
10 9 23 20 30 11 7 20 21 20 31 0 10 7 24 15 31 8 6 17 22 21 33 4 12 17 35
30 50 13 16 24 35 24 42 0 8 6 18 12 22 13 8 57 73 118 173 19 30 41 63 49 72
23 25 33 38 87 109 26 35 51 66 55 69 3 3 19 30 34 60 15 30 45 72 66 92 21
20 47 54 58 75 10 21 29 48 40 60 12 12 21 24 21 27 0 11 50 77 86 116 22 22
44 55 50 72 13 35 9 52 -6 28 -5 -8 -19 -14 -32 -15 -13 0 -36 -8 -52 -18 -15
-10 -34 -16 -41 -13 -7 2 -16 -1 -18 -8 -3 -7 -23 -16 -45 -20 -22 -3 -42 -13
-46 -21 -3 -8 -13 -15 -22 -15 -10 0 -29 -13 -43 -30 -20 -22 -37 -31 -71 -34
-25 -3 -50 -13 -57 -22 -7 -9 -17 -13 -24 -8 -7 4 -10 3 -5 -4 11 -18 -40 -63
-73 -64 -24 -1 -30 -5 -28 -21 1 -14 -6 -22 -25 -28 -19 -5 -28 -3 -29 4 0 7
-4 2 -9 -10 -5 -13 -14 -23 -21 -23 -6 0 -9 -6 -6 -14 10 -24 -57 -86 -92 -86
-35 0 -35 -2 -31 -102 l2 -58 -41 0 c-23 0 -41 -4 -41 -10 0 -15 -77 -12 -83
3 -4 9 -6 9 -6 -1 -1 -8 -15 -27 -32 -43 -28 -26 -31 -34 -25 -69 4 -25 2 -40
-4 -40 -5 0 -10 11 -10 25 0 20 -4 24 -14 18 -24 -14 -66 -83 -66 -109 0 -20
-8 -29 -40 -42 -25 -11 -40 -24 -40 -34 0 -10 -7 -18 -15 -18 -11 0 -15 -11
-15 -40 0 -34 -3 -40 -20 -40 -21 0 -69 -46 -70 -66 0 -6 -9 -23 -20 -37 -11
-14 -20 -34 -20 -44 0 -10 -9 -26 -21 -36 -13 -12 -18 -24 -14 -37 5 -14 2
-20 -10 -20 -11 0 -14 -6 -10 -23 4 -15 1 -28 -10 -37 -11 -9 -12 -15 -5 -20
8 -5 7 -15 -2 -36 -7 -16 -15 -31 -18 -34 -3 -3 -6 -23 -7 -44 -3 -38 -29 -76
-53 -76 -17 0 -11 -17 13 -33 22 -16 22 -16 1 -16 -18 -1 -22 -9 -28 -63 -7
-74 -35 -178 -47 -178 -5 0 -9 -9 -9 -20 0 -11 -4 -20 -10 -20 -5 0 -10 -9
-10 -20 0 -11 5 -20 10 -20 19 0 3 -60 -21 -80 -4 -3 -8 -22 -11 -42 -4 -37
-3 -38 29 -38 30 0 32 -2 27 -28 -4 -19 0 -34 10 -45 21 -21 22 -87 1 -87 -19
0 -19 -11 0 -57 8 -19 15 -51 15 -69 0 -28 -5 -37 -27 -47 -16 -6 -31 -16 -35
-22 -13 -18 -9 -45 7 -45 33 0 40 -77 14 -147 -6 -15 -14 -20 -28 -16 -12 3
-21 12 -21 19 0 8 -4 14 -10 14 -21 0 -9 -27 17 -39 l28 -13 -29 -15 c-21 -11
-25 -18 -17 -26 6 -6 11 -21 11 -34 0 -14 6 -23 15 -23 22 0 20 -56 -2 -64
-11 -4 -22 -1 -29 8 -16 23 -51 20 -59 -4 -3 -11 -10 -20 -15 -20 -12 0 -40
-76 -40 -110 0 -23 6 -33 25 -40 32 -12 32 -21 -2 -42 -16 -10 -22 -18 -15
-18 14 0 16 -36 2 -45 -6 -4 -10 -474 -10 -1337 0 -732 2 -1330 4 -1327 73 86
116 140 131 164 120 194 179 271 296 385 36 36 101 116 144 178 92 133 232
272 334 331 38 23 73 41 76 41 4 0 22 7 41 16 77 37 375 525 393 643 4 26 12
45 19 44 17 -4 45 42 134 214 44 87 102 196 128 243 26 47 77 141 112 210 67
129 112 213 178 335 21 39 62 117 93 175 30 58 68 129 86 158 17 29 31 55 31
58 0 2 17 30 37 62 92 143 122 191 158 252 246 418 282 464 676 885 99 106
168 195 379 490 106 149 218 301 249 339 86 106 300 313 398 386 48 35 104 78
125 95 20 17 53 36 73 44 32 11 39 11 56 -5 10 -9 19 -23 19 -30 0 -7 9 -15
19 -19 11 -3 18 -12 15 -19 -3 -8 7 -18 25 -26 19 -7 31 -20 31 -31 0 -25 40
-34 90 -21 22 5 38 6 35 2 -3 -4 9 -13 25 -20 17 -7 30 -19 30 -26 0 -8 7 -14
15 -14 8 0 15 -4 15 -10 0 -16 22 -12 35 6 11 16 12 16 18 0 4 -10 1 -16 -8
-16 -19 0 -19 -8 -1 -26 9 -9 17 -10 21 -4 9 14 40 12 104 -6 68 -20 121 -44
121 -56 0 -16 24 -34 53 -42 15 -3 27 -11 27 -16 0 -12 50 -13 69 -1 9 6 21 5
31 -1 12 -8 25 -2 58 28 53 47 69 50 87 14 8 -15 24 -30 36 -33 12 -3 18 -10
14 -17 -4 -6 3 -22 15 -35 15 -16 24 -41 28 -75 3 -36 9 -50 20 -50 13 0 13
-2 -1 -18 -10 -10 -17 -28 -17 -40 0 -12 -3 -22 -8 -22 -4 0 -16 -20 -27 -45
-11 -25 -26 -45 -33 -45 -8 0 -10 -8 -6 -25 4 -18 2 -25 -9 -25 -8 0 -17 -7
-21 -15 -3 -8 -16 -15 -29 -15 -14 0 -30 -7 -38 -16 -9 -11 -23 -14 -48 -10
-20 4 -44 6 -53 7 -10 0 -18 7 -18 15 0 26 -19 14 -37 -23 -37 -79 -116 -182
-220 -286 -33 -32 -95 -86 -123 -108 -19 -14 -50 -40 -67 -57 -69 -63 -153
-134 -153 -127 0 14 -32 -19 -41 -42 -5 -13 -17 -23 -27 -23 -9 0 -24 -10 -32
-22 -26 -38 -56 -62 -127 -99 -75 -40 -125 -54 -225 -64 -78 -8 -198 11 -198
31 0 16 -31 34 -59 34 -10 0 -21 3 -23 8 -7 16 -73 56 -91 55 -13 -1 -16 3
-12 18 4 13 2 19 -9 19 -9 0 -16 -5 -16 -11 0 -8 -5 -8 -15 1 -8 7 -15 19 -15
26 0 8 -5 14 -11 14 -6 0 -9 -6 -6 -12 5 -16 -21 -37 -45 -38 -10 0 -18 -5
-18 -11 0 -8 -13 -9 -40 -5 -31 5 -40 3 -40 -8 0 -7 9 -16 21 -19 15 -4 20
-12 17 -29 -4 -32 -29 -33 -62 -3 -15 13 -38 28 -51 31 -17 4 -25 13 -25 27 0
20 -1 20 -14 2 -8 -11 -19 -16 -30 -12 -10 4 -16 1 -16 -8 0 -8 6 -15 14 -15
7 0 19 -6 25 -14 9 -11 6 -15 -14 -20 -33 -8 -32 -22 5 -41 16 -9 30 -20 30
-25 0 -6 9 -10 20 -10 26 0 25 14 -2 33 -17 11 -20 18 -12 26 7 8 24 4 60 -15
68 -36 74 -44 34 -44 -31 -1 -33 -2 -17 -14 9 -7 17 -18 17 -25 0 -7 9 -9 23
-6 25 6 61 -18 55 -36 -2 -7 -31 -18 -64 -25 -50 -10 -62 -10 -76 3 -10 9 -18
11 -22 4 -7 -11 55 -41 85 -41 11 0 19 -4 19 -10 0 -5 -4 -10 -10 -10 -5 0
-10 -7 -10 -15 0 -9 9 -15 24 -15 31 0 50 -22 34 -38 -16 -16 -55 -15 -61 1
-4 9 -7 9 -18 -1 -7 -6 -22 -12 -33 -12 -41 0 2 -17 49 -19 36 -2 52 -18 38
-39 -15 -25 5 -68 30 -64 10 2 17 -4 17 -13 0 -9 -4 -14 -9 -11 -5 3 -14 -1
-20 -8 -8 -9 -8 -17 -2 -20 5 -3 11 -1 13 6 4 12 48 -24 48 -40 0 -4 9 -13 20
-20 12 -7 22 -28 26 -52 4 -22 12 -40 19 -40 16 0 45 -82 45 -127 0 -29 3 -33
27 -33 25 0 25 1 10 18 -23 25 -21 34 6 30 25 -3 36 -43 18 -61 -6 -6 -11 -19
-11 -28 0 -20 38 -51 52 -43 4 3 8 0 8 -6 0 -6 5 -8 12 -4 6 4 8 3 5 -3 -4 -6
0 -16 8 -23 8 -7 15 -19 15 -26 0 -8 7 -14 15 -14 8 0 15 -9 15 -19 0 -17 25
-36 42 -33 4 1 5 -5 2 -13 -5 -11 1 -15 19 -15 20 0 24 -4 20 -20 -6 -22 3
-25 27 -10 16 10 50 -14 50 -36 0 -7 6 -14 13 -17 9 -3 9 -7 1 -18 -17 -21
-36 -133 -24 -137 5 -2 10 -9 10 -15 0 -8 -4 -7 -12 1 -27 27 -88 -7 -68 -38
16 -25 11 -30 -31 -30 -24 0 -38 -4 -34 -10 3 -5 20 -10 38 -10 l31 0 -23 -16
c-17 -12 -26 -13 -34 -5 -19 19 -45 13 -49 -11 -2 -16 -11 -24 -30 -26 -23 -3
-26 0 -21 20 5 23 5 23 -10 3 -9 -11 -11 -21 -6 -23 24 -9 5 -22 -31 -22 -38
0 -40 -1 -40 -31 0 -27 -2 -30 -15 -19 -9 7 -18 10 -22 6 -4 -3 2 -13 13 -20
10 -8 21 -10 22 -5 6 15 22 10 22 -7 0 -10 5 -14 15 -10 8 3 22 9 30 12 10 4
15 0 15 -10 0 -9 5 -16 10 -16 6 0 10 -5 10 -11 0 -7 -14 -8 -40 -4 -33 6 -40
4 -40 -9 0 -9 -4 -16 -10 -16 -5 0 -10 12 -10 26 l0 26 -36 -23 c-28 -17 -38
-19 -44 -9 -4 7 -13 9 -19 6 -16 -10 -14 -26 4 -26 18 0 20 -17 3 -23 -10 -3
-10 -7 0 -19 10 -13 10 -17 -3 -22 -9 -3 -13 -10 -10 -16 8 -13 -4 -50 -16
-50 -5 0 -12 14 -16 30 -6 33 -23 41 -23 11 0 -11 -9 -22 -20 -26 -22 -7 -40
0 -40 16 0 6 -7 17 -15 26 -14 14 -15 13 -10 -9 4 -16 1 -29 -9 -37 -20 -17
-21 -41 -1 -41 24 0 17 -17 -10 -24 -14 -4 -25 -11 -25 -16 0 -5 11 -12 25
-16 42 -10 28 -26 -19 -23 -24 2 -42 1 -39 -3 7 -13 -96 -15 -134 -3 -20 6
-22 3 -26 -36 l-4 -44 -1 43 c-2 40 -4 42 -32 42 -28 0 -30 -2 -30 -40 l0 -40
-56 0 -56 0 7 -31 c5 -24 4 -30 -6 -27 -8 3 -15 17 -17 31 -3 22 -8 27 -33 27
-22 0 -29 5 -29 20 0 11 5 20 10 20 6 0 10 9 10 20 0 16 7 20 30 20 35 0 41
23 10 40 -11 6 -20 17 -20 25 0 8 -4 15 -10 15 -5 0 -10 7 -10 15 0 8 -6 15
-13 15 -17 0 -56 -29 -39 -30 7 0 12 -15 12 -40 0 -22 5 -40 10 -40 6 0 10 -9
10 -19 0 -16 -8 -20 -37 -23 l-38 -3 -8 -83 c-7 -83 -19 -122 -37 -122 -9 0
-38 -26 -80 -73 -20 -24 -22 -30 -10 -37 12 -7 12 -12 2 -22 -9 -9 -12 -9 -12
3 0 12 -2 12 -10 -1 -5 -8 -6 -17 -2 -20 9 -6 32 -57 32 -70 0 -6 -4 -10 -10
-10 -5 0 -10 7 -10 15 0 12 -4 14 -17 6 -13 -7 -23 -5 -34 5 -21 19 -61 3 -79
-31 -8 -14 -18 -21 -27 -18 -11 4 -14 0 -11 -13 2 -10 9 -18 15 -17 6 1 14 -4
17 -12 3 -9 -1 -15 -9 -15 -8 0 -15 -4 -15 -10 0 -5 9 -10 20 -10 13 0 20 -7
20 -20 0 -13 -7 -20 -20 -20 -12 0 -20 7 -20 17 0 15 -1 15 -18 0 -13 -12 -17
-29 -15 -76 2 -64 8 -85 24 -76 5 4 9 -6 9 -21 0 -22 -2 -25 -15 -14 -12 10
-15 10 -15 -3 0 -28 -18 -28 -32 0 -10 21 -22 29 -46 31 -27 3 -32 0 -32 -17
0 -12 -4 -21 -10 -21 -5 0 -10 9 -10 20 0 11 5 20 10 20 6 0 10 9 10 21 0 36
-25 15 -28 -24 -4 -50 -22 -47 -22 3 0 36 -2 40 -25 40 -23 0 -25 -4 -25 -42
-1 -53 -22 -87 -44 -69 -8 7 -20 10 -26 6 -12 -8 -13 -55 -1 -55 6 0 6 -14 0
-35 -8 -29 -7 -37 11 -55 26 -26 30 -25 30 5 0 13 7 30 15 37 9 7 25 22 35 32
11 11 21 18 23 15 46 -66 59 -94 48 -111 -6 -10 -11 -38 -11 -63 l0 -45 -40 0
c-22 0 -40 -4 -40 -10 0 -5 7 -10 15 -10 13 0 14 -4 4 -22 l-12 -22 -18 23
c-13 16 -24 21 -36 15 -10 -4 -21 -7 -25 -6 -4 1 -6 -7 -5 -18 1 -10 5 -16 10
-13 4 3 11 -4 14 -16 3 -12 9 -21 14 -21 5 0 9 -7 9 -15 0 -19 -24 -19 -44 0
-8 8 -23 15 -33 15 -13 0 -19 9 -20 33 -2 17 -9 37 -18 43 -8 6 -21 27 -30 46
-9 23 -23 38 -40 42 -14 4 -25 14 -25 23 0 13 -3 14 -12 5 -8 -8 -8 -15 -1
-24 6 -7 13 -27 16 -44 7 -44 25 -74 41 -68 17 7 29 -23 17 -43 -7 -14 -10
-13 -20 6 -15 27 -36 15 -39 -24 -2 -22 1 -25 23 -19 21 5 25 3 25 -16 0 -19
-4 -21 -25 -16 -18 5 -25 2 -25 -9 0 -8 8 -15 17 -15 14 0 15 -2 4 -12 -11
-10 -14 -10 -18 0 -6 17 -43 15 -43 -2 0 -8 10 -26 23 -39 17 -19 25 -22 39
-14 9 6 20 9 23 5 9 -9 -17 -58 -32 -58 -8 0 -13 -12 -13 -30 0 -20 -5 -30
-15 -30 -8 0 -15 8 -15 17 0 25 -31 103 -41 103 -16 0 -9 39 9 49 15 9 15 10
0 11 -23 0 -98 51 -98 67 0 7 -4 13 -10 13 -5 0 -10 17 -10 38 0 26 -6 41 -20
50 -11 7 -20 19 -20 27 0 8 -7 15 -15 15 -12 0 -13 -9 -8 -45 5 -41 4 -45 -12
-39 -21 9 -45 -19 -44 -50 0 -12 3 -15 6 -8 2 6 13 12 24 12 23 0 26 -35 4
-44 -8 -3 -15 -14 -15 -25 0 -14 -5 -19 -15 -15 -8 4 -15 12 -15 20 0 8 -3 13
-8 12 -15 -6 -63 41 -77 76 -19 44 -35 47 -35 5 0 -24 4 -30 15 -25 18 6 20
-5 4 -21 -6 -6 -8 -17 -3 -24 5 -9 9 -8 15 7 6 16 8 14 14 -13 4 -18 13 -33
20 -33 7 0 16 -11 19 -25 4 -14 11 -25 16 -25 6 0 10 -7 10 -15 0 -8 5 -15 10
-15 6 0 10 -9 10 -20 0 -11 7 -20 15 -20 16 0 21 -43 9 -74 -7 -19 -24 -11
-24 10 0 8 -9 24 -20 36 -11 12 -20 27 -20 34 0 6 -14 17 -30 24 -25 10 -30
18 -30 46 0 36 -21 54 -62 54 -17 0 -19 -3 -9 -9 7 -5 11 -13 7 -19 -3 -5 1
-15 9 -22 8 -7 15 -18 15 -24 0 -6 9 -17 20 -24 31 -19 24 -32 -20 -32 -33 0
-40 -3 -40 -20 0 -13 7 -20 20 -20 19 0 20 -6 18 -60 -3 -75 10 -91 51 -67 25
15 30 15 41 2 11 -13 8 -15 -15 -15 -16 0 -36 -9 -46 -22 -16 -18 -23 -19 -43
-10 -18 8 -26 8 -28 0 -3 -7 -11 -9 -24 -4 -15 7 -16 9 -4 14 20 7 30 23 30
49 0 15 -5 21 -14 17 -8 -3 -17 0 -21 5 -9 16 -25 3 -25 -20 0 -12 -4 -17 -11
-13 -6 3 -9 14 -6 23 3 13 -3 18 -29 19 -38 3 -43 -12 -24 -64 17 -43 6 -58
-25 -38 -20 13 -25 24 -25 60 0 32 -4 44 -15 44 -11 0 -15 -12 -15 -45 0 -44
0 -44 -29 -39 -43 9 -80 -21 -81 -64 0 -20 6 -35 15 -38 8 -4 15 -18 15 -33 0
-36 29 -78 41 -60 6 10 9 4 9 -17 0 -23 -6 -34 -25 -42 -26 -12 -29 -10 -39
30 -6 25 -8 26 -36 17 -16 -6 -32 -19 -35 -30 -7 -22 -21 -25 -28 -7 -3 7 -3
-8 0 -34 l6 -48 -42 0 c-34 0 -41 -3 -41 -20 0 -16 7 -20 38 -20 41 0 67 -27
58 -58 -5 -14 -15 -16 -51 -14 -35 3 -45 1 -45 -11 0 -8 -6 -17 -13 -20 -7 -3
-19 -23 -26 -45 -8 -24 -21 -42 -32 -45 -11 -3 -17 -1 -14 3 3 5 -5 16 -17 25
-21 15 -24 14 -40 -5 -9 -11 -23 -20 -32 -20 -12 0 -16 -10 -16 -36 0 -26 -7
-43 -22 -56 l-23 -20 -3 24 c-2 18 -14 30 -42 42 -22 10 -40 24 -40 32 0 17
-1 17 -36 -1 -35 -18 -75 -20 -72 -3 2 7 -8 14 -22 16 -37 6 -50 20 -46 52 2
19 -2 31 -11 35 -8 3 -13 12 -9 20 3 8 1 17 -4 20 -5 3 -8 23 -5 43 2 20 7 60
10 87 15 119 84 281 166 385 47 61 185 218 207 237 8 6 12 16 11 22 -2 5 -26
-7 -53 -27 -27 -20 -57 -42 -67 -48 -11 -6 -16 -14 -12 -17 3 -4 1 -7 -5 -7
-7 0 -38 -28 -70 -62 -31 -34 -65 -70 -76 -81 -48 -51 -133 -187 -211 -341
-47 -93 -85 -177 -85 -186 0 -9 -9 -25 -20 -35 -11 -10 -20 -23 -20 -29 0 -6
-7 -24 -15 -40 -13 -24 -13 -31 -3 -38 9 -5 7 -8 -8 -8 -17 0 -24 -10 -34 -45
-7 -25 -17 -45 -22 -45 -10 0 -47 -77 -48 -98 0 -7 5 -10 10 -7 6 3 14 4 20 0
14 -9 -9 -52 -31 -58 -12 -3 -17 -11 -13 -20 3 -10 -1 -17 -13 -20 -10 -3
2098 -5 4685 -6 l4702 -1 0 3070 c0 2917 -1 3070 -17 3070 -10 0 -27 3 -38 6
-14 3 -23 -2 -30 -17 -21 -48 -39 -28 -48 56 -3 28 -17 36 -54 29 -22 -4 -33
-2 -33 5 0 7 6 11 13 9 6 -1 29 1 50 6 41 8 57 32 57 86 0 26 -4 29 -45 36
-25 3 -56 3 -70 0 -20 -5 -23 -3 -18 10 4 12 0 15 -18 13 -13 -1 -40 7 -59 19
-19 12 -45 22 -57 22 -12 0 -25 5 -28 10 -3 6 -17 10 -29 10 -13 0 -35 9 -49
20 -14 11 -32 20 -41 20 -9 0 -16 5 -16 10 0 6 -11 10 -24 10 -14 0 -27 4 -30
9 -3 5 -28 14 -56 21 -27 7 -50 16 -50 21 0 5 -9 9 -21 9 -11 0 -33 8 -47 18
-15 10 -58 31 -97 47 -38 16 -72 30 -74 32 -3 2 15 20 40 41 136 115 210 201
303 351 15 25 34 49 41 53 7 4 18 28 25 53 7 25 18 45 25 45 8 0 15 3 17 8 2
4 28 20 58 36 49 26 60 28 117 22 54 -6 63 -4 63 9 0 9 -4 13 -10 10 -5 -3
-10 0 -10 7 0 8 15 19 33 26 17 6 44 23 60 37 15 14 32 23 37 20 11 -7 95 21
118 38 9 7 12 62 12 213 l0 204 -30 0 c-16 0 -30 5 -30 10 0 6 14 13 30 17
l30 6 0 2243 c0 2215 -1 2307 -30 2289 -11 -7 -6 27 8 52 9 17 9 28 -3 56 -8
20 -19 38 -24 41 -5 4 -15 32 -21 64 -7 31 -16 65 -21 74 -5 10 -9 26 -9 36 0
11 -5 33 -11 51 l-11 31 -2551 -1 -2552 -1 -95 -50z m3188 -560 c19 -19 14
-28 -16 -28 -15 0 -33 -5 -39 -11 -6 -6 -17 -9 -25 -6 -9 4 -6 8 9 12 11 4 23
15 26 26 6 22 27 25 45 7z m52 -38 c0 -5 -4 -10 -9 -10 -6 0 -13 5 -16 10 -3
6 1 10 9 10 9 0 16 -4 16 -10z m240 -10 c0 -5 -7 -10 -15 -10 -8 0 -15 5 -15
10 0 6 7 10 15 10 8 0 15 -4 15 -10z m-360 -21 c0 -13 71 -11 109 2 35 12 64
-2 54 -27 -4 -11 9 -14 70 -14 42 0 79 -4 82 -10 3 -5 18 -10 33 -10 15 0 36
-7 46 -15 11 -8 36 -15 55 -15 43 -1 119 -34 102 -45 -17 -10 6 -35 33 -35 11
0 34 -7 50 -15 37 -20 46 -19 46 4 0 26 13 33 45 25 24 -6 37 -44 15 -44 -5 0
-10 -4 -10 -10 0 -19 21 -10 30 13 5 12 9 16 9 10 1 -20 39 -53 61 -53 12 0
20 -7 20 -16 0 -15 2 -15 25 0 24 16 25 16 25 -4 0 -11 3 -20 8 -20 7 0 32
-48 32 -63 0 -12 -21 -32 -43 -40 -22 -8 -18 -31 6 -35 10 -2 17 3 17 12 0 23
13 20 40 -9 19 -21 21 -25 7 -25 -9 0 -17 -4 -17 -10 0 -14 23 -13 38 2 9 9
12 2 12 -32 0 -34 -3 -41 -12 -32 -14 14 -38 16 -38 2 0 -5 11 -12 25 -16 26
-7 35 -34 11 -34 -25 0 -29 -21 -6 -27 16 -4 18 -8 8 -14 -10 -7 -10 -9 0 -9
6 0 12 -7 12 -15 0 -8 -7 -15 -15 -15 -8 0 -15 -4 -15 -10 0 -5 5 -10 10 -10
33 0 50 -22 50 -64 0 -25 -4 -36 -15 -36 -12 0 -14 -8 -9 -40 4 -27 3 -40 -5
-40 -6 0 -11 -7 -11 -16 0 -11 -6 -15 -20 -11 -28 7 -47 -19 -32 -44 10 -16
10 -21 -3 -25 -20 -8 -19 -40 1 -48 12 -5 15 -21 14 -78 -1 -40 0 -86 3 -101
4 -23 0 -30 -19 -37 -13 -5 -24 -11 -24 -14 0 -2 -3 -12 -7 -21 -5 -14 -2 -16
15 -10 16 4 22 2 22 -9 0 -8 -5 -18 -11 -22 -6 -3 -9 -19 -6 -34 4 -17 0 -36
-10 -50 -12 -17 -13 -25 -5 -28 22 -7 12 -40 -25 -79 -58 -60 -76 -87 -61 -92
6 -2 14 2 16 9 3 9 6 9 13 -1 8 -12 12 -11 22 3 15 20 57 20 57 1 0 -7 -9 -13
-20 -13 -10 0 -23 -7 -28 -17 -6 -10 -16 -14 -26 -10 -12 5 -16 0 -16 -23 0
-34 16 -40 25 -9 4 13 12 18 22 15 8 -3 19 -6 24 -6 5 0 9 -7 9 -15 0 -11 11
-15 40 -15 22 0 40 4 40 9 0 18 40 22 62 7 12 -9 17 -16 10 -16 -18 0 -42 -25
-42 -43 0 -8 -7 -20 -15 -27 -8 -7 -15 -21 -15 -32 0 -12 -11 -23 -30 -29 -16
-6 -30 -15 -30 -20 0 -5 -4 -9 -10 -9 -5 0 -10 6 -10 14 0 8 -7 17 -16 20 -15
6 -15 8 1 26 18 20 18 21 -4 36 -17 12 -19 19 -11 29 14 16 -2 28 -25 19 -20
-8 -35 11 -35 44 0 12 -4 22 -10 22 -9 0 -35 -40 -28 -43 46 -23 57 -45 50
-103 -3 -22 -10 -34 -25 -38 -27 -7 -49 12 -42 35 4 11 2 19 -4 19 -6 0 -11
-11 -11 -24 0 -16 -7 -27 -20 -31 -11 -3 -20 -11 -20 -16 0 -5 -9 -9 -20 -9
-13 0 -20 -7 -20 -19 0 -24 -25 -45 -42 -34 -7 4 -37 8 -65 8 -44 0 -53 -3
-53 -17 0 -10 -4 -18 -9 -18 -5 0 -7 -9 -4 -19 6 -24 -13 -61 -33 -61 -12 0
-11 -6 5 -38 18 -36 18 -39 3 -67 -10 -17 -18 -31 -18 -33 -1 -2 -25 0 -53 4
-45 6 -51 9 -51 30 0 13 -5 24 -11 24 -5 0 -7 -4 -4 -10 9 -14 -23 -70 -41
-70 -10 0 -14 -7 -12 -22 2 -15 -3 -22 -17 -23 -11 -1 -27 -6 -36 -9 -10 -4
-23 -1 -32 8 -14 15 -70 17 -83 3 -3 -3 -8 -30 -11 -61 -4 -35 -10 -56 -18
-56 -7 0 -16 -11 -19 -24 -5 -20 -11 -24 -30 -20 -18 3 -26 -1 -31 -16 -3 -11
-14 -20 -23 -20 -13 0 -17 9 -16 40 2 46 -4 49 -29 15 -16 -23 -16 -24 0 -34
17 -10 17 -12 1 -21 -19 -12 -25 -49 -8 -51 6 -1 14 -2 19 -3 23 -3 20 -16 -7
-43 -24 -22 -30 -36 -29 -67 1 -26 -5 -42 -17 -51 -10 -8 -15 -18 -12 -23 8
-14 -16 -60 -39 -72 -11 -6 -30 -26 -43 -45 -13 -22 -31 -35 -45 -36 -18 -1
-16 -3 8 -9 25 -6 26 -8 7 -9 -18 -1 -22 -5 -17 -20 4 -12 0 -21 -12 -26 -17
-7 -17 -8 2 -15 16 -7 17 -9 3 -9 -10 -1 -19 -13 -23 -30 -4 -18 -15 -32 -28
-36 -22 -7 -22 -7 3 -14 24 -7 24 -7 -8 -20 -18 -7 -32 -17 -32 -22 0 -5 -7
-9 -15 -9 -8 0 -15 -5 -15 -11 0 -30 -51 -54 -77 -36 -6 4 -14 3 -19 -4 -4 -7
-2 -15 4 -17 7 -2 12 -14 12 -26 0 -22 -3 -23 -39 -16 -30 5 -41 4 -45 -6 -6
-15 -42 -19 -50 -6 -3 5 8 16 25 26 22 13 29 25 29 47 0 24 -4 29 -24 29 -31
0 -41 28 -20 51 15 17 15 19 1 19 -9 0 -19 -5 -22 -10 -4 -7 -13 -6 -27 1 -20
11 -19 13 26 53 37 34 46 49 46 75 0 18 7 39 16 48 11 12 14 26 9 54 -5 31 -3
40 9 45 24 9 41 45 26 54 -9 6 -9 13 -1 28 6 11 15 45 19 74 5 35 13 52 21 50
20 -4 51 8 51 20 0 5 -6 8 -14 5 -9 -4 -16 3 -20 16 -9 33 -7 59 3 53 5 -3 16
11 24 31 11 29 12 43 4 61 -10 21 -8 27 13 44 33 27 36 76 6 88 -17 7 -18 9
-3 9 10 1 17 9 17 22 0 18 -5 20 -45 18 -35 -2 -48 1 -60 16 -10 14 -14 16
-15 6 0 -28 -10 -3 -21 54 -13 70 -6 105 21 105 10 0 22 5 25 10 3 6 -3 10
-14 10 -64 0 -69 39 -8 62 23 9 34 17 24 17 -15 1 -17 6 -10 24 4 12 6 48 5
80 -3 46 0 57 12 57 9 0 16 7 16 15 0 8 -7 15 -15 15 -8 0 -17 11 -21 25 -4
15 -13 25 -24 25 -29 0 -35 38 -11 64 13 13 19 30 16 39 -7 18 -35 31 -35 17
0 -17 -52 -11 -73 7 -10 10 -24 18 -30 19 -7 0 -21 2 -32 3 -35 3 -50 17 -37
34 18 21 -9 42 -36 28 -21 -11 -20 -51 0 -51 6 0 5 -6 -2 -15 -6 -8 -9 -19 -5
-25 10 -16 -30 -50 -57 -49 -17 1 -18 3 -5 6 12 3 17 15 17 44 0 35 -2 39 -26
39 -16 0 -34 10 -45 24 -12 15 -26 22 -37 19 -22 -5 -49 31 -58 77 -4 16 -18
37 -33 46 -52 33 -72 56 -60 70 16 20 3 44 -24 44 -33 0 -67 27 -49 38 10 7 8
11 -8 15 -15 4 -21 11 -17 21 4 9 9 38 13 66 4 28 11 53 15 56 5 3 9 24 9 47
1 38 5 45 45 75 50 38 88 40 93 5 5 -34 33 -30 30 5 -3 23 1 27 26 30 28 3 28
3 24 -42 -2 -25 -2 -46 -1 -46 1 0 9 15 18 33 11 24 26 35 56 45 43 13 78 45
79 72 0 8 14 30 31 48 24 26 36 32 54 28 14 -4 29 -1 37 7 7 8 22 12 33 10 11
-3 5 3 -12 13 -21 10 -33 24 -33 36 0 13 5 18 14 15 7 -3 19 0 25 6 8 8 14 8
23 -1 18 -18 32 -15 43 10 6 12 23 29 40 38 29 16 75 16 75 -1 0 -18 15 -8 28
18 13 30 17 103 4 103 -11 0 5 142 16 149 5 3 15 19 23 35 8 16 18 28 23 27
13 -4 26 20 26 47 0 13 4 20 10 17 14 -9 70 17 71 32 1 7 2 19 3 26 1 8 22 13
59 15 40 2 64 9 77 22 18 18 60 18 60 -1z m470 2 c0 -20 -13 -41 -25 -41 -17
0 -38 27 -30 40 8 12 55 13 55 1z m-735 -31 c3 -5 1 -10 -4 -10 -6 0 -11 5
-11 10 0 6 2 10 4 10 3 0 8 -4 11 -10z m-45 -76 c0 -8 -10 -14 -25 -14 -23 0
-34 18 -19 32 10 10 44 -4 44 -18z m956 -22 c-10 -16 -46 -21 -46 -7 0 8 10
15 23 17 26 4 31 2 23 -10z m-1022 -47 c-9 -14 -23 -25 -30 -25 -8 0 -14 -4
-14 -10 0 -5 -4 -10 -10 -10 -17 0 -11 22 12 47 12 13 30 23 40 23 17 0 18 -1
2 -25z m1351 -155 c3 -5 1 -10 -4 -10 -6 0 -11 5 -11 10 0 6 2 10 4 10 3 0 8
-4 11 -10z m-1449 -23 c3 -21 -23 -34 -38 -19 -15 15 -1 44 19 40 9 -2 17 -11
19 -21z m-3051 -317 c3 -5 1 -10 -4 -10 -6 0 -11 5 -11 10 0 6 2 10 4 10 3 0
8 -4 11 -10z m140 0 c3 -5 -3 -10 -15 -10 -12 0 -18 5 -15 10 3 6 10 10 15 10
5 0 12 -4 15 -10z m2542 -56 c1 -5 -2 -16 -7 -24 -12 -20 -35 2 -26 25 6 17
27 16 33 -1z m-237 -70 c0 -8 -4 -12 -10 -9 -5 3 -10 10 -10 16 0 5 5 9 10 9
6 0 10 -7 10 -16z m-2710 -191 c0 -7 -7 -13 -15 -13 -15 0 -21 31 -8 43 8 8
23 -12 23 -30z m-213 -65 c-3 -8 -6 -5 -6 6 -1 11 2 17 5 13 3 -3 4 -12 1 -19z
m964 -47 c17 9 20 8 17 -3 -3 -7 -15 -15 -29 -16 -13 -2 -28 -8 -33 -13 -13
-12 -36 -12 -36 1 0 6 9 10 21 10 15 0 19 4 15 16 -3 9 -3 21 1 27 4 6 10 1
14 -12 8 -19 12 -20 30 -10z m-95 -96 c-3 -8 -10 -15 -16 -15 -14 0 -12 37 3
43 15 5 21 -8 13 -28z m184 -4 c0 -5 -7 -12 -16 -15 -22 -9 -24 -8 -24 9 0 8
9 15 20 15 11 0 20 -4 20 -9z m487 -263 c-2 -13 -4 -3 -4 22 0 25 2 35 4 23 2
-13 2 -33 0 -45z m1863 17 c0 -8 -7 -15 -15 -15 -26 0 -18 20 13 29 1 1 2 -6
2 -14z m-1827 -15 c3 -11 1 -20 -4 -20 -5 0 -9 9 -9 20 0 11 2 20 4 20 2 0 6
-9 9 -20z m3477 -109 c0 -6 -4 -13 -10 -16 -5 -3 -10 1 -10 9 0 9 5 16 10 16
6 0 10 -4 10 -9z m-2766 -86 c3 -8 9 -14 13 -13 12 3 83 -33 83 -43 0 -5 -11
-9 -24 -9 -13 0 -27 -6 -29 -12 -4 -10 -8 -10 -15 1 -7 9 -21 11 -49 6 l-40
-6 1 45 c1 43 3 46 27 46 15 0 29 -7 33 -15z m-99 -65 c19 -8 19 -9 -2 -9 -12
-1 -25 4 -28 9 -7 12 2 12 30 0z m1295 -10 c0 -5 -4 -10 -10 -10 -5 0 -10 5
-10 10 0 6 5 10 10 10 6 0 10 -4 10 -10z m39 -32 l-1 -43 -13 30 c-18 39 -18
55 0 55 11 0 15 -11 14 -42z m-2199 -178 c0 -5 -2 -10 -4 -10 -3 0 -8 5 -11
10 -3 6 -1 10 4 10 6 0 11 -4 11 -10z m265 -150 c3 -5 24 -10 46 -10 35 0 39
-2 39 -26 0 -23 2 -25 15 -14 13 11 19 9 38 -7 12 -11 30 -23 40 -26 9 -4 17
-12 17 -20 0 -20 -39 -97 -50 -97 -5 0 -12 23 -16 50 -7 52 -10 56 -34 40 -12
-8 -11 -13 8 -33 23 -25 20 -37 -9 -37 -10 0 -23 -13 -31 -30 -15 -35 -31 -37
-73 -11 -45 27 -175 158 -175 175 0 22 29 34 90 40 29 3 55 8 58 11 9 8 30 6
37 -5z m2775 -56 c0 -14 -4 -23 -9 -20 -5 3 -7 15 -4 26 7 28 13 25 13 -6z
m-2306 -40 c22 -8 20 -57 -3 -78 -17 -16 -19 -15 -30 13 -10 22 -10 34 -1 50
12 23 12 23 34 15z m1583 -10 c-3 -3 -12 -4 -19 -1 -8 3 -5 6 6 6 11 1 17 -2
13 -5z m-1307 -178 c7 -14 24 -30 39 -36 14 -6 33 -26 42 -44 29 -57 4 -135
-38 -119 -8 3 -24 1 -36 -5 -46 -22 -145 -20 -175 3 -2 2 22 37 52 79 30 42
58 86 62 99 7 25 23 47 34 47 3 0 12 -11 20 -24z m-1630 -86 c0 -11 -4 -20
-10 -20 -5 0 -10 9 -10 20 0 11 5 20 10 20 6 0 10 -9 10 -20z m1802 -107 c27
-24 23 -43 -9 -42 -16 0 -36 4 -46 7 -17 7 -17 8 0 30 22 26 31 27 55 5z
m-1605 -29 c-3 -3 -12 -4 -19 -1 -8 3 -5 6 6 6 11 1 17 -2 13 -5z m2586 -24
c-3 -12 -8 -19 -11 -16 -5 6 5 36 12 36 2 0 2 -9 -1 -20z m-1517 -151 c11 -18
-1 -19 -72 -6 l-69 14 67 1 c37 0 71 -4 74 -9z m4124 -19 c0 -5 -9 -10 -20
-10 -11 0 -20 5 -20 10 0 6 9 10 20 10 11 0 20 -4 20 -10z m58 -167 c6 -25 6
-43 1 -43 -5 0 -9 12 -10 28 0 26 -1 26 -9 5 -5 -13 -14 -23 -21 -23 -6 0 -9
7 -5 15 3 8 -3 19 -12 25 -15 9 -15 10 6 16 15 4 19 9 12 14 -8 5 -9 20 -4 45
l7 38 13 -39 c7 -21 17 -58 22 -81z m-81 40 c-3 -10 -5 -2 -5 17 0 19 2 27 5
18 2 -10 2 -26 0 -35z m-1047 -88 c0 -27 -24 -49 -45 -41 -8 3 -15 15 -15 26
0 11 -6 20 -12 21 -7 0 0 7 17 14 37 16 55 10 55 -20z m-310 20 c0 -7 -39 -45
-46 -45 -3 0 -2 6 3 13 4 6 8 15 9 20 1 4 2 9 3 12 0 3 8 5 16 5 8 0 15 -2 15
-5z m-1242 -27 c-3 -7 -14 -14 -26 -16 -16 -3 -20 1 -16 12 7 19 48 22 42 4z
m2670 6 c20 -6 22 -12 22 -83 -1 -57 -3 -72 -11 -58 -6 9 -7 27 -4 38 4 11 1
26 -5 34 -6 8 -9 19 -5 25 7 12 -19 42 -29 33 -3 -4 -6 -1 -6 5 0 13 5 14 38
6z m-1560 -119 c1 -41 -2 -75 -6 -75 -19 0 -53 54 -56 88 -4 38 13 61 44 62
12 0 16 -15 18 -75z m740 59 c36 -9 52 -23 52 -45 0 -9 6 -24 13 -31 16 -17
14 -45 -6 -84 -20 -39 -29 -46 -101 -74 -55 -22 -148 -32 -162 -17 -4 3 14 29
38 56 31 34 52 71 68 118 26 78 38 96 58 88 7 -3 26 -8 40 -11z m-1034 -32 c2
-4 1 -14 -4 -22 -7 -11 -12 -12 -21 -3 -6 6 -8 16 -5 22 8 13 23 14 30 3z
m-704 -12 c0 -5 -5 -10 -11 -10 -5 0 -7 5 -4 10 3 6 8 10 11 10 2 0 4 -4 4
-10z m-63 -17 c2 -6 -5 -13 -17 -16 -15 -4 -20 0 -20 13 0 19 31 22 37 3z
m-103 -2 c3 -5 -1 -14 -9 -21 -13 -10 -15 -9 -15 9 0 21 14 28 24 12z m-1759
-101 c3 -5 1 -10 -4 -10 -6 0 -11 5 -11 10 0 6 2 10 4 10 3 0 8 -4 11 -10z
m965 -331 c0 -11 -7 -19 -16 -19 -11 0 -14 5 -10 16 3 9 6 20 6 25 0 6 5 7 10
4 6 -3 10 -15 10 -26z m-36 12 c7 -10 -33 -23 -46 -15 -5 3 -6 10 -3 15 8 12
42 12 49 0z m3606 -371 c0 -11 -9 -62 -19 -113 -11 -50 -29 -139 -40 -197 -38
-195 -76 -343 -88 -348 -17 -5 -16 13 10 156 l23 122 -48 0 c-39 0 -48 -3 -48
-17 0 -17 -75 -351 -103 -458 -11 -43 -17 -50 -40 -53 -20 -3 -27 1 -27 14 0
18 31 157 55 249 16 57 55 236 55 248 0 4 -9 7 -20 7 -11 0 -20 5 -20 10 0 6
9 10 19 10 11 0 23 5 27 12 4 7 24 84 43 172 36 158 37 161 64 164 36 4 35
-11 -3 -171 -39 -163 -39 -167 4 -167 18 0 38 6 43 13 6 6 25 86 43 177 17 91
36 171 42 178 15 18 28 15 28 -8z m-1662 -175 c9 0 17 -7 17 -15 0 -8 7 -15
15 -16 34 -2 39 -5 35 -16 -4 -9 9 -14 41 -16 25 -1 62 -9 81 -17 27 -11 38
-12 44 -4 8 13 29 4 29 -13 0 -14 31 -37 48 -38 8 0 25 -9 38 -19 17 -13 34
-17 58 -14 19 2 37 0 41 -6 9 -16 25 -13 25 5 0 8 4 13 8 10 5 -3 26 -6 46 -8
25 -1 44 -10 56 -25 21 -27 33 -29 50 -8 7 8 26 15 42 15 21 0 31 6 35 19 6
25 69 36 90 16 17 -18 19 -18 46 -3 12 6 39 13 60 14 33 2 37 0 32 -17 -4 -11
-2 -19 4 -19 6 0 11 13 11 30 0 21 -4 28 -14 24 -8 -3 -17 -1 -21 5 -3 6 -19
11 -36 11 -30 0 -36 13 -19 40 8 13 10 12 10 -3 0 -16 3 -16 37 -2 26 11 38
12 44 4 5 -8 8 -8 13 0 11 18 26 13 26 -10 0 -11 5 -29 11 -41 6 -11 8 -31 5
-44 -5 -19 -13 -24 -36 -24 -20 0 -30 -5 -30 -15 0 -12 7 -14 28 -9 15 4 29
11 30 16 2 4 10 8 18 8 8 0 14 9 14 20 0 16 7 20 30 20 30 0 40 -13 19 -26 -8
-4 -7 -9 2 -15 11 -7 9 -12 -8 -24 -19 -13 -20 -19 -12 -45 6 -16 19 -32 30
-35 21 -7 25 -25 8 -42 -7 -7 -3 -10 16 -10 14 0 29 -3 32 -7 10 -10 -19 -37
-34 -32 -11 5 -13 0 -7 -17 4 -12 9 -24 13 -27 3 -3 6 -11 6 -19 0 -8 5 -16
12 -18 7 -3 9 3 6 16 -4 14 -1 21 10 21 12 0 14 -16 12 -94 -2 -51 -8 -103
-14 -114 -6 -12 -11 -36 -10 -54 1 -54 -8 -102 -20 -106 -6 -2 -11 -10 -11
-18 0 -8 -6 -14 -14 -14 -9 0 -16 -12 -18 -27 -2 -18 -10 -29 -23 -32 -11 -2
-31 -16 -45 -31 -30 -33 -84 -62 -123 -67 -16 -2 -36 -10 -44 -19 -10 -9 -24
-13 -37 -10 -54 15 -96 18 -96 7 0 -6 -8 -11 -18 -11 -10 0 -26 -10 -37 -22
-18 -22 -20 -22 -23 -4 -3 16 -11 18 -56 13 -60 -6 -93 6 -63 24 24 14 21 29
-5 26 -17 -2 -23 5 -29 33 -4 19 -12 36 -18 38 -6 2 -8 14 -5 27 4 17 0 27
-15 37 -12 7 -21 23 -21 36 0 15 -7 26 -19 29 -21 5 -39 55 -22 61 6 2 11 17
11 34 0 29 -2 30 -31 24 -19 -4 -38 -1 -46 6 -12 10 -11 13 7 23 l22 12 -24
15 c-14 9 -35 18 -49 20 -23 3 -24 5 -22 80 l3 77 -28 -3 c-15 -2 -19 -1 -9 1
9 2 17 9 17 15 0 5 -6 8 -14 5 -7 -3 -18 -1 -23 4 -6 6 -23 11 -39 12 -23 2
-29 7 -29 27 0 14 -8 29 -20 35 -12 5 -34 22 -50 38 -17 15 -33 27 -36 27 -4
0 -13 20 -20 45 -13 43 -33 59 -41 33 -7 -21 -47 28 -41 51 4 16 2 20 -10 16
-22 -9 -30 24 -11 52 10 16 13 34 9 50 -3 14 -2 22 3 19 5 -3 18 4 28 15 18
19 19 20 31 2 8 -10 21 -18 31 -18z m-122 -15 c13 0 15 -3 7 -11 -17 -17 -53
-1 -53 24 1 20 2 21 14 5 7 -10 21 -18 32 -18z m-1940 -125 c12 -16 18 -17 33
-8 15 9 23 6 46 -20 28 -32 60 -105 51 -115 -3 -3 -12 1 -21 8 -13 11 -15 9
-15 -14 0 -20 -4 -26 -17 -24 -13 2 -19 -5 -21 -24 -2 -16 -8 -28 -13 -28 -5
0 -9 6 -8 13 4 31 -2 77 -10 77 -5 0 -12 -17 -16 -37 -5 -27 -9 -33 -16 -22
-8 12 -10 12 -19 -1 -8 -12 -10 -11 -10 6 0 17 -8 23 -35 28 -21 4 -35 13 -35
21 0 8 -6 15 -14 15 -26 0 -46 30 -40 58 4 15 11 32 16 39 6 7 5 14 -3 19 -21
12 29 31 83 30 37 -1 53 -6 64 -21z m568 10 c-5 -12 2 -15 34 -15 23 0 43 -4
46 -9 3 -5 31 -12 62 -16 32 -4 64 -9 73 -12 14 -4 14 -3 1 6 -8 5 -11 13 -7
17 4 4 13 2 19 -4 17 -17 49 -15 64 6 7 9 14 12 14 5 0 -6 15 -15 32 -19 18
-3 37 -13 43 -21 6 -7 28 -15 50 -16 33 -2 41 -7 43 -25 2 -14 10 -22 22 -22
18 0 98 -27 110 -37 2 -2 -2 -8 -10 -13 -12 -8 -13 -13 -2 -30 16 -26 15 -40
-1 -40 -8 0 -19 -12 -26 -27 -9 -18 -15 -23 -23 -15 -7 7 -19 7 -37 1 -32 -13
-41 -26 -41 -62 0 -22 -5 -29 -29 -33 -17 -4 -32 -12 -35 -20 -7 -19 -60 -18
-76 1 -7 8 -18 15 -24 15 -6 0 -17 14 -25 31 -12 28 -15 29 -30 15 -10 -9 -27
-16 -38 -16 -23 0 -40 30 -23 40 17 11 -11 27 -42 25 -15 -1 -25 2 -22 7 8 13
-16 38 -37 38 -11 0 -16 5 -13 14 9 23 -22 25 -66 4 -28 -14 -38 -23 -29 -29
10 -6 10 -11 0 -23 -19 -23 -51 -20 -51 3 0 20 -48 61 -71 61 -9 0 -8 5 4 18
14 14 19 14 26 4 6 -11 10 -10 15 4 4 10 0 24 -9 34 -15 17 -11 50 6 50 5 0 9
7 9 15 0 8 -4 15 -10 15 -5 0 -10 9 -10 20 0 22 10 26 27 9 6 -6 21 -9 34 -7
19 2 23 8 21 27 -1 14 3 28 10 33 20 12 28 10 22 -7z m171 -15 c-3 -5 -10 -10
-16 -10 -5 0 -9 5 -9 10 0 6 7 10 16 10 8 0 12 -4 9 -10z m-305 -30 c0 -5 -7
-10 -16 -10 -8 0 -12 5 -9 10 3 6 10 10 16 10 5 0 9 -4 9 -10z m-145 -111 c4
-11 5 -23 2 -26 -12 -11 -47 10 -47 28 0 26 37 25 45 -2z m-115 -514 c0 -8 -7
-15 -15 -15 -16 0 -20 12 -8 23 11 12 23 8 23 -8z m-2280 -71 c0 -8 -4 -12
-10 -9 -5 3 -10 10 -10 16 0 5 5 9 10 9 6 0 10 -7 10 -16z m1240 -24 c0 -6
-11 -10 -25 -10 -14 0 -25 4 -25 8 0 4 11 9 25 10 14 1 25 -3 25 -8z m-1323
-57 c-3 -10 -5 -2 -5 17 0 19 2 27 5 18 2 -10 2 -26 0 -35z m2360 41 c-3 -3
-12 -4 -19 -1 -8 3 -5 6 6 6 11 1 17 -2 13 -5z m46 -27 c4 -10 -3 -12 -24 -9
-16 2 -26 8 -23 13 8 14 41 11 47 -4z m2317 3 c0 -5 -2 -10 -4 -10 -3 0 -8 5
-11 10 -3 6 -1 10 4 10 6 0 11 -4 11 -10z m-1750 -20 c0 -11 4 -20 10 -20 5 0
7 -7 5 -15 -16 -51 -13 -49 -40 -31 -15 10 -31 13 -38 9 -7 -4 -25 -8 -42 -8
-24 0 -29 -4 -27 -19 2 -11 -1 -16 -10 -13 -7 2 -12 10 -10 17 2 7 -3 17 -10
22 -11 8 -10 11 1 15 7 3 20 13 29 23 8 10 21 16 27 13 7 -2 16 1 20 7 4 6 15
8 25 5 10 -3 21 -1 25 5 11 18 35 11 35 -10z m-440 -8 c-1 -19 -18 -29 -50
-27 -19 1 -38 -3 -42 -9 -5 -8 -11 -7 -20 2 -9 9 -9 12 0 12 7 0 12 6 12 14 0
10 14 14 50 14 28 1 50 -2 50 -6z m-1590 -16 c0 -3 -4 -8 -10 -11 -5 -3 -10
-1 -10 4 0 6 5 11 10 11 6 0 10 -2 10 -4z m1460 -6 c0 -5 -2 -10 -4 -10 -3 0
-8 5 -11 10 -3 6 -1 10 4 10 6 0 11 -4 11 -10z m385 -20 c-3 -5 -12 -10 -18
-10 -7 0 -6 4 3 10 19 12 23 12 15 0z m-415 -8 c0 -13 -12 -22 -22 -16 -10 6
-1 24 13 24 5 0 9 -4 9 -8z m2570 -62 c0 -5 -7 -10 -15 -10 -8 0 -15 5 -15 10
0 6 7 10 15 10 8 0 15 -4 15 -10z m-2110 -40 c0 -5 -7 -10 -15 -10 -8 0 -15 5
-15 10 0 6 7 10 15 10 8 0 15 -4 15 -10z m65 -20 c3 -5 1 -10 -4 -10 -6 0 -11
5 -11 10 0 6 2 10 4 10 3 0 8 -4 11 -10z m65 0 c0 -5 -5 -10 -11 -10 -5 0 -7
5 -4 10 3 6 8 10 11 10 2 0 4 -4 4 -10z m-40 -30 c0 -5 -7 -10 -15 -10 -8 0
-15 5 -15 10 0 6 7 10 15 10 8 0 15 -4 15 -10z m-440 -50 c0 -13 -5 -18 -15
-14 -8 4 -15 12 -15 20 0 8 7 14 15 14 8 0 15 -9 15 -20z m-1070 -55 c0 -8 -4
-15 -10 -15 -5 0 -10 7 -10 15 0 8 5 15 10 15 6 0 10 -7 10 -15z m193 -16 c39
-16 78 -36 87 -43 8 -7 40 -16 71 -20 31 -3 69 -13 85 -21 16 -8 36 -15 44
-15 26 0 104 -33 127 -53 16 -14 35 -19 68 -19 26 1 78 -10 118 -24 40 -13
101 -34 137 -45 36 -11 76 -26 90 -33 14 -8 75 -16 140 -19 105 -6 212 -20
250 -33 8 -3 49 -7 90 -8 141 -6 290 -19 290 -25 0 -4 -11 -23 -25 -44 -27
-39 -70 -67 -105 -67 -12 0 -25 -10 -31 -24 -21 -46 -179 -93 -227 -67 -15 8
-22 8 -22 1 0 -6 -12 -22 -27 -35 -27 -23 -35 -24 -159 -25 -126 0 -145 3
-193 34 -8 5 -62 11 -119 12 -123 3 -189 23 -250 72 -32 26 -44 44 -48 72 l-6
37 -67 6 c-81 7 -168 44 -205 88 -22 25 -26 41 -27 92 0 34 -3 55 -6 47 -12
-30 -37 -39 -87 -33 -28 3 -56 12 -63 19 -16 16 -56 171 -49 190 8 21 40 17
119 -17z m-403 -53 c0 -7 9 -16 21 -19 12 -3 18 -10 15 -15 -3 -6 3 -20 13
-33 14 -17 17 -29 10 -41 -14 -25 -33 -22 -49 7 -10 19 -17 22 -30 15 -16 -9
-18 -5 -13 33 2 23 6 48 9 55 5 16 24 15 24 -2z m83 -146 c-4 -13 1 -26 12
-34 13 -9 16 -20 11 -39 -5 -23 -3 -27 14 -27 22 0 29 35 8 43 -10 4 -10 7 0
18 19 20 35 -3 38 -56 1 -37 -2 -45 -17 -45 -10 0 -21 5 -24 10 -3 6 -14 10
-23 10 -26 0 -46 39 -48 93 -2 40 0 47 16 47 13 0 17 -5 13 -20z m157 -182 c8
2 11 -4 7 -19 -4 -15 0 -27 11 -35 14 -11 15 -15 3 -26 -10 -9 -15 -10 -18 -2
-2 7 -12 10 -22 7 -27 -7 -33 9 -25 67 6 47 8 49 19 28 6 -13 17 -22 25 -20z
m91 -128 c19 -11 28 -70 10 -70 -13 0 -32 26 -24 33 3 4 -2 9 -11 13 -18 7
-22 34 -5 34 6 0 19 -5 30 -10z m-2944 -75 c-21 -20 -37 -31 -37 -26 0 15 60
74 67 67 4 -3 -10 -22 -30 -41z m7178 6 c3 -5 1 -12 -5 -16 -5 -3 -10 1 -10 9
0 18 6 21 15 7z m-3750 -11 c-3 -5 -12 -10 -20 -10 -8 0 -17 5 -20 10 -4 6 5
10 20 10 15 0 24 -4 20 -10z m-56 -7 c-4 -22 2 -43 11 -43 6 0 28 11 50 25 59
37 103 34 154 -12 22 -21 40 -41 39 -45 -2 -4 13 -10 31 -14 19 -3 37 -12 40
-20 3 -8 12 -14 21 -14 8 0 15 -4 15 -9 0 -16 48 -21 92 -10 24 5 58 11 76 13
18 1 37 7 41 14 11 18 75 26 97 13 14 -8 15 -11 4 -11 -12 0 -12 -2 -2 -9 8
-5 33 -6 56 -4 36 5 43 2 55 -20 14 -27 6 -71 -11 -61 -6 4 -8 2 -4 -4 8 -13
-20 -42 -40 -42 -7 0 -17 -12 -20 -26 -4 -17 -11 -23 -22 -19 -8 3 -26 -2 -40
-11 -19 -12 -27 -14 -30 -5 -2 7 -11 3 -24 -11 -12 -14 -15 -24 -8 -26 8 -3 8
-8 -1 -18 -12 -15 -50 -18 -123 -8 -38 6 -45 10 -41 24 3 9 -1 23 -10 30 -8 7
-15 17 -15 22 0 5 -7 16 -15 24 -16 17 -35 11 -35 -10 0 -8 -7 -19 -15 -26
-12 -10 -15 -10 -15 1 0 10 -5 9 -17 -4 -16 -16 -19 -15 -46 15 -26 31 -29 32
-41 16 -18 -25 -37 -22 -65 8 -19 20 -31 24 -53 20 -23 -5 -28 -2 -28 14 0 11
-5 20 -11 20 -8 0 -8 4 -2 13 6 6 12 21 15 32 4 16 -1 20 -20 22 -14 0 -29 8
-34 17 -12 22 -28 11 -21 -14 3 -11 1 -20 -5 -20 -18 0 -22 43 -5 55 14 11 13
14 -7 28 -26 18 -37 67 -16 67 8 0 19 7 26 15 14 16 21 19 19 8z m3834 -118
c-10 -13 -24 -25 -32 -25 -10 0 -7 8 9 25 30 32 46 32 23 0z m-5719 -41 c4
-10 1 -14 -6 -12 -15 5 -23 28 -10 28 5 0 13 -7 16 -16z m-1664 -4 c0 -5 -19
-31 -42 -58 -24 -27 -67 -83 -97 -125 -30 -42 -56 -75 -58 -73 -5 5 59 110 69
114 4 2 8 12 8 22 0 10 25 43 55 74 57 57 65 63 65 46z m-460 -154 c0 -2 -7
-9 -15 -16 -12 -10 -15 -10 -15 4 0 9 7 16 15 16 8 0 15 -2 15 -4z m4296 -50
c0 -14 -5 -21 -9 -17 -4 4 -5 15 -1 24 9 24 12 21 10 -7z m101 8 c-3 -3 -12
-4 -19 -1 -8 3 -5 6 6 6 11 1 17 -2 13 -5z m-2047 -69 c0 -8 -7 -15 -16 -15
-14 0 -14 3 -4 15 7 8 14 15 16 15 2 0 4 -7 4 -15z m1560 -439 c0 -3 -4 -8
-10 -11 -5 -3 -10 -1 -10 4 0 6 5 11 10 11 6 0 10 -2 10 -4z m195 -35 c7 -12
-12 -24 -25 -16 -11 7 -4 25 10 25 5 0 11 -4 15 -9z m125 5 c0 -2 -7 -6 -15
-10 -8 -3 -15 -1 -15 4 0 6 7 10 15 10 8 0 15 -2 15 -4z m-5063 -38 c-3 -8 -6
-5 -6 6 -1 11 2 17 5 13 3 -3 4 -12 1 -19z m33 -18 c0 -5 -2 -10 -4 -10 -3 0
-8 5 -11 10 -3 6 -1 10 4 10 6 0 11 -4 11 -10z m4970 6 c0 -3 -4 -8 -10 -11
-5 -3 -10 -1 -10 4 0 6 5 11 10 11 6 0 10 -2 10 -4z m-4843 -28 c-3 -8 -6 -5
-6 6 -1 11 2 17 5 13 3 -3 4 -12 1 -19z m4768 -68 c19 -8 19 -9 -2 -9 -12 -1
-25 4 -28 9 -7 12 2 12 30 0z m55 -34 c0 -3 -4 -8 -10 -11 -5 -3 -10 -1 -10 4
0 6 5 11 10 11 6 0 10 -2 10 -4z m-5353 -432 c-3 -3 -12 -4 -19 -1 -8 3 -5 6
6 6 11 1 17 -2 13 -5z m4547 -130 c-3 -11 -19 -25 -35 -31 -17 -7 -33 -21 -36
-33 -3 -12 -11 -19 -18 -16 -8 3 -16 -2 -19 -10 -3 -9 -14 -14 -24 -12 -16 2
-146 -46 -164 -61 -13 -11 -88 0 -88 13 0 6 15 20 33 30 186 109 325 171 344
153 7 -7 10 -21 7 -33z m-3855 -118 c-12 -26 -24 -44 -27 -42 -3 3 6 26 19 50
30 58 37 52 8 -8z m5021 -42 c9 -23 15 -26 44 -21 l34 5 6 -66 c3 -37 7 -74 8
-83 1 -9 8 -14 16 -12 7 3 21 -2 32 -12 17 -16 20 -16 26 -2 3 9 12 13 21 10
10 -4 14 -2 10 4 -12 19 13 73 34 73 12 0 16 -5 13 -15 -4 -8 -1 -15 5 -15 7
0 22 -9 33 -20 l22 -20 -19 -57 c-14 -40 -35 -72 -72 -110 -28 -29 -55 -53
-60 -52 -10 3 -46 -12 -53 -21 -3 -3 -25 -12 -50 -19 -50 -15 -116 -56 -235
-147 -86 -65 -213 -150 -255 -170 -8 -4 -17 -10 -20 -14 -5 -6 -148 -95 -234
-146 -84 -50 -184 -98 -266 -129 -143 -55 -295 -117 -300 -125 -3 -3 -13 -9
-22 -13 -24 -8 -23 -24 2 -39 30 -19 27 -32 -17 -82 -7 -8 -9 -16 -6 -20 14
-14 44 -4 67 21 14 15 27 25 30 22 3 -2 10 -25 17 -51 11 -38 10 -49 -1 -63
-13 -15 -15 -15 -22 4 -12 32 -29 25 -26 -12 1 -17 -3 -41 -10 -52 -6 -11 -12
-14 -12 -7 0 23 -40 -11 -40 -35 0 -27 16 -39 24 -18 3 8 12 15 21 15 12 0 15
-10 13 -47 -3 -46 -4 -48 -30 -45 -30 4 -36 -6 -16 -26 9 -9 9 -12 0 -12 -7 0
-12 -14 -12 -35 0 -19 -8 -44 -17 -54 -16 -20 -17 -19 -30 6 -7 14 -13 32 -13
39 0 17 -17 19 -22 3 -3 -9 -10 -8 -24 1 -14 9 -34 10 -60 5 l-39 -7 33 -16
c17 -9 32 -19 32 -24 0 -14 -38 -9 -54 8 -17 16 -20 11 -17 -32 2 -15 -7 -23
-34 -31 -21 -7 -35 -7 -35 -2 0 7 -6 7 -17 0 -13 -7 -21 -5 -30 7 -11 15 -12
15 -13 -5 0 -15 6 -23 16 -23 13 0 15 -7 9 -40 -4 -26 -3 -40 4 -40 6 0 11 8
11 19 0 21 23 45 33 34 4 -3 7 -17 7 -30 0 -19 5 -23 30 -23 22 0 30 -5 30
-17 0 -10 7 -26 15 -36 7 -11 11 -25 9 -32 -3 -7 -1 -16 5 -20 6 -3 11 0 11 7
0 7 8 18 19 25 17 11 18 9 13 -32 -4 -36 -1 -44 14 -48 16 -4 15 -5 -4 -6 -20
-1 -21 -3 -10 -21 10 -15 10 -22 0 -32 -14 -14 -16 -108 -2 -108 24 0 7 -21
-32 -41 -24 -12 -44 -21 -46 -20 -6 5 -29 -17 -47 -44 l-19 -30 -8 30 -7 30 1
-30 c1 -64 -10 -74 -31 -28 -9 20 -15 23 -23 15 -7 -7 -20 -12 -30 -12 -9 0
-21 -6 -25 -13 -4 -6 -21 -19 -36 -27 -22 -11 -32 -12 -47 -2 -11 7 -42 12
-70 12 l-50 0 0 -36 c0 -19 -7 -43 -16 -52 -15 -14 -15 -17 0 -27 24 -18 19
-33 -8 -28 -17 4 -28 -2 -40 -18 l-16 -23 0 27 c0 31 -29 38 -50 12 -16 -19
-30 -19 -30 -1 0 7 -9 16 -21 19 -16 4 -19 11 -14 26 6 19 2 21 -39 21 -32 0
-46 -4 -46 -14 0 -14 -42 -26 -91 -26 -29 0 -29 0 -25 -57 2 -32 1 -41 -1 -20
-2 20 -8 37 -14 37 -5 0 -9 18 -9 40 0 29 -4 40 -15 40 -13 0 -14 4 -5 20 9
16 21 20 65 20 48 0 55 2 55 20 0 28 18 25 49 -8 l26 -27 3 28 c3 23 8 27 33
27 28 0 29 -2 29 -47 0 -46 13 -51 22 -8 5 20 5 20 13 1 6 -13 4 -21 -3 -24
-22 -7 -13 -34 11 -30 24 3 24 6 6 91 -12 57 -12 58 16 87 16 17 31 27 34 24
3 -3 -1 -9 -9 -14 -10 -7 -11 -10 -2 -10 6 0 12 -7 12 -16 0 -8 5 -12 10 -9 6
3 10 13 10 22 0 35 30 53 76 46 66 -9 94 2 94 36 0 31 -28 51 -41 29 -5 -7 -4
-14 1 -16 25 -9 6 -22 -30 -22 -32 0 -40 4 -40 18 0 10 4 22 9 28 5 5 12 19
16 32 5 16 2 22 -9 22 -9 0 -16 5 -16 10 0 6 -18 10 -40 10 -29 0 -40 4 -40
15 0 8 8 15 19 15 10 0 46 3 80 6 l61 7 0 -27 c0 -18 5 -26 13 -24 6 3 12 17
12 32 1 15 6 30 12 34 5 4 12 28 15 55 5 42 4 46 -10 35 -9 -8 -17 -9 -19 -3
-13 37 -22 39 -47 12 -21 -23 -23 -31 -15 -59 5 -18 9 -34 9 -35 0 -2 -11 -3
-24 -3 -23 0 -24 2 -15 35 7 23 7 41 0 53 -9 15 -10 14 -11 -6 0 -27 -18 -25
-34 2 -8 14 -8 20 1 23 27 10 58 44 46 49 -7 3 -13 23 -13 45 0 28 -4 39 -15
39 -18 0 -22 19 -30 143 l-6 97 25 0 c14 0 26 -5 26 -12 0 -8 6 -7 16 4 19 19
9 42 -13 34 -18 -7 -43 10 -43 30 0 16 46 19 55 3 5 -7 13 -4 26 7 24 22 14
37 -21 30 -33 -6 -42 1 -30 24 6 11 17 16 32 13 13 -2 32 3 43 11 17 13 18 15
3 16 -32 0 -35 60 -3 60 10 0 14 13 13 48 -1 49 18 118 40 140 15 16 15 27 2
53 -8 15 -7 21 4 25 20 8 16 64 -6 86 -10 10 -18 29 -18 42 0 13 -6 27 -12 29
-10 4 -10 7 -1 14 18 12 20 68 3 87 -10 13 -10 20 -2 28 16 16 15 28 -2 28
-11 0 -13 11 -11 43 2 23 4 45 4 50 1 4 7 6 14 5 7 -2 13 10 15 30 4 35 16 41
31 15 9 -14 12 -15 19 -5 6 9 20 11 46 7 24 -5 36 -3 36 4 0 6 -5 11 -10 11
-6 0 -10 10 -9 23 3 37 0 57 -11 57 -17 0 -50 39 -50 60 0 11 -7 20 -15 20 -8
0 -15 4 -15 9 0 5 7 11 15 15 9 3 15 0 15 -9 0 -9 10 -15 24 -15 13 0 26 -7
30 -15 9 -23 26 -18 26 9 0 19 4 22 23 19 19 -4 23 -10 19 -29 -3 -19 0 -24
16 -24 35 0 36 84 1 95 -20 7 -27 25 -9 25 13 0 13 77 -1 82 -6 2 -7 12 -1 27
9 24 9 24 20 -9 7 -18 12 -41 12 -50 0 -10 7 -21 15 -24 9 -3 15 -14 13 -23
-5 -28 37 -29 56 -1 22 31 20 46 -6 50 -25 4 -37 28 -14 28 9 0 16 6 16 13 0
27 26 67 43 67 9 0 17 7 17 15 0 8 5 15 10 15 6 0 10 -13 10 -30 0 -24 4 -30
21 -30 18 0 20 4 15 27 -5 17 -3 29 6 34 25 16 38 9 38 -22 0 -18 4 -28 10
-24 6 3 7 17 4 29 -4 16 0 25 11 30 14 5 15 9 6 20 -13 15 -10 18 38 43 33 18
49 16 56 -7 5 -16 15 -20 50 -20 25 0 45 -5 47 -12 3 -8 26 -11 71 -10 l67 3
0 -31 c0 -27 3 -30 30 -30 25 0 30 4 30 24 0 23 4 24 93 31 50 4 104 8 118 10
23 3 28 -2 33 -27 5 -24 9 -28 26 -23 12 4 20 2 20 -5 0 -7 9 -2 20 11 17 22
18 25 3 36 -9 7 -20 10 -24 7 -5 -3 -9 0 -9 5 0 6 11 11 25 11 14 0 25 5 25
10 0 13 37 50 50 50 6 0 10 -9 10 -20 0 -11 -6 -20 -14 -20 -21 0 -41 -29 -29
-41 7 -7 25 -6 58 6 38 13 50 13 56 3 4 -7 3 -16 -3 -19 -14 -9 -21 -69 -9
-69 5 0 11 6 14 13 3 9 7 9 19 0 12 -11 18 -9 35 10 11 12 23 35 27 51 5 22
11 27 26 23 11 -3 18 -1 14 4 -3 5 7 14 23 20 22 8 30 7 39 -5 6 -9 21 -16 33
-16 11 0 21 -4 21 -9 0 -6 12 -3 27 4 24 13 27 20 24 55 -2 33 0 39 13 34 9
-3 16 -15 16 -25 0 -25 20 -25 27 0 4 15 14 19 49 19 37 0 44 -3 44 -19 0 -23
16 -25 24 -3 4 9 0 22 -7 28 -18 14 -29 46 -16 46 5 0 14 -12 19 -26z m-2445
-14 c3 -5 17 -10 31 -10 14 0 22 -4 19 -10 -3 -5 -12 -10 -18 -10 -16 1 -65
39 -50 40 6 0 15 -4 18 -10z m2045 0 c0 -5 -4 -10 -10 -10 -5 0 -10 5 -10 10
0 6 5 10 10 10 6 0 10 -4 10 -10z m-4063 -32 c-3 -8 -6 -5 -6 6 -1 11 2 17 5
13 3 -3 4 -12 1 -19z m3783 18 c0 -3 -4 -8 -10 -11 -5 -3 -10 -1 -10 4 0 6 5
11 10 11 6 0 10 -2 10 -4z m-1685 -16 c3 -5 1 -10 -4 -10 -6 0 -11 5 -11 10 0
6 2 10 4 10 3 0 8 -4 11 -10z m1645 -10 c0 -5 -5 -10 -11 -10 -5 0 -7 5 -4 10
3 6 8 10 11 10 2 0 4 -4 4 -10z m504 -5 c-4 -8 -8 -15 -10 -15 -2 0 -4 7 -4
15 0 8 4 15 10 15 5 0 7 -7 4 -15z m-2164 -50 c0 -19 -4 -35 -10 -35 -11 0
-14 53 -3 63 11 12 13 8 13 -28z m130 -20 c0 -23 -39 -62 -48 -49 -4 6 -16 14
-26 17 -23 9 -15 18 27 34 43 16 47 15 47 -2z m-2858 -17 c-7 -7 -12 -8 -12
-2 0 14 12 26 19 19 2 -3 -1 -11 -7 -17z m3598 -29 c0 -5 -9 -9 -20 -9 -22 0
-23 1 -14 24 5 13 9 14 20 5 8 -6 14 -15 14 -20z m-3624 -51 c-9 -12 -16 -30
-16 -40 0 -10 -4 -18 -10 -18 -13 0 -13 10 4 41 7 14 17 39 21 55 8 26 9 27
12 7 3 -13 -3 -33 -11 -45z m3467 45 c-7 -2 -19 -2 -25 0 -7 3 -2 5 12 5 14 0
19 -2 13 -5z m-2803 -27 c0 -14 -4 -28 -10 -31 -5 -3 -10 -17 -10 -31 0 -14
-6 -24 -14 -24 -21 0 -27 -27 -10 -45 13 -12 14 -22 5 -45 -5 -16 -7 -29 -3
-29 18 3 27 -2 17 -9 -5 -4 -19 -25 -30 -47 -29 -58 -29 -58 -17 -51 12 7 6
-135 -7 -144 -14 -9 -34 -110 -28 -149 2 -21 0 -46 -6 -57 -6 -10 -12 -48 -14
-84 -12 -248 -19 -305 -53 -414 -7 -21 -5 -35 7 -53 15 -23 15 -27 0 -52 -12
-20 -14 -42 -10 -89 4 -45 2 -62 -6 -62 -8 0 -12 -14 -10 -43 2 -24 -1 -49 -5
-56 -5 -7 -4 -17 2 -23 6 -6 6 -24 1 -46 -5 -20 -9 -68 -9 -107 0 -49 -3 -65
-10 -55 -7 11 -10 0 -11 -40 -3 -94 -16 76 -24 315 -4 116 -9 254 -11 309 -4
116 20 382 39 426 4 8 16 66 26 129 11 62 27 124 36 137 8 13 15 34 15 46 0
44 33 193 45 203 6 6 18 40 25 78 7 40 19 71 28 76 13 7 14 12 3 24 -10 13 -9
20 4 41 22 33 45 34 45 2z m2383 9 c11 -7 26 -11 34 -8 11 4 14 2 9 -8 -3 -8
-9 -22 -12 -31 -4 -10 -14 -18 -24 -18 -10 0 -20 -6 -23 -14 -3 -7 -18 -13
-33 -13 -19 0 -38 -12 -60 -35 -27 -30 -40 -36 -88 -41 -58 -6 -64 -1 -46 32
9 19 -7 71 -22 71 -5 0 -8 11 -8 24 0 19 5 23 28 23 46 0 156 15 172 24 22 12
53 10 73 -6z m427 -35 c0 -23 -4 -30 -20 -30 -11 0 -20 4 -20 9 0 5 -9 13 -20
16 -37 12 -23 35 20 35 38 0 40 -2 40 -30z m-142 -1 c-19 -13 -28 -11 -28 5 0
9 7 12 21 9 16 -4 17 -8 7 -14z m-4094 -86 c4 -10 -1 -25 -14 -37 -18 -18 -20
-18 -20 -3 0 9 -7 17 -15 17 -8 0 -15 9 -15 20 0 15 7 20 29 20 18 0 31 -6 35
-17z m713 -40 c-3 -10 -15 -43 -26 -73 -11 -30 -20 -65 -21 -77 0 -12 -4 -24
-9 -28 -6 -3 -13 -26 -17 -50 -3 -25 -10 -48 -16 -51 -5 -3 -6 -14 -3 -24 6
-18 -11 -38 -22 -27 -4 5 10 63 37 147 5 14 20 64 35 113 15 48 31 87 37 87 6
0 8 -8 5 -17z m2753 2 c-7 -8 -16 -15 -21 -15 -5 0 -9 7 -9 15 0 9 9 15 21 15
18 0 19 -2 9 -15z m290 5 c0 -5 -2 -10 -4 -10 -3 0 -8 5 -11 10 -3 6 -1 10 4
10 6 0 11 -4 11 -10z m320 -40 c0 -5 -4 -10 -10 -10 -5 0 -10 5 -10 10 0 6 5
10 10 10 6 0 10 -4 10 -10z m-4113 -22 c-3 -8 -6 -5 -6 6 -1 11 2 17 5 13 3
-3 4 -12 1 -19z m3331 -5 c-10 -2 -18 -9 -18 -14 0 -6 -5 -7 -11 -3 -14 8 8
24 31 23 11 -1 10 -3 -2 -6z m439 1 c-3 -3 -12 -4 -19 -1 -8 3 -5 6 6 6 11 1
17 -2 13 -5z m-180 -10 c-3 -3 -12 -4 -19 -1 -8 3 -5 6 6 6 11 1 17 -2 13 -5z
m126 -89 c-3 -9 -8 -14 -10 -11 -3 3 -2 9 2 15 9 16 15 13 8 -4z m-219 -94 c3
-5 -1 -11 -9 -15 -9 -3 -15 0 -15 9 0 16 16 20 24 6z m106 -11 c0 -5 -4 -10
-10 -10 -5 0 -10 5 -10 10 0 6 5 10 10 10 6 0 10 -4 10 -10z m-2973 -112 c-3
-8 -6 -5 -6 6 -1 11 2 17 5 13 3 -3 4 -12 1 -19z m3386 -32 c6 -15 -1 -26 -15
-26 -4 0 -8 9 -8 20 0 23 15 27 23 6z m-3983 -226 c0 -5 -2 -10 -4 -10 -3 0
-8 5 -11 10 -3 6 -1 10 4 10 6 0 11 -4 11 -10z m3820 -125 c0 -18 -5 -25 -20
-25 -15 0 -20 7 -20 25 0 18 5 25 20 25 15 0 20 -7 20 -25z m215 -85 c-3 -5
-12 -7 -20 -3 -21 7 -19 13 6 13 11 0 18 -4 14 -10z m961 -5 c4 -8 15 -15 25
-15 16 0 19 -7 19 -43 l0 -43 -40 4 c-25 3 -40 9 -40 18 0 10 -8 12 -30 8 -25
-5 -30 -3 -30 12 0 26 10 38 45 57 38 20 44 21 51 2z m284 -45 c0 -5 -7 -10
-15 -10 -8 0 -15 5 -15 10 0 6 7 10 15 10 8 0 15 -4 15 -10z m90 -39 c0 -3 -4
-12 -9 -20 -7 -12 -13 -12 -24 -3 -20 17 -30 2 -11 -19 30 -33 -12 -54 -50
-26 -16 12 -17 16 -5 35 8 12 21 22 30 22 9 0 19 6 22 14 6 14 47 11 47 -3z
m-5533 -28 c-3 -10 -5 -4 -5 12 0 17 2 24 5 18 2 -7 2 -21 0 -30z m5666 1 c4
-7 14 -11 22 -8 12 5 15 -2 15 -29 0 -42 -5 -46 -45 -36 -16 3 -22 7 -12 8 22
1 22 12 -3 44 -11 14 -20 30 -20 36 0 13 32 2 43 -15z m108 -26 c-6 -13 -10
-16 -11 -8 0 8 -3 26 -7 40 -6 23 -6 24 10 8 13 -12 15 -22 8 -40z m-5741 21
c0 -11 -4 -17 -10 -14 -5 3 -10 13 -10 21 0 8 5 14 10 14 6 0 10 -9 10 -21z
m5327 -1 c-3 -8 -6 -5 -6 6 -1 11 2 17 5 13 3 -3 4 -12 1 -19z m814 -2 c5 3 7
10 4 15 -4 5 1 9 9 9 18 0 22 -45 6 -55 -6 -4 -10 -12 -9 -18 3 -19 -19 -67
-31 -67 -5 0 -10 -6 -10 -13 0 -48 -219 -282 -332 -353 -20 -13 -40 -29 -45
-36 -4 -7 -37 -33 -73 -57 -36 -24 -86 -61 -112 -83 -26 -21 -53 -38 -62 -38
-8 0 -19 -6 -23 -13 -13 -20 -93 -80 -100 -74 -3 4 -18 0 -34 -8 -16 -9 -32
-14 -36 -13 -19 4 -91 -24 -97 -37 -3 -8 -12 -15 -19 -15 -10 0 -16 -16 -19
-51 -5 -52 -27 -87 -47 -75 -8 5 -8 13 -1 27 9 15 7 19 -5 19 -11 0 -15 -11
-15 -40 0 -29 4 -40 15 -40 23 0 18 -16 -10 -34 -14 -9 -25 -23 -25 -30 0 -8
-3 -16 -7 -18 -5 -2 -20 -28 -36 -60 -15 -31 -34 -59 -42 -62 -10 -3 -26 11
-47 41 -29 44 -32 45 -41 26 -9 -21 -47 -39 -47 -22 0 5 -22 9 -50 9 l-50 0 0
-34 c0 -19 6 -36 13 -39 6 -2 8 -8 4 -13 -4 -5 -12 -2 -17 5 -6 11 -14 8 -34
-15 -23 -26 -25 -27 -26 -8 0 11 -5 25 -10 30 -8 8 -6 15 5 24 8 7 15 20 14
29 0 10 -2 11 -6 4 -2 -7 -16 -13 -29 -13 -26 0 -31 -9 -14 -26 8 -8 6 -15 -5
-24 -9 -7 -15 -28 -15 -51 0 -41 -6 -48 -24 -25 -17 22 -56 30 -56 12 0 -8 5
-18 10 -21 8 -5 7 -11 -1 -21 -17 -20 -29 -17 -29 7 0 12 -8 27 -17 34 -15 11
-15 15 6 49 13 20 27 36 32 36 5 0 11 11 15 25 3 14 10 25 15 25 5 0 7 10 4
23 -4 18 1 25 27 37 30 14 33 19 31 55 -3 45 9 64 50 82 26 12 38 43 17 43 -7
0 -7 7 0 21 9 16 8 25 -6 40 -16 18 -16 19 2 19 29 0 46 20 33 37 -19 22 7 43
48 37 28 -3 39 1 54 20 11 14 35 30 54 37 39 14 62 49 50 76 -8 16 -9 16 -12
-4 -4 -19 -11 -23 -44 -23 -32 0 -39 3 -39 19 0 15 8 21 32 23 30 3 33 7 40
48 5 26 4 48 -2 54 -13 13 -13 46 0 46 6 0 10 -7 10 -15 0 -8 7 -15 15 -15 18
0 75 28 75 36 0 3 -4 3 -9 0 -19 -12 -59 35 -71 84 -13 53 -20 59 -40 35 -17
-20 -27 -19 -40 5 -8 14 -8 26 0 41 8 15 8 24 0 34 -8 10 -8 14 2 18 10 4 10
7 -1 15 -7 5 -10 15 -7 21 4 6 2 11 -3 11 -6 0 -11 6 -11 13 0 8 14 11 45 9
35 -3 45 -1 45 11 0 8 7 20 15 27 13 11 15 5 15 -41 -1 -52 -1 -53 -15 -29
-13 22 -20 20 -16 -4 1 -5 -4 -13 -11 -18 -11 -6 -11 -10 1 -17 10 -7 9 -12
-8 -23 -19 -14 -20 -16 -5 -28 12 -11 20 -11 34 -3 22 14 40 -1 40 -34 0 -13
5 -23 11 -23 6 0 9 7 6 15 -4 8 -2 17 3 20 6 4 10 -3 10 -14 0 -29 14 -26 28
4 16 35 15 55 -2 55 -11 0 -13 9 -9 36 4 23 2 39 -6 44 -7 4 -11 18 -9 31 l3
24 23 -23 c21 -21 23 -30 18 -67 -4 -24 -3 -46 2 -49 8 -5 27 -77 36 -136 2
-14 4 -6 5 18 0 23 6 42 12 42 15 0 1 152 -15 162 -6 5 3 5 19 2 l30 -6 -2 50
c-1 36 3 52 13 56 8 3 14 -1 14 -9 0 -18 27 -20 33 -2 2 6 8 9 12 5 13 -12 -4
-38 -25 -38 -11 0 -20 -4 -20 -10 0 -13 23 -13 37 1 8 8 24 8 61 -1 47 -11 52
-10 76 11 14 12 26 28 26 34 0 7 8 19 18 27 16 15 19 14 42 -13 16 -19 33 -29
52 -29 26 0 28 3 29 38 1 20 0 52 -1 70 -2 39 4 40 26 6 13 -19 14 -28 5 -33
-8 -6 -9 -15 -2 -34 8 -21 7 -30 -6 -43 -16 -16 -15 -16 7 -9 25 8 49 32 50
49 0 4 16 5 35 2 20 -4 44 -2 55 4 19 10 23 8 33 -19 7 -20 17 -29 27 -26 8 2
27 7 43 11 15 3 27 13 27 23 1 14 2 14 11 -1 16 -28 49 -23 49 7 0 14 2 25 5
25 15 0 65 -32 75 -47 9 -17 11 -16 29 5 11 12 26 20 34 16 10 -3 16 4 21 23
7 33 89 99 94 77 2 -8 8 -12 13 -8z m-334 -18 c-3 -8 -6 -5 -6 6 -1 11 2 17 5
13 3 -3 4 -12 1 -19z m78 -28 c3 -5 1 -10 -4 -10 -6 0 -11 5 -11 10 0 6 2 10
4 10 3 0 8 -4 11 -10z m75 -10 c8 -5 11 -12 7 -16 -4 -4 -15 0 -24 9 -18 18
-8 23 17 7z m-5270 -4 c0 -3 -4 -8 -10 -11 -5 -3 -10 -1 -10 4 0 6 5 11 10 11
6 0 10 -2 10 -4z m4340 -32 c0 -19 -7 -42 -15 -50 -8 -9 -15 -12 -16 -7 -1 4
-2 27 -3 51 -2 35 1 42 16 42 14 0 18 -8 18 -36z m100 21 c0 -8 -4 -15 -9 -15
-5 0 -11 7 -15 15 -3 9 0 15 9 15 8 0 15 -7 15 -15z m146 -24 c-13 -20 -26
-11 -26 16 0 25 1 26 16 11 9 -9 13 -21 10 -27z m-4599 -33 c-3 -8 -6 -5 -6 6
-1 11 2 17 5 13 3 -3 4 -12 1 -19z m3428 2 c3 -5 -3 -10 -14 -10 -12 0 -21 5
-21 10 0 6 6 10 14 10 8 0 18 -4 21 -10z m-4131 -15 c-4 -8 -11 -12 -16 -9 -6
4 -5 10 3 15 19 12 19 11 13 -6z m4856 -115 c0 -5 -5 -10 -11 -10 -5 0 -7 5
-4 10 3 6 8 10 11 10 2 0 4 -4 4 -10z m-775 -39 c3 -5 1 -12 -5 -16 -5 -3 -10
1 -10 9 0 18 6 21 15 7z m717 -83 c-13 -13 -24 5 -16 27 7 16 8 16 17 0 6 -11
6 -20 -1 -27z m99 -31 c13 4 19 0 19 -11 0 -9 -8 -16 -19 -16 -11 0 -22 -6
-24 -12 -3 -7 -5 7 -5 32 0 25 3 35 5 24 3 -16 9 -20 24 -17z m-261 -9 c0 -8
-15 -13 -40 -13 -25 0 -40 5 -40 13 0 7 15 12 40 12 25 0 40 -5 40 -12z
m-1062 -26 c2 -7 -6 -12 -17 -12 -21 0 -27 11 -14 24 9 9 26 2 31 -12z m1251
-92 c21 0 31 6 36 23 7 20 8 18 12 -12 3 -19 11 -40 19 -48 18 -19 18 -43 -1
-43 -9 0 -15 9 -15 21 0 19 -5 21 -44 18 l-44 -4 1 75 c0 58 1 63 4 23 4 -51
5 -53 32 -53z m-1429 40 c0 -22 -4 -40 -10 -40 -5 0 -10 18 -10 40 0 22 5 40
10 40 6 0 10 -18 10 -40z m1160 3 c0 -27 -3 -34 -11 -26 -7 7 -9 23 -5 37 9
37 16 32 16 -11z m80 27 c0 -5 -2 -10 -4 -10 -3 0 -8 5 -11 10 -3 6 -1 10 4
10 6 0 11 -4 11 -10z m1389 -114 c14 -58 14 -56 -9 -56 -17 0 -20 7 -20 50 0
62 14 65 29 6z m-1303 -42 c-14 -15 -29 7 -20 30 6 15 8 15 19 -1 9 -12 9 -20
1 -29z m1194 21 c0 -8 5 -15 10 -15 6 0 10 -18 10 -40 0 -39 -1 -40 -33 -40
-27 0 -35 -5 -46 -32 l-14 -33 -5 30 c-2 16 1 31 7 33 6 2 11 11 11 19 0 19
41 93 52 93 4 0 8 -7 8 -15z m-2610 -19 c0 -2 -7 -9 -15 -16 -12 -10 -15 -10
-15 4 0 9 7 16 15 16 8 0 15 -2 15 -4z m950 -33 c0 -16 -28 -48 -36 -41 -2 3
-1 19 2 36 4 20 11 29 20 25 8 -3 14 -12 14 -20z m-1367 -23 c-7 -28 -13 -25
-13 6 0 14 4 23 9 20 5 -3 7 -15 4 -26z m227 0 c0 -13 12 -26 35 -37 19 -9 35
-20 35 -23 0 -3 -16 -14 -35 -23 -29 -14 -35 -22 -35 -49 -1 -30 -2 -31 -14
-15 -18 23 -25 22 -36 -8 -7 -18 -17 -25 -36 -25 -26 0 -26 1 -11 18 23 25 21
39 -4 45 -15 4 -23 0 -26 -13 -6 -22 -33 -36 -33 -17 0 7 -15 19 -32 26 -25
10 -29 15 -15 18 14 4 16 11 11 44 -6 35 -4 39 15 39 11 0 21 5 21 10 0 6 18
10 40 10 22 0 40 5 40 10 0 6 18 10 40 10 33 0 40 -3 40 -20z m1760 -30 c0 -5
-4 -10 -10 -10 -5 0 -10 5 -10 10 0 6 5 10 10 10 6 0 10 -4 10 -10z m941 -23
c-13 -13 -26 -3 -16 12 3 6 11 8 17 5 6 -4 6 -10 -1 -17z m-2534 -9 c-3 -8 -6
-5 -6 6 -1 11 2 17 5 13 3 -3 4 -12 1 -19z m2649 -35 c8 -3 14 -13 14 -22 -1
-14 -2 -14 -14 2 -7 9 -21 17 -30 17 -19 0 -20 14 -4 43 13 22 13 22 16 -6 2
-16 10 -31 18 -34z m-1109 22 c-13 -27 -27 -33 -27 -10 0 11 22 32 37 35 0 0
-4 -11 -10 -25z m-697 -34 c0 -6 -4 -13 -10 -16 -5 -3 -10 1 -10 9 0 9 5 16
10 16 6 0 10 -4 10 -9z m590 -21 c0 -5 -7 -10 -16 -10 -8 0 -12 5 -9 10 3 6
10 10 16 10 5 0 9 -4 9 -10z m-1973 -46 c-3 -3 -12 -4 -19 -1 -8 3 -5 6 6 6
11 1 17 -2 13 -5z m3053 -14 c0 -5 -4 -10 -10 -10 -5 0 -10 5 -10 10 0 6 5 10
10 10 6 0 10 -4 10 -10z m60 -2 c0 -23 -21 -88 -28 -88 -4 0 -14 6 -23 13 -15
11 -14 16 8 50 23 37 43 48 43 25z m100 -9 c0 -11 -4 -17 -10 -14 -5 3 -10 13
-10 21 0 8 5 14 10 14 6 0 10 -9 10 -21z m-5620 -79 c6 -36 15 -78 20 -95 5
-16 11 -55 14 -85 8 -72 -7 -28 -28 85 -8 44 -17 91 -20 105 -15 66 -17 85 -7
70 5 -8 14 -44 21 -80z m4368 19 c-25 -16 -28 -9 -11 24 17 31 18 31 21 8 2
-13 -2 -28 -10 -32z m-3348 25 c0 -8 -4 -12 -10 -9 -5 3 -10 10 -10 16 0 5 5
9 10 9 6 0 10 -7 10 -16z m1360 -9 c0 -8 5 -15 10 -15 6 0 10 -15 9 -32 -1
-37 -16 -93 -18 -66 -1 9 -6 18 -13 20 -9 3 -9 12 1 37 11 24 11 35 2 44 -14
14 -14 27 -1 27 6 0 10 -7 10 -15z m1935 -5 c3 -5 1 -10 -4 -10 -6 0 -11 5
-11 10 0 6 2 10 4 10 3 0 8 -4 11 -10z m1225 -53 c0 -13 -5 -28 -12 -35 -9 -9
-9 -15 0 -24 14 -14 16 -38 2 -38 -5 0 -21 12 -37 27 -23 24 -24 28 -10 31 9
2 17 11 17 21 0 18 18 41 32 41 4 0 8 -10 8 -23z m-3213 -70 c-6 -20 -27 -19
-27 2 0 14 5 19 15 14 9 -3 14 -10 12 -16z m1253 -92 c0 -8 -9 -15 -20 -15
-11 0 -20 -4 -20 -10 0 -5 -9 -10 -20 -10 -11 0 -20 5 -20 10 0 6 9 10 20 10
11 0 20 7 20 15 0 8 9 15 20 15 11 0 20 -7 20 -15z m2021 -35 c11 0 19 -7 19
-16 0 -9 9 -18 20 -21 14 -4 20 -14 20 -33 0 -16 5 -30 11 -32 6 -2 5 -14 -5
-33 -18 -35 -23 -71 -6 -45 7 11 8 5 4 -20 -6 -28 -36 -64 -156 -182 -82 -82
-153 -148 -158 -148 -5 0 -28 -20 -51 -45 -23 -25 -46 -45 -50 -45 -5 0 -42
-33 -82 -72 -75 -75 -126 -115 -139 -110 -5 1 -8 -5 -8 -13 0 -8 -3 -15 -7
-15 -5 0 -32 -23 -61 -50 -29 -28 -57 -50 -62 -50 -6 0 -13 -7 -16 -15 -4 -8
-10 -12 -16 -9 -5 3 -12 -3 -15 -15 -3 -12 -12 -22 -19 -22 -8 -1 -20 -2 -26
-3 -7 -1 -16 -5 -19 -9 -3 -5 -24 -15 -45 -22 -21 -8 -33 -14 -26 -15 28 -1
-33 -80 -62 -80 -8 0 -19 -6 -23 -14 -11 -18 -47 -36 -72 -36 -11 0 -25 -8
-30 -19 -6 -10 -28 -23 -50 -28 -43 -11 -51 -5 -51 39 0 12 -8 29 -17 38 -15
13 -24 14 -57 6 -30 -9 -40 -8 -43 2 -3 6 -16 12 -29 12 -13 0 -24 5 -24 11 0
7 -10 9 -24 5 -14 -3 -37 -1 -51 6 -21 9 -28 9 -34 -1 -6 -9 -11 -8 -21 4 -7
8 -23 15 -36 15 -19 0 -24 5 -24 25 0 23 -4 25 -40 25 -29 0 -40 4 -40 15 0
11 11 15 40 15 22 0 40 -4 40 -10 0 -5 6 -10 13 -10 7 0 23 -9 35 -20 18 -17
25 -18 47 -8 14 6 25 14 25 18 0 16 -28 30 -61 30 -21 0 -44 7 -53 15 -8 8
-27 15 -43 15 -65 0 -88 22 -76 70 6 22 33 28 33 6 0 -18 152 -34 158 -17 2 6
9 11 15 11 7 0 19 5 27 10 24 16 -6 30 -67 30 -45 0 -53 3 -53 19 0 16 9 20
58 24 31 3 73 9 92 13 34 7 90 52 90 73 0 6 6 11 14 11 18 0 30 -33 21 -60 -3
-11 -2 -20 2 -20 5 0 19 -9 32 -21 l22 -21 23 21 22 21 12 -33 c7 -19 12 -41
12 -50 0 -13 8 -17 33 -16 38 1 138 16 120 18 -16 1 -18 81 -3 81 6 0 10 6 10
13 0 8 19 20 43 27 23 8 49 20 58 27 8 7 25 13 37 13 12 0 22 4 22 8 0 5 11
14 25 20 15 7 25 20 25 32 0 11 4 20 9 20 19 0 71 56 71 76 0 26 30 42 30 16
1 -16 2 -15 11 1 15 25 56 40 107 38 35 -2 42 1 43 16 0 14 2 13 10 -5 11 -30
48 -26 60 6 7 17 5 24 -7 29 -9 3 -20 0 -24 -8 -5 -7 -12 -10 -16 -6 -8 7 34
57 48 57 4 0 8 -6 8 -14 0 -20 40 -32 51 -15 5 8 9 21 9 30 0 8 18 26 41 38
44 25 46 43 7 51 l-25 5 23 24 22 23 7 -21 c9 -29 31 -26 39 4 4 16 13 25 23
23 10 -2 20 10 29 37 16 45 28 55 67 55 15 0 27 5 27 10 0 6 -12 10 -27 11
-16 0 -22 3 -15 6 22 8 62 -6 62 -23 0 -18 22 -14 28 4 2 7 -3 12 -12 12 -9 0
-16 8 -16 19 0 20 -18 31 -51 31 -10 0 -19 7 -19 15 0 8 6 15 14 15 8 0 17 15
21 36 6 34 35 79 35 55 0 -18 37 -12 45 7 8 16 8 16 12 0 3 -10 13 -18 24 -18z
m-2021 -15 c0 -9 -6 -12 -15 -9 -8 4 -15 10 -15 15 0 5 7 9 15 9 8 0 15 -7 15
-15z m-3522 -90 c0 -16 -2 -15 -8 5 -4 14 -8 36 -8 50 0 22 1 22 8 -5 4 -16 8
-39 8 -50z m2127 65 c3 -5 4 -14 1 -19 -9 -13 -46 -1 -46 15 0 16 36 19 45 4z
m1575 -44 c0 -3 -4 -8 -10 -11 -5 -3 -10 -1 -10 4 0 6 5 11 10 11 6 0 10 -2
10 -4z m777 -18 c-3 -8 -6 -5 -6 6 -1 11 2 17 5 13 3 -3 4 -12 1 -19z m-960
-50 c-3 -7 -5 -2 -5 12 0 14 2 19 5 13 2 -7 2 -19 0 -25z m243 2 c0 -5 -5 -10
-11 -10 -5 0 -7 5 -4 10 3 6 8 10 11 10 2 0 4 -4 4 -10z m-3750 -50 c0 -22 -2
-40 -4 -40 -2 0 -6 18 -8 40 -2 22 0 40 4 40 5 0 8 -18 8 -40z m3830 29 c0 -6
14 -24 30 -41 27 -26 31 -37 29 -77 -1 -26 1 -53 5 -59 4 -7 3 -20 -3 -29 -5
-11 -6 -24 0 -34 6 -12 4 -19 -5 -22 -17 -7 -31 3 -40 28 -6 17 -10 13 -23
-25 -12 -35 -13 -51 -4 -76 16 -45 15 -49 -25 -70 -28 -14 -38 -16 -41 -6 -3
7 -22 12 -46 12 -36 0 -39 2 -23 13 12 9 17 23 14 42 -5 41 -25 42 -45 1 -9
-20 -19 -36 -22 -36 -13 0 -51 87 -51 118 0 26 -4 32 -21 32 -11 0 -17 5 -14
10 3 6 15 10 26 10 16 0 19 -7 19 -46 0 -41 2 -45 15 -34 13 11 18 10 30 -6
13 -18 14 -18 20 -1 10 25 -1 47 -25 47 -23 0 -27 33 -8 75 l12 26 23 -28 c19
-24 24 -26 33 -13 15 22 12 38 -7 43 -28 7 37 8 80 1 28 -5 37 -11 37 -26 0
-11 5 -16 10 -13 20 12 9 33 -22 46 -18 7 -39 19 -46 26 -7 7 -28 14 -45 14
-30 1 -30 2 8 9 22 4 45 6 52 3 6 -3 20 0 30 6 17 10 17 10 1 11 -14 0 -18 9
-18 40 0 38 2 40 30 40 17 0 30 -5 30 -11z m-1870 -29 c0 -10 -5 -22 -10 -25
-13 -8 -24 20 -16 41 8 20 26 9 26 -16z m1517 5 c-4 -8 -11 -15 -17 -15 -14 0
-13 27 3 33 16 6 21 1 14 -18z m1790 -37 c-3 -8 -6 -5 -6 6 -1 11 2 17 5 13 3
-3 4 -12 1 -19z m38 2 c3 -5 -1 -10 -10 -10 -9 0 -13 5 -10 10 3 6 8 10 10 10
2 0 7 -4 10 -10z m-1755 -50 c0 -5 -9 -10 -20 -10 -11 0 -20 5 -20 10 0 6 9
10 20 10 11 0 20 -4 20 -10z m413 -37 c-8 -3 -13 -22 -13 -44 0 -32 -3 -39
-20 -39 -16 0 -20 7 -20 38 0 21 7 48 16 61 15 21 17 22 33 6 12 -13 13 -19 4
-22z m-3943 -18 c0 -5 -5 -3 -10 5 -5 8 -10 20 -10 25 0 6 5 3 10 -5 5 -8 10
-19 10 -25z m1970 25 c0 -5 -5 -10 -11 -10 -5 0 -7 5 -4 10 3 6 8 10 11 10 2
0 4 -4 4 -10z m-1968 -170 c-6 -41 -12 -38 -12 6 0 19 4 33 8 30 5 -3 7 -19 4
-36z m1358 -40 c0 -29 4 -40 15 -40 11 0 14 -7 9 -25 -5 -21 -1 -26 22 -35 21
-8 25 -13 15 -20 -10 -5 -12 -21 -9 -54 3 -25 3 -45 -1 -44 -21 2 -31 -4 -31
-22 0 -30 -22 -24 -63 15 -24 24 -34 41 -30 52 5 13 8 12 17 -8 l10 -24 4 28
c3 22 7 27 23 22 24 -8 35 16 19 44 -13 26 -30 27 -31 4 0 -10 -3 -13 -5 -7
-3 6 1 24 7 40 6 16 11 48 10 72 -2 24 2 42 8 42 6 0 11 -18 11 -40z m6585
-90 c3 -5 -1 -10 -10 -10 -9 0 -13 5 -10 10 3 6 8 10 10 10 2 0 7 -4 10 -10z
m-6288 -22 c-3 -8 -6 -5 -6 6 -1 11 2 17 5 13 3 -3 4 -12 1 -19z m2553 0 c0
-5 -24 -8 -52 -8 -29 0 -48 4 -41 8 16 10 93 10 93 0z m3760 -18 c0 -5 -2 -10
-4 -10 -3 0 -8 5 -11 10 -3 6 -1 10 4 10 6 0 11 -4 11 -10z m-6251 -19 c9 -6
10 -10 2 -16 -15 -8 -41 1 -41 15 0 12 20 13 39 1z m2331 -7 c0 -8 -4 -12 -10
-9 -5 3 -10 10 -10 16 0 5 5 9 10 9 6 0 10 -7 10 -16z m120 -19 c0 -8 -4 -15
-9 -15 -13 0 -22 16 -14 24 11 11 23 6 23 -9z m40 -1 c0 -8 -5 -12 -10 -9 -6
4 -8 11 -5 16 9 14 15 11 15 -7z m-160 -31 c0 -25 -1 -26 -16 -11 -9 9 -13 21
-10 27 13 20 26 11 26 -16z m-4080 -18 c0 -8 -4 -15 -10 -15 -5 0 -7 7 -4 15
4 8 8 15 10 15 2 0 4 -7 4 -15z m-40 -104 c-11 -23 -26 -41 -33 -40 -9 0 -9 2
1 6 6 2 12 11 12 18 0 24 35 89 38 72 2 -8 -6 -34 -18 -56z m1272 49 c21 0 24
-23 4 -39 -11 -9 -15 -6 -20 14 -4 14 -13 25 -22 25 -8 0 -12 5 -8 11 4 8 9 8
17 0 6 -6 19 -11 29 -11z m547 -47 c1 -7 -6 -13 -14 -13 -16 0 -19 17 -8 46 6
16 7 16 14 -2 4 -10 8 -25 8 -31z m-239 -33 c0 -23 -5 -30 -19 -30 -11 0 -23
5 -26 10 -11 18 6 50 26 50 14 0 19 -7 19 -30z m-85 10 c3 -5 1 -10 -4 -10 -6
0 -11 5 -11 10 0 6 2 10 4 10 3 0 8 -4 11 -10z m7063 -22 c-7 -19 -38 -22 -38
-4 0 10 9 16 21 16 12 0 19 -5 17 -12z m42 2 c0 -5 -2 -10 -4 -10 -3 0 -8 5
-11 10 -3 6 -1 10 4 10 6 0 11 -4 11 -10z m120 6 c0 -2 -3 -11 -6 -20 -8 -20
-34 -21 -34 -2 0 8 -8 17 -17 19 -10 3 -1 5 20 6 20 0 37 -1 37 -3z m-760 -86
c0 -5 -4 -10 -10 -10 -5 0 -10 5 -10 10 0 6 5 10 10 10 6 0 10 -4 10 -10z
m722 -35 c4 -5 4 -13 1 -18 -3 -5 -10 -3 -14 6 -6 9 -17 13 -29 10 -19 -5 -29
15 -14 30 7 6 45 -12 56 -28z m-7434 -15 c7 -11 9 -20 4 -20 -4 0 -13 9 -20
20 -7 11 -9 20 -4 20 4 0 13 -9 20 -20z m-267 -42 c8 -15 7 -24 -7 -39 -21
-23 -32 -24 -56 -2 -20 18 -24 59 -6 65 23 8 59 -5 69 -24z m7636 -10 c-3 -7
-5 -2 -5 12 0 14 2 19 5 13 2 -7 2 -19 0 -25z m-27 2 c0 -5 -5 -10 -11 -10 -5
0 -7 5 -4 10 3 6 8 10 11 10 2 0 4 -4 4 -10z m-105 -40 c3 -5 1 -10 -4 -10 -6
0 -11 5 -11 10 0 6 2 10 4 10 3 0 8 -4 11 -10z m185 0 c0 -5 -7 -10 -16 -10
-8 0 -12 5 -9 10 3 6 10 10 16 10 5 0 9 -4 9 -10z m-4770 -15 c0 -12 -19 -12
-23 0 -4 9 -1 12 9 8 7 -3 14 -7 14 -8z m-4075 -34 c-3 -6 -11 -11 -17 -11 -6
0 -6 6 2 15 14 17 26 13 15 -4z m8935 -31 c0 -5 -5 -10 -11 -10 -5 0 -7 5 -4
10 3 6 8 10 11 10 2 0 4 -4 4 -10z m-916 -32 c10 -38 7 -58 -9 -58 -11 0 -15
11 -15 40 0 43 14 54 24 18z m881 5 c-4 -10 -9 -33 -12 -50 -3 -19 -12 -33
-19 -33 -8 0 -14 -8 -14 -19 0 -12 -7 -18 -17 -17 -12 1 -18 -6 -18 -19 0 -21
-29 -33 -40 -16 -3 6 -2 11 4 11 6 0 8 7 5 15 -4 8 -3 26 0 40 5 20 13 25 39
26 29 0 30 1 10 9 -49 20 -18 68 46 69 18 1 22 -3 16 -16z m-769 -20 c-10 -10
-19 5 -10 18 6 11 8 11 12 0 2 -7 1 -15 -2 -18z m-6796 -53 c0 -5 -2 -10 -4
-10 -3 0 -8 5 -11 10 -3 6 -1 10 4 10 6 0 11 -4 11 -10z m7440 -40 c0 -23 -10
-26 -28 -8 -9 9 -12 9 -12 -1 0 -11 -3 -11 -15 -1 -18 15 -8 25 29 28 20 1 26
-3 26 -18z m14 -99 c19 -7 19 -8 -3 -14 -28 -7 -91 3 -91 14 0 11 67 11 94 0z
m-7864 -30 c15 -29 13 -32 -15 -19 -14 6 -25 17 -25 25 0 20 28 16 40 -6z
m7798 -28 c-5 -25 -28 -28 -28 -4 0 12 6 21 16 21 9 0 14 -7 12 -17z m-7855
-13 c-3 -11 -7 -20 -9 -20 -2 0 -4 9 -4 20 0 11 4 20 9 20 5 0 7 -9 4 -20z
m7810 0 c3 -11 1 -20 -4 -20 -5 0 -9 9 -9 20 0 11 2 20 4 20 2 0 6 -9 9 -20z
m-58 -10 c3 -5 1 -10 -4 -10 -6 0 -11 5 -11 10 0 6 2 10 4 10 3 0 8 -4 11 -10z
m-8145 -64 c0 -3 -4 -8 -10 -11 -5 -3 -10 -1 -10 4 0 6 5 11 10 11 6 0 10 -2
10 -4z"/>
<path d="M7328 12083 c-10 -2 -18 -9 -18 -14 0 -14 20 -11 36 6 16 15 13 16
-18 8z"/>
<path d="M7360 12046 c0 -9 5 -16 10 -16 6 0 10 4 10 9 0 6 -4 13 -10 16 -5 3
-10 -1 -10 -9z"/>
<path d="M7200 11989 c0 -5 5 -7 10 -4 6 3 10 8 10 11 0 2 -4 4 -10 4 -5 0
-10 -5 -10 -11z"/>
<path d="M7120 11951 c0 -17 5 -31 10 -31 6 0 10 11 10 24 0 14 -4 28 -10 31
-6 4 -10 -7 -10 -24z"/>
<path d="M8160 11840 c0 -13 11 -13 30 0 12 8 11 10 -7 10 -13 0 -23 -4 -23
-10z"/>
<path d="M7047 11794 c-11 -11 -8 -44 3 -44 15 0 24 30 13 41 -5 5 -12 6 -16
3z"/>
<path d="M8225 11750 c3 -5 8 -10 11 -10 2 0 4 5 4 10 0 6 -5 10 -11 10 -5 0
-7 -4 -4 -10z"/>
<path d="M8320 11490 c0 -5 5 -10 10 -10 6 0 10 5 10 10 0 6 -4 10 -10 10 -5
0 -10 -4 -10 -10z"/>
<path d="M6625 10761 c-3 -5 -1 -12 5 -16 5 -3 10 1 10 9 0 18 -6 21 -15 7z"/>
<path d="M8388 10453 c-10 -2 -18 -9 -18 -14 0 -14 20 -11 36 6 16 15 13 16
-18 8z"/>
<path d="M8175 10429 c-10 -15 3 -25 16 -12 7 7 7 13 1 17 -6 3 -14 1 -17 -5z"/>
<path d="M8140 10410 c0 -5 5 -10 10 -10 6 0 10 5 10 10 0 6 -4 10 -10 10 -5
0 -10 -4 -10 -10z"/>
<path d="M6990 10265 c0 -8 5 -15 10 -15 6 0 10 7 10 15 0 8 -4 15 -10 15 -5
0 -10 -7 -10 -15z"/>
<path d="M6960 10225 c0 -8 5 -15 10 -15 6 0 10 -10 10 -23 0 -13 7 -32 15
-43 13 -16 16 -17 25 -4 16 23 7 54 -17 65 -13 5 -23 15 -23 22 0 7 -4 13 -10
13 -5 0 -10 -7 -10 -15z"/>
<path d="M6923 10165 c-14 -16 -17 -44 -6 -71 5 -13 10 -6 24 27 21 55 12 78
-18 44z"/>
<path d="M7640 9991 c0 -5 9 -11 20 -14 13 -3 20 0 20 9 0 8 -9 14 -20 14 -11
0 -20 -4 -20 -9z"/>
<path d="M7456 9924 c-3 -9 -6 -31 -6 -50 0 -45 26 -46 32 -1 3 17 8 40 13 50
5 13 2 17 -13 17 -11 0 -23 -7 -26 -16z"/>
<path d="M7288 9763 c6 -2 18 -2 25 0 6 3 1 5 -13 5 -14 0 -19 -2 -12 -5z"/>
<path d="M6837 9234 c-8 -8 1 -24 14 -24 5 0 9 7 9 15 0 15 -12 20 -23 9z"/>
<path d="M5645 10450 c-8 -14 3 -30 21 -30 8 0 14 9 14 20 0 21 -24 28 -35 10z"/>
<path d="M8333 7833 c9 -2 23 -2 30 0 6 3 -1 5 -18 5 -16 0 -22 -2 -12 -5z"/>
<path d="M8628 7833 c-10 -2 -18 -9 -18 -14 0 -14 20 -11 36 6 16 15 13 16
-18 8z"/>
<path d="M8460 7805 c0 -8 5 -15 10 -15 6 0 10 7 10 15 0 8 -4 15 -10 15 -5 0
-10 -7 -10 -15z"/>
<path d="M8940 7800 c0 -5 5 -10 10 -10 6 0 10 5 10 10 0 6 -4 10 -10 10 -5 0
-10 -4 -10 -10z"/>
<path d="M8960 7750 c0 -5 4 -10 9 -10 6 0 13 5 16 10 3 6 -1 10 -9 10 -9 0
-16 -4 -16 -10z"/>
<path d="M8998 7593 c7 -3 16 -2 19 1 4 3 -2 6 -13 5 -11 0 -14 -3 -6 -6z"/>
<path d="M8202 7488 c3 -7 13 -15 22 -16 12 -3 17 1 14 10 -3 7 -13 15 -22 16
-12 3 -17 -1 -14 -10z"/>
<path d="M8806 7116 c10 -8 21 -12 24 -10 5 6 -21 24 -34 24 -6 0 -1 -6 10
-14z"/>
<path d="M8480 7050 c0 -5 5 -10 10 -10 6 0 10 5 10 10 0 6 -4 10 -10 10 -5 0
-10 -4 -10 -10z"/>
<path d="M6498 7833 c7 -3 16 -2 19 1 4 3 -2 6 -13 5 -11 0 -14 -3 -6 -6z"/>
<path d="M6361 7761 c-7 -5 -10 -14 -7 -20 11 -17 24 -13 36 9 12 22 -3 27
-29 11z"/>
<path d="M6430 7745 c0 -10 7 -15 18 -13 21 4 19 22 -2 26 -10 2 -16 -3 -16
-13z"/>
<path d="M6865 7530 c-3 -5 -1 -10 4 -10 6 0 11 5 11 10 0 6 -2 10 -4 10 -3 0
-8 -4 -11 -10z"/>
<path d="M5700 6469 c0 -5 5 -7 10 -4 6 3 10 8 10 11 0 2 -4 4 -10 4 -5 0 -10
-5 -10 -11z"/>
<path d="M5601 6084 c0 -11 3 -14 6 -6 3 7 2 16 -1 19 -3 4 -6 -2 -5 -13z"/>
<path d="M6077 5814 c-8 -8 1 -24 14 -24 5 0 9 7 9 15 0 15 -12 20 -23 9z"/>
<path d="M6176 4294 c-3 -9 -2 -23 4 -32 7 -14 9 -10 10 16 0 35 -5 41 -14 16z"/>
<path d="M4864 4229 c-8 -13 13 -29 39 -29 12 0 23 -12 30 -30 12 -33 23 -36
50 -16 23 18 22 36 -3 36 -11 0 -20 5 -20 10 0 6 -6 10 -14 10 -7 0 -19 7 -26
15 -15 18 -46 20 -56 4z"/>
<path d="M5393 4193 c-20 -7 -15 -33 6 -33 27 0 46 26 25 34 -8 3 -16 6 -17 5
-1 0 -8 -3 -14 -6z"/>
<path d="M5049 4183 c-1 -5 -1 -11 0 -15 0 -5 -6 -8 -14 -8 -19 0 -19 -7 -1
-26 21 -20 54 -17 66 6 9 16 8 20 -5 20 -9 0 -18 7 -21 15 -6 16 -23 21 -25 8z"/>
<path d="M5590 4163 c-20 -8 -29 -23 -23 -40 8 -20 30 -16 47 9 22 31 11 44
-24 31z"/>
<path d="M5121 4144 c0 -11 3 -14 6 -6 3 7 2 16 -1 19 -3 4 -6 -2 -5 -13z"/>
<path d="M5330 4115 c0 -8 5 -15 10 -15 6 0 10 7 10 15 0 8 -4 15 -10 15 -5 0
-10 -7 -10 -15z"/>
<path d="M4703 4109 c-17 -17 -16 -29 2 -29 17 0 20 -27 4 -32 -13 -4 -3 -48
11 -48 10 0 19 73 10 80 -4 3 -9 13 -11 23 -3 15 -6 16 -16 6z"/>
<path d="M5245 4110 c-3 -5 3 -10 14 -10 12 0 21 5 21 10 0 6 -6 10 -14 10 -8
0 -18 -4 -21 -10z"/>
<path d="M4770 4091 c0 -5 9 -11 19 -14 14 -3 18 -1 14 9 -6 15 -33 19 -33 5z"/>
<path d="M5487 4093 c-13 -13 -7 -21 13 -16 11 3 20 9 20 14 0 10 -24 12 -33
2z"/>
<path d="M4665 4070 c-3 -5 3 -10 15 -10 12 0 18 5 15 10 -3 6 -10 10 -15 10
-5 0 -12 -4 -15 -10z"/>
<path d="M5360 4070 c0 -5 4 -10 9 -10 6 0 13 5 16 10 3 6 -1 10 -9 10 -9 0
-16 -4 -16 -10z"/>
<path d="M5055 4050 c-4 -7 -3 -16 2 -21 12 -12 45 0 40 15 -5 15 -34 19 -42
6z"/>
<path d="M4960 4021 c0 -12 6 -21 16 -21 9 0 14 7 12 17 -5 25 -28 28 -28 4z"/>
<path d="M4480 3850 c0 -28 2 -30 20 -20 11 6 20 20 20 30 0 13 -7 20 -20 20
-16 0 -20 -7 -20 -30z"/>
<path d="M4356 3455 c4 -8 10 -15 15 -15 5 0 9 7 9 15 0 8 -7 15 -15 15 -9 0
-12 -6 -9 -15z"/>
<path d="M4365 3160 c3 -5 8 -10 11 -10 2 0 4 5 4 10 0 6 -5 10 -11 10 -5 0
-7 -4 -4 -10z"/>
<path d="M4770 3006 c0 -9 7 -16 16 -16 9 0 14 5 12 12 -6 18 -28 21 -28 4z"/>
<path d="M4817 2940 c-3 -11 -2 -20 3 -20 4 0 10 9 13 20 3 11 2 20 -3 20 -4
0 -10 -9 -13 -20z"/>
<path d="M4590 2830 c0 -5 5 -10 10 -10 6 0 10 5 10 10 0 6 -4 10 -10 10 -5 0
-10 -4 -10 -10z"/>
<path d="M4828 2793 c7 -3 16 -2 19 1 4 3 -2 6 -13 5 -11 0 -14 -3 -6 -6z"/>
<path d="M4312 2740 c0 -14 2 -19 5 -12 2 6 2 18 0 25 -3 6 -5 1 -5 -13z"/>
<path d="M4255 2741 c-3 -5 -1 -12 4 -15 5 -3 11 1 15 9 6 16 -9 21 -19 6z"/>
<path d="M4648 2713 c6 -2 18 -2 25 0 6 3 1 5 -13 5 -14 0 -19 -2 -12 -5z"/>
<path d="M4270 2680 c0 -5 5 -10 10 -10 6 0 10 5 10 10 0 6 -4 10 -10 10 -5 0
-10 -4 -10 -10z"/>
<path d="M4800 2663 c0 -13 5 -23 10 -23 13 0 13 11 0 30 -8 12 -10 11 -10 -7z"/>
<path d="M4345 2650 c-3 -5 -1 -10 4 -10 6 0 11 5 11 10 0 6 -2 10 -4 10 -3 0
-8 -4 -11 -10z"/>
<path d="M4440 2625 c0 -8 5 -15 10 -15 6 0 10 7 10 15 0 8 -4 15 -10 15 -5 0
-10 -7 -10 -15z"/>
<path d="M4586 2455 c-9 -24 5 -41 16 -20 7 11 7 20 0 27 -6 6 -12 3 -16 -7z"/>
<path d="M4410 2280 c0 -5 7 -10 15 -10 8 0 15 5 15 10 0 6 -7 10 -15 10 -8 0
-15 -4 -15 -10z"/>
<path d="M5774 2866 c-8 -22 1 -30 21 -19 15 9 15 11 1 22 -13 11 -17 10 -22
-3z"/>
<path d="M5308 2808 c-37 -10 -38 -12 -37 -51 2 -30 3 -34 6 -14 2 15 9 27 14
27 5 0 9 7 9 15 0 21 27 19 39 -2 11 -20 18 -17 23 11 4 24 -7 26 -54 14z"/>
<path d="M4880 2182 c0 -12 -4 -22 -10 -22 -5 0 -10 -9 -10 -20 0 -11 4 -20
10 -20 11 0 25 68 16 77 -3 4 -6 -3 -6 -15z"/>
<path d="M4798 1913 c7 -3 16 -2 19 1 4 3 -2 6 -13 5 -11 0 -14 -3 -6 -6z"/>
<path d="M5010 1910 c0 -5 5 -10 10 -10 6 0 10 5 10 10 0 6 -4 10 -10 10 -5 0
-10 -4 -10 -10z"/>
<path d="M4720 1810 c0 -6 -12 -22 -27 -36 l-28 -26 30 4 c18 2 30 9 30 18 0
8 4 20 8 27 4 6 3 14 -3 18 -5 3 -10 1 -10 -5z"/>
<path d="M5980 2380 c6 -11 13 -20 15 -20 3 0 5 9 5 20 0 11 -7 20 -15 20 -13
0 -14 -4 -5 -20z"/>
<path d="M3030 2253 c0 -9 16 -13 45 -13 25 0 45 4 45 9 0 5 -20 11 -45 13
-31 2 -45 -1 -45 -9z"/>
<path d="M5900 2090 c0 -5 5 -10 10 -10 6 0 10 5 10 10 0 6 -4 10 -10 10 -5 0
-10 -4 -10 -10z"/>
<path d="M5940 1798 c0 -7 5 -20 10 -28 9 -13 11 -13 20 0 16 24 12 40 -10 40
-11 0 -20 -6 -20 -12z"/>
<path d="M5980 1700 c0 -11 5 -20 10 -20 6 0 10 9 10 20 0 11 -4 20 -10 20 -5
0 -10 -9 -10 -20z"/>
<path d="M4655 1015 c-20 -15 -20 -15 0 -30 17 -14 21 -14 34 0 14 13 14 17 0
30 -13 14 -17 14 -34 0z"/>
<path d="M4680 945 c7 -8 19 -15 26 -15 8 0 14 -4 14 -10 0 -5 7 -10 15 -10
20 0 19 6 -5 30 -24 24 -70 29 -50 5z"/>
<path d="M4770 890 c0 -5 7 -10 15 -10 8 0 15 5 15 10 0 6 -7 10 -15 10 -8 0
-15 -4 -15 -10z"/>
<path d="M4540 876 c0 -9 30 -14 35 -6 4 6 -3 10 -14 10 -12 0 -21 -2 -21 -4z"/>
<path d="M4625 858 c-17 -16 -17 -20 -5 -28 8 -5 23 -10 33 -10 9 0 17 -5 17
-11 0 -6 10 -9 23 -7 34 5 30 44 -4 41 -17 -1 -30 5 -35 17 -9 17 -10 17 -29
-2z"/>
<path d="M5040 850 c0 -5 5 -10 10 -10 6 0 10 5 10 10 0 6 -4 10 -10 10 -5 0
-10 -4 -10 -10z"/>
<path d="M4690 765 c0 -8 7 -15 15 -15 8 0 15 7 15 15 0 8 -7 15 -15 15 -8 0
-15 -7 -15 -15z"/>
<path d="M4230 1360 c-9 -6 -10 -10 -3 -10 6 0 15 5 18 10 8 12 4 12 -15 0z"/>
<path d="M1040 12693 c0 -22 2 -25 10 -13 13 20 13 40 0 40 -5 0 -10 -12 -10
-27z"/>
<path d="M4020 11271 c0 -6 5 -13 10 -16 6 -3 10 1 10 9 0 9 -4 16 -10 16 -5
0 -10 -4 -10 -9z"/>
<path d="M3111 10959 c8 -4 4 -9 -10 -14 -11 -3 -21 -13 -21 -21 0 -20 38 -17
43 4 4 13 5 12 6 -5 1 -16 6 -21 16 -16 13 4 15 -2 11 -38 l-6 -44 16 48 c15
47 16 48 35 31 10 -9 19 -27 19 -38 0 -12 7 -34 15 -50 8 -15 15 -41 15 -57 0
-15 5 -31 10 -34 6 -3 10 -18 11 -33 0 -25 1 -26 9 -6 11 28 30 40 30 20 0 -9
3 -16 8 -16 4 0 6 23 6 50 -3 103 -3 103 -18 91 -11 -9 -20 -7 -40 12 -14 13
-26 31 -26 39 0 9 -7 31 -15 51 -14 34 -16 34 -70 34 -30 0 -50 -4 -44 -8z"/>
<path d="M3363 10842 c-3 -12 -9 -19 -14 -16 -5 3 -9 -2 -9 -10 0 -26 29 -18
36 9 4 14 3 29 0 33 -4 3 -9 -4 -13 -16z"/>
<path d="M3177 10837 c-2 -7 0 -20 5 -29 11 -23 43 -24 34 -2 -3 9 -6 19 -6
24 0 13 -28 20 -33 7z"/>
<path d="M2978 10700 c-14 -9 -15 -23 -11 -97 6 -95 7 -152 4 -223 -4 -84 7
-275 19 -325 6 -27 14 -67 17 -87 5 -37 20 -50 28 -25 2 6 6 50 9 97 6 105 25
179 75 295 21 50 45 108 52 130 7 22 19 49 26 60 7 11 13 31 13 45 -1 23 -2
24 -14 7 -15 -20 -20 -16 -30 25 -3 16 -12 27 -18 25 -6 -1 -17 9 -24 23 -27
52 -99 77 -146 50z"/>
<path d="M3162 10670 c0 -19 2 -27 5 -17 2 9 2 25 0 35 -3 9 -5 1 -5 -18z"/>
<path d="M2159 10368 c-1 -18 -2 -51 -3 -73 -1 -22 7 -114 17 -205 9 -91 17
-190 16 -220 -2 -86 16 -254 46 -430 8 -47 31 -186 51 -310 19 -124 57 -349
84 -500 27 -151 63 -358 80 -460 17 -102 35 -207 40 -235 5 -27 23 -129 40
-225 17 -96 38 -212 46 -258 9 -46 13 -93 10 -105 -6 -21 -75 -99 -128 -144
-23 -19 -189 -152 -213 -171 -5 -4 -23 -17 -39 -30 -16 -12 -32 -22 -36 -22
-18 0 -33 58 -79 300 -33 173 -73 379 -96 485 -8 39 -33 167 -55 285 -23 118
-54 283 -70 365 -16 83 -38 218 -50 302 -11 84 -27 168 -36 188 -8 20 -19 64
-24 98 -4 34 -18 96 -29 137 -12 41 -23 90 -26 109 -3 18 -10 41 -15 50 -15
26 -3 -142 20 -279 26 -156 38 -234 44 -284 3 -21 9 -59 15 -85 20 -90 31
-163 25 -173 -3 -5 -1 -14 4 -21 11 -13 34 -158 27 -166 -10 -9 -55 176 -48
195 3 8 1 20 -5 27 -11 13 -19 44 -28 107 -3 19 -13 71 -24 115 -18 77 -108
483 -131 595 -24 117 -41 175 -56 194 -15 20 -15 20 -8 1 4 -11 11 -48 16 -83
18 -126 38 -243 43 -250 3 -4 7 -32 10 -62 8 -78 44 -280 66 -380 31 -134 57
-268 84 -422 34 -194 50 -271 85 -418 44 -186 67 -293 90 -415 50 -264 93
-471 107 -512 13 -39 14 -47 1 -67 -22 -34 -97 -106 -161 -156 -32 -25 -71
-57 -87 -72 -16 -14 -29 -23 -29 -20 0 4 -6 0 -13 -8 -7 -9 -37 -33 -67 -55
-30 -22 -68 -50 -85 -62 -81 -59 -165 -113 -177 -113 -8 0 -20 6 -28 13 -8 6
-6 2 4 -10 11 -13 14 -23 8 -23 -8 0 -12 -27 -12 -85 0 -47 2 -85 4 -85 3 0
16 4 30 10 14 5 26 6 26 1 0 -5 9 -7 20 -4 11 3 20 9 20 14 0 5 5 9 12 9 7 0
-16 -27 -50 -61 -34 -34 -62 -63 -62 -65 0 -9 -121 -124 -130 -124 -6 0 -10
-7 -10 -15 0 -8 5 -15 10 -15 17 0 110 92 104 102 -3 5 4 4 15 -4 18 -11 23
-11 30 0 4 8 11 13 15 13 6 -1 91 38 126 57 23 13 62 34 90 48 32 16 131 98
359 296 74 64 248 198 257 198 4 0 21 12 38 28 18 15 52 43 76 62 24 19 60 51
81 70 63 59 103 94 141 122 20 15 42 34 50 41 22 22 135 97 146 97 6 0 12 6
14 12 3 7 18 11 36 10 18 -1 32 2 32 8 0 5 -8 10 -17 10 -10 1 5 11 33 23 28
12 58 30 68 40 17 16 16 17 -3 17 -32 0 -34 18 -4 37 15 9 36 25 46 35 17 17
17 18 -13 18 -16 0 -30 -4 -30 -10 0 -5 -9 -10 -19 -10 -11 0 -23 5 -26 10 -3
6 -37 10 -75 10 -38 0 -71 4 -75 9 -9 15 36 41 70 41 45 0 68 26 47 54 -5 6
-12 28 -16 49 -5 24 -12 37 -23 37 -13 0 -15 8 -10 40 4 31 2 40 -10 40 -9 0
-13 6 -9 15 5 15 -21 137 -51 235 -10 30 -16 74 -14 98 2 25 -3 52 -11 65 -8
12 -15 38 -16 57 -1 19 -6 44 -11 55 -5 11 -17 65 -26 120 -9 55 -19 111 -22
125 -4 14 -5 29 -4 34 1 6 -2 19 -7 30 -6 12 -15 55 -22 96 -6 41 -15 98 -20
125 -5 28 -11 61 -14 75 -2 14 -11 50 -19 80 -8 30 -17 81 -21 113 -6 55 -33
189 -57 282 -12 45 -24 103 -38 185 -5 30 -17 84 -26 120 -9 36 -22 92 -30
125 -7 33 -18 72 -24 87 -5 14 -15 55 -21 90 -6 34 -17 72 -24 83 -8 11 -17
41 -21 65 -3 25 -13 68 -20 95 -8 28 -21 77 -30 110 -8 33 -22 80 -29 105 -8
25 -17 64 -21 88 -8 51 -34 59 -36 10z m158 -525 c-3 -10 -5 -4 -5 12 0 17 2
24 5 18 2 -7 2 -21 0 -30z"/>
<path d="M3900 10175 c-10 -12 -10 -15 4 -15 9 0 16 7 16 15 0 8 -2 15 -4 15
-2 0 -9 -7 -16 -15z"/>
<path d="M3012 9790 c0 -14 2 -19 5 -12 2 6 2 18 0 25 -3 6 -5 1 -5 -13z"/>
<path d="M3013 9713 c1 -28 5 -46 9 -40 4 7 8 -13 8 -43 0 -69 8 -100 26 -100
18 0 18 50 0 92 -8 18 -21 58 -29 88 l-15 55 1 -52z"/>
<path d="M3905 9670 c3 -5 8 -10 11 -10 2 0 4 5 4 10 0 6 -5 10 -11 10 -5 0
-7 -4 -4 -10z"/>
<path d="M3051 9513 c-1 -6 -4 -20 -7 -30 -5 -17 -5 -17 6 0 6 10 9 23 6 30
-3 9 -5 9 -5 0z"/>
<path d="M3030 9109 c0 -5 5 -7 10 -4 6 3 10 8 10 11 0 2 -4 4 -10 4 -5 0 -10
-5 -10 -11z"/>
<path d="M848 8743 c-7 -51 2 -101 21 -106 11 -3 9 -5 -6 -6 -16 -1 -23 -7
-23 -21 0 -11 0 -23 0 -27 0 -5 6 -8 13 -8 15 0 26 -87 12 -97 -6 -5 -5 -8 3
-8 6 0 12 -10 12 -22 0 -12 3 -18 7 -14 4 4 17 -46 29 -111 22 -121 87 -382
103 -418 6 -11 13 -40 16 -65 9 -63 15 -80 27 -80 6 0 7 7 3 18 -4 9 -9 42
-11 72 -2 30 -9 80 -14 110 -6 30 -15 78 -19 105 -15 83 -29 157 -44 225 -9
36 -21 91 -28 123 -7 31 -16 57 -19 57 -3 0 -7 17 -8 38 -5 70 -34 187 -48
195 -8 5 -12 12 -9 17 3 4 1 19 -4 31 -8 22 -8 22 -13 -8z"/>
<path d="M5403 8690 c-2 -28 10 -40 21 -22 6 10 -4 52 -13 52 -3 0 -7 -14 -8
-30z"/>
<path d="M5455 8410 c3 -5 8 -10 11 -10 2 0 4 5 4 10 0 6 -5 10 -11 10 -5 0
-7 -4 -4 -10z"/>
<path d="M4241 7654 c0 -11 3 -14 6 -6 3 7 2 16 -1 19 -3 4 -6 -2 -5 -13z"/>
<path d="M4153 7606 c-16 -19 -4 -29 13 -11 8 7 14 16 14 19 0 10 -15 6 -27
-8z"/>
<path d="M4076 7597 c3 -10 9 -15 12 -12 3 3 0 11 -7 18 -10 9 -11 8 -5 -6z"/>
<path d="M3825 7510 c3 -5 8 -10 11 -10 2 0 4 5 4 10 0 6 -5 10 -11 10 -5 0
-7 -4 -4 -10z"/>
<path d="M9396 7311 c-4 -5 -2 -12 3 -15 5 -4 12 -2 15 3 4 5 2 12 -3 15 -5 4
-12 2 -15 -3z"/>
<path d="M3025 7210 c-3 -5 -1 -10 4 -10 6 0 11 5 11 10 0 6 -2 10 -4 10 -3 0
-8 -4 -11 -10z"/>
<path d="M3520 6944 c0 -8 5 -12 10 -9 6 3 10 10 10 16 0 5 -4 9 -10 9 -5 0
-10 -7 -10 -16z"/>
<path d="M1246 6900 c8 -43 14 -51 14 -19 0 13 -5 31 -10 39 -7 11 -8 5 -4
-20z"/>
<path d="M3380 6670 c0 -19 3 -21 12 -12 9 9 9 15 0 24 -9 9 -12 7 -12 -12z"/>
<path d="M26 6591 c-26 -16 -26 -16 -26 -146 0 -92 5 -143 16 -175 18 -51 40
-132 113 -410 27 -107 55 -208 61 -225 6 -16 13 -66 16 -110 6 -80 6 -80 -28
-115 -18 -20 -58 -54 -88 -77 -51 -39 -90 -77 -90 -88 0 -3 37 24 81 59 82 65
114 82 125 65 3 -5 -1 -9 -9 -9 -13 0 -28 -12 -105 -80 -12 -11 -27 -20 -31
-20 -5 0 -21 -14 -35 -31 -25 -30 -26 -34 -26 -167 1 -135 1 -136 18 -107 29
52 98 149 121 169 11 11 21 24 21 29 0 6 20 35 45 65 25 30 45 59 45 64 0 5 7
16 16 25 14 14 13 18 -10 42 -27 28 -34 45 -15 39 6 -2 9 -6 7 -8 -7 -11 41
-52 52 -45 9 6 9 10 -1 17 -10 7 -9 8 5 4 13 -5 27 3 47 26 32 34 38 48 14 28
-19 -16 -25 -10 -28 26 -3 31 -9 33 -32 11 -16 -17 -10 -28 11 -20 8 3 14 1
14 -5 0 -8 -60 -24 -68 -17 -1 1 5 16 15 33 17 30 17 32 -6 94 -29 80 -70 237
-81 308 -9 64 -2 151 14 163 8 6 7 10 -1 14 -7 2 -13 17 -13 33 0 16 6 30 13
33 9 3 8 9 -4 23 -11 13 -16 42 -17 92 -1 40 -6 81 -11 90 -5 9 -12 40 -16 67
-4 28 -18 95 -31 149 -13 54 -24 100 -24 101 0 9 -52 -1 -74 -14z m311 -1205
c-5 -14 -57 -21 -57 -7 0 9 20 17 48 17 7 1 11 -4 9 -10z"/>
<path d="M3167 6589 c-21 -5 -48 -14 -60 -20 -11 -7 -35 -13 -52 -14 -16 -1
-54 -14 -84 -29 -30 -14 -62 -26 -71 -26 -9 0 -27 -11 -40 -25 l-23 -25 57 0
c48 0 73 7 140 41 44 22 88 46 96 53 8 7 30 19 48 26 18 7 35 17 38 21 6 10 2
10 -49 -2z"/>
<path d="M9045 6560 c4 -6 11 -8 16 -5 14 9 11 15 -7 15 -8 0 -12 -5 -9 -10z"/>
<path d="M9220 6529 c0 -5 5 -7 10 -4 6 3 10 8 10 11 0 2 -4 4 -10 4 -5 0 -10
-5 -10 -11z"/>
<path d="M9170 6511 c0 -15 42 -41 67 -41 16 0 21 4 16 16 -4 10 -13 14 -28
10 -15 -4 -25 -1 -29 9 -6 16 -26 21 -26 6z"/>
<path d="M9299 6503 c-15 -4 -44 -51 -36 -59 2 -2 17 -5 33 -6 16 -1 31 -5 34
-8 31 -34 134 -52 158 -28 17 17 15 30 -5 26 -26 -5 -55 22 -41 39 14 17 -2
16 -26 -2 -25 -19 -76 -21 -58 -3 19 19 15 41 -5 29 -12 -6 -20 -5 -28 3 -5 7
-17 11 -26 9z"/>
<path d="M9484 6455 c-17 -13 -17 -14 -2 -15 9 0 20 5 23 11 11 17 0 20 -21 4z"/>
<path d="M9515 6430 c-4 -6 7 -10 24 -10 17 0 31 5 31 10 0 6 -11 10 -24 10
-14 0 -28 -4 -31 -10z"/>
<path d="M9560 6410 c-10 -6 -11 -10 -2 -10 14 0 12 -21 -5 -35 -6 -5 -14 -28
-18 -50 -3 -22 -8 -48 -11 -57 -4 -13 0 -18 16 -18 26 0 17 -18 -15 -30 -25
-9 -54 -50 -36 -50 6 0 14 7 19 17 9 15 13 14 44 -5 20 -12 38 -22 42 -22 13
0 5 30 -11 39 -17 10 -17 12 0 25 18 14 18 14 0 19 -17 5 -17 5 0 6 16 1 18
10 16 74 -3 106 -8 117 -39 97z"/>
<path d="M9496 6403 c-11 -11 -6 -21 14 -26 11 -3 22 -1 25 3 7 11 -30 32 -39
23z"/>
<path d="M1930 6030 c-12 -8 -9 -10 13 -10 16 0 26 4 22 10 -8 12 -16 12 -35
0z"/>
<path d="M1416 5775 c-16 -12 -17 -15 -4 -15 9 0 18 7 22 15 7 18 6 18 -18 0z"/>
<path d="M4360 5775 c0 -8 5 -15 12 -15 6 0 8 -3 5 -6 -9 -9 12 -46 22 -40 4
3 18 -2 31 -11 32 -22 60 -24 52 -4 -9 23 -35 51 -49 51 -6 0 -18 6 -25 13
-22 22 -48 28 -48 12z"/>
<path d="M426 5475 c-11 -8 -15 -15 -9 -15 6 0 16 7 23 15 16 19 11 19 -14 0z"/>
<path d="M1340 5245 c-8 -9 -8 -15 -2 -15 12 0 26 19 19 26 -2 2 -10 -2 -17
-11z"/>
<path d="M5092 5182 c-11 -32 0 -64 17 -47 14 15 18 68 5 72 -7 2 -16 -9 -22
-25z"/>
<path d="M600 5050 c0 -5 7 -10 16 -10 8 0 12 5 9 10 -3 6 -10 10 -16 10 -5 0
-9 -4 -9 -10z"/>
<path d="M305 4530 c-3 -5 -1 -10 4 -10 6 0 11 5 11 10 0 6 -2 10 -4 10 -3 0
-8 -4 -11 -10z"/>
<path d="M3335 4460 c-10 -11 -16 -21 -14 -21 40 -13 58 1 41 29 -7 9 -13 8
-27 -8z"/>
<path d="M3395 4410 c-3 -5 3 -10 15 -10 12 0 18 5 15 10 -3 6 -10 10 -15 10
-5 0 -12 -4 -15 -10z"/>
<path d="M3288 4244 c10 -5 10 -9 1 -20 -8 -10 -23 -12 -53 -8 -37 6 -39 5
-22 -8 21 -16 13 -43 -10 -34 -9 3 -14 -1 -14 -13 0 -12 10 -21 25 -25 14 -4
25 -11 25 -16 0 -6 7 -10 15 -10 9 0 18 -7 21 -15 4 -8 12 -15 20 -15 19 0 18
16 -1 24 -8 3 -15 12 -15 21 0 8 -4 15 -10 15 -5 0 -10 5 -10 10 0 6 17 8 43
5 23 -2 35 -2 26 1 -24 7 -31 52 -10 64 19 10 15 15 -19 24 -14 3 -19 3 -12 0z"/>
<path d="M3144 4125 c-6 -14 7 -28 64 -71 8 -6 11 -13 6 -16 -15 -9 -54 10
-54 27 0 8 -3 15 -7 15 -10 0 -33 -49 -33 -71 0 -18 -26 -33 -41 -23 -13 8
-10 -8 5 -28 15 -21 76 -36 76 -20 0 6 -9 14 -20 17 -50 16 -5 63 58 60 45 -3
58 6 46 33 -4 9 -8 26 -8 37 -1 13 -9 21 -24 23 -13 2 -26 10 -29 18 -7 19
-32 18 -39 -1z"/>
<path d="M3265 4000 c-3 -5 -1 -10 4 -10 6 0 11 5 11 10 0 6 -2 10 -4 10 -3 0
-8 -4 -11 -10z"/>
<path d="M3171 3984 c0 -11 3 -14 6 -6 3 7 2 16 -1 19 -3 4 -6 -2 -5 -13z"/>
<path d="M3170 3930 c0 -5 9 -10 21 -10 11 0 17 5 14 10 -3 6 -13 10 -21 10
-8 0 -14 -4 -14 -10z"/>
<path d="M3082 3899 c2 -7 10 -15 17 -17 8 -3 12 1 9 9 -2 7 -10 15 -17 17 -8
3 -12 -1 -9 -9z"/>
<path d="M3345 3840 c27 -12 35 -12 35 0 0 6 -12 10 -27 9 -25 0 -26 -1 -8 -9z"/>
<path d="M130 3775 c-15 -18 2 -45 30 -45 10 0 20 7 24 15 3 9 0 15 -9 15 -8
0 -15 7 -15 15 0 8 -4 15 -9 15 -5 0 -14 -7 -21 -15z"/>
<path d="M3400 3770 c0 -5 5 -10 11 -10 5 0 7 5 4 10 -3 6 -8 10 -11 10 -2 0
-4 -4 -4 -10z"/>
<path d="M3485 3770 c-3 -5 -1 -10 4 -10 6 0 11 5 11 10 0 6 -2 10 -4 10 -3 0
-8 -4 -11 -10z"/>
<path d="M3475 3670 c4 -6 11 -8 16 -5 14 9 11 15 -7 15 -8 0 -12 -5 -9 -10z"/>
<path d="M3441 3614 c0 -11 3 -14 6 -6 3 7 2 16 -1 19 -3 4 -6 -2 -5 -13z"/>
<path d="M3555 3620 c4 -6 11 -8 16 -5 14 9 11 15 -7 15 -8 0 -12 -5 -9 -10z"/>
<path d="M3615 3130 c-3 -5 1 -10 10 -10 9 0 13 5 10 10 -3 6 -8 10 -10 10 -2
0 -7 -4 -10 -10z"/>
<path d="M1 3114 c0 -11 3 -14 6 -6 3 7 2 16 -1 19 -3 4 -6 -2 -5 -13z"/>
<path d="M3560 2834 c0 -9 5 -14 12 -12 18 6 21 28 4 28 -9 0 -16 -7 -16 -16z"/>
<path d="M3200 2795 c0 -19 9 -19 51 0 l34 14 -42 1 c-32 0 -43 -4 -43 -15z"/>
<path d="M3410 2789 c0 -5 5 -7 10 -4 6 3 10 8 10 11 0 2 -4 4 -10 4 -5 0 -10
-5 -10 -11z"/>
<path d="M3250 2776 c0 -2 7 -9 15 -16 12 -10 15 -10 15 4 0 9 -7 16 -15 16
-8 0 -15 -2 -15 -4z"/>
<path d="M3208 2723 c7 -3 16 -2 19 1 4 3 -2 6 -13 5 -11 0 -14 -3 -6 -6z"/>
<path d="M3280 2720 c0 -5 7 -10 15 -10 8 0 15 5 15 10 0 6 -7 10 -15 10 -8 0
-15 -4 -15 -10z"/>
<path d="M3112 2695 c0 -16 2 -22 5 -12 2 9 2 23 0 30 -3 6 -5 -1 -5 -18z"/>
<path d="M3126 2664 c-9 -22 -8 -24 9 -24 8 0 15 9 15 20 0 24 -15 27 -24 4z"/>
<path d="M3043 2520 c0 -25 2 -35 4 -22 2 12 2 32 0 45 -2 12 -4 2 -4 -23z"/>
<path d="M3093 2520 c0 -25 2 -35 4 -22 2 12 2 32 0 45 -2 12 -4 2 -4 -23z"/>
<path d="M3201 2534 c0 -11 3 -14 6 -6 3 7 2 16 -1 19 -3 4 -6 -2 -5 -13z"/>
<path d="M2527 2363 c-12 -11 -8 -21 13 -26 15 -4 20 0 20 14 0 18 -20 26 -33
12z"/>
<path d="M2442 2308 c7 -19 35 -21 41 -3 5 11 0 15 -19 15 -16 0 -24 -5 -22
-12z"/>
<path d="M2560 2210 c0 -11 4 -20 9 -20 5 0 7 9 4 20 -3 11 -7 20 -9 20 -2 0
-4 -9 -4 -20z"/>
<path d="M2218 2068 c-6 -17 1 -38 13 -38 5 0 9 11 9 25 0 26 -14 34 -22 13z"/>
<path d="M2290 1860 c0 -11 7 -20 15 -20 8 0 15 9 15 20 0 11 -7 20 -15 20 -8
0 -15 -9 -15 -20z"/>
<path d="M2400 1857 c0 -9 -4 -17 -10 -17 -5 0 -10 -18 -10 -40 0 -22 4 -40 9
-40 8 0 22 101 15 109 -2 2 -4 -3 -4 -12z"/>
<path d="M2210 1690 c0 -5 5 -10 10 -10 6 0 10 5 10 10 0 6 -4 10 -10 10 -5 0
-10 -4 -10 -10z"/>
<path d="M2078 1631 c-4 -27 -3 -28 19 -18 27 12 30 32 7 41 -22 8 -21 9 -26
-23z"/>
<path d="M2190 1574 c32 -28 57 -23 44 9 -4 11 -18 17 -41 17 l-35 0 32 -26z"/>
<path d="M2076 1542 c-7 -11 4 -52 14 -52 4 0 23 7 41 15 30 13 31 14 10 15
-14 0 -32 7 -42 16 -9 8 -19 11 -23 6z"/>
<path d="M2355 1530 c-4 -6 5 -10 20 -10 15 0 24 4 20 10 -3 6 -12 10 -20 10
-8 0 -17 -4 -20 -10z"/>
<path d="M2188 1523 c7 -3 16 -2 19 1 4 3 -2 6 -13 5 -11 0 -14 -3 -6 -6z"/>
<path d="M2020 1491 c0 -5 5 -13 10 -16 6 -3 10 -2 10 4 0 5 -4 13 -10 16 -5
3 -10 2 -10 -4z"/>
<path d="M2160 1443 l1 -48 19 24 c25 30 25 47 0 61 -19 10 -20 8 -20 -37z"/>
<path d="M1580 1400 c0 -5 5 -10 10 -10 6 0 10 5 10 10 0 6 -4 10 -10 10 -5 0
-10 -4 -10 -10z"/>
<path d="M2065 1331 c-3 -5 -1 -12 5 -16 5 -3 10 1 10 9 0 18 -6 21 -15 7z"/>
<path d="M1583 1262 c10 -10 17 -25 17 -33 0 -12 2 -12 9 0 11 17 -8 51 -28
51 -11 0 -11 -4 2 -18z"/>
<path d="M1505 1161 c-3 -5 -1 -12 5 -16 5 -3 10 1 10 9 0 18 -6 21 -15 7z"/>
<path d="M1540 1082 c0 -43 6 -53 26 -45 17 6 18 24 2 58 -16 36 -28 31 -28
-13z"/>
<path d="M1740 1111 c0 -6 5 -13 10 -16 6 -3 10 1 10 9 0 9 -4 16 -10 16 -5 0
-10 -4 -10 -9z"/>
<path d="M1410 1058 c0 -9 5 -20 11 -23 17 -11 20 0 4 21 -13 17 -14 17 -15 2z"/>
<path d="M1341 988 c0 -7 4 -22 9 -33 7 -17 9 -15 9 13 1 17 -3 32 -9 32 -5 0
-10 -6 -9 -12z"/>
<path d="M1171 754 c0 -11 3 -14 6 -6 3 7 2 16 -1 19 -3 4 -6 -2 -5 -13z"/>
<path d="M1156 695 c-6 -17 2 -45 14 -45 12 0 20 28 14 45 -4 8 -10 15 -14 15
-4 0 -10 -7 -14 -15z"/>
<path d="M1110 570 c0 -5 5 -10 11 -10 5 0 7 5 4 10 -3 6 -8 10 -11 10 -2 0
-4 -4 -4 -10z"/>
<path d="M1032 464 c-11 -12 -11 -18 -2 -29 13 -16 40 -21 40 -7 -1 4 -6 17
-13 28 -10 19 -14 20 -25 8z"/>
<path d="M960 396 c0 -9 5 -16 10 -16 6 0 10 4 10 9 0 6 -4 13 -10 16 -5 3
-10 -1 -10 -9z"/>
<path d="M865 330 c-3 -5 -1 -10 4 -10 6 0 11 5 11 10 0 6 -2 10 -4 10 -3 0
-8 -4 -11 -10z"/>
</g>
</svg>
